<svg xmlns="http://www.w3.org/2000/svg" viewBox="50 177.9 484 500" id="products-black-metal-icon-svg">
    <style>
        #products-black-metal-icon-svg       > * {fill: #4D5255}
        #products-black-metal-icon-svg:hover > * {fill: #CC0000}
    </style>
    <path d="M520.9,343.3c1.8-1.2,3-2.4,4.2-3.6c0.6-0.6,0.6-0.6,1.2-1.2c0.6-0.6,0.6-1.2,1.2-1.8c0,0,0,0,0-0.6 s0.6-0.6,0.6-1.2s0-0.6,0.6-1.2c0-0.6,0-0.6,0.6-1.2v-1.2l0.6-17.3c0,0,0-1.2-0.6-3.6c0-0.6,0-0.6,0-0.6v-0.6v-0.6l-0.6-1.2L528,307 c0,0-0.6-0.6-0.6-1.2s-0.6-0.6-0.6-1.2c0,0-0.6-1.2-1.2-1.2l-0.6-0.6c0,0,0,0-0.6-0.6c0,0,0,0-0.6-0.6l0,0l-0.6-0.6l-0.6-0.6 c0,0-0.6-0.6-1.2-0.6c0,0-0.6-0.6-1.2-0.6l-200-114.9l-0.6-0.6l-0.6-0.6c0,0-0.6,0-0.6-0.6h-0.6h-1.2h-1.2h-0.6c0,0-0.6,0-1.2,0 c0,0-0.6,0-1.2,0c-0.6,0-1.2,0-1.2,0.6c-0.6,0-1.2,0.6-1.8,0.6L58.3,329.7l0,0l0,0c-3,1.8-4.8,5.4-4.8,9.5v12.5 c0,12.5,8.3,26.8,19.6,33.3c8.3,4.8,18.5,14.3,29.8,25.6l1.2,1.2c9.5,9.5,19.6,19,30.4,26.2v35.1L61.3,516c0,0,0,0-0.6,0.6 c-4.8,3-7.7,8.9-7.7,16.1v12.5c0,3,0.6,6,2.4,8.9c1.8,2.4,3.6,4.8,6,6.5l200,115.5c1.8,1.2,4.2,1.8,6,1.8c1.2,0,1.8,0,3-0.6 c0.6,0,1.2-0.6,1.8-0.6l251.2-145.8c1.2-0.6,2.4-1.8,3-3c0-0.6,0.6-0.6,0.6-1.8l0.6-1.2v-0.6v-0.6v-1.2c0,0,0-0.6,0-1.2v-12.5 l-0.6-4.8c0,0,0,0,0-0.6l-1.2-4.8l0,0l0,0l-0.6-2.4v-0.6l-0.6-1.8l0,0l-2.4-4.8c-0.6-0.6-1.2-1.8-1.2-2.4c-0.6-0.6-0.6-1.2-1.2-1.8 c0,0,0,0,0-0.6l-3-3.6l-0.6-0.6l-2.4-2.4c0,0-0.6-0.6-1.2-0.6l-3.6-2.4c-1.2-0.6-1.8-1.2-3-1.8c-1.2-0.6-1.8-1.2-3-2.4l-0.6-0.6 c-0.6-0.6-1.2-1.2-2.4-2.4l-6.5-5.4c-2.4-1.8-4.8-4.2-7.1-6.5l-7.7-7.1c-2.4-2.4-4.8-4.2-7.1-7.1l-3.6-3.6c-1.2-1.2-2.4-2.4-3.6-3.6 l-4.8-4.2c-1.2-1.2-2.4-2.4-4.2-3l-1.2-1.2l-0.6-0.6l-0.6-0.6l-0.6-0.6c-1.2-0.6-1.8-1.2-3-1.8c-0.6,0-0.6-0.6-1.2-0.6v-35.1 L520.9,343.3z M314.3,197.5l177.4,102.4l15.5,8.9L268.5,445.7L77.4,335L314.3,197.5z M269.1,489.2 C269.1,489.2,269.7,489.2,269.1,489.2L269.1,489.2C269.7,489.2,269.7,489.2,269.1,489.2l164.3-95.2v26.8L196.4,558.8v-85.7 c8.3,3,16.7,4.8,24.4,6h1.2c11.3,1.8,20.8,4.2,29.2,8.9c3.6,1.8,7.1,3,10.7,3C264.3,491.6,266.7,490.4,269.1,489.2z M133.9,489.8 V532c-8.9-3-17.3-4.8-24.4-6h-1.2c-8.3-1.8-17.3-3-24.4-6.5L133.9,489.8z M263.1,659.4L68.5,546.9c0,0-0.6-0.6-1.2-1.2 c-0.6-0.6-0.6-1.2-0.6-1.2V532c0-0.6,0-4.2,1.8-4.2c0.6,0,1.8,0,3.6,1.2c10.7,6.5,23.2,8.3,33.9,10.1h1.2c10.7,1.8,20.2,3.6,31,9.5 c2.4,1.2,4.8,1.2,7.1,0c2.4-1.2,3.6-3.6,3.6-6l0.6-108.9c0-2.4-1.2-4.8-3.6-6c-10.7-6.5-20.8-16.7-31-26.2l-1.2-1.2 c-12.5-11.9-22.6-22-32.7-27.4c-6.5-4.2-12.5-13.7-12.5-21.4v-6l85.7,49.4l87.5,50.6l22,12.5l0.6,0.6l0,0c0,0.6,0.6,0.6,0.6,1.2v0.6 v12.5c0,0.6,0,1.2,0,1.8l0,0c0,0,0,0,0,0.6c0,0,0,0.6-0.6,0.6l0,0l-0.6,0.6c-0.6,0-1.8,0-3.6-1.2c-10.1-6-21.4-8.3-33.9-10.1H225 c-10.7-1.8-20.2-3.6-30.4-9.5c-2.4-1.2-4.8-1.2-7.1,0c-2.4,1.2-3.6,3.6-3.6,6l-0.6,108.9l0,0l0,0l0,0c0,0.6,0,0.6,0,1.2s0,0.6,0,1.2 s0,0.6,0.6,1.2c0,0,0,0.6,0.6,0.6c0.6,1.2,1.2,1.8,2.4,2.4c2.4,1.2,4.8,3,7.1,4.8c0.6,0,0.6,0.6,1.2,0.6c0.6,0.6,1.2,1.2,1.8,1.8 c1.8,1.2,3.6,3,5.4,4.2l1.2,1.2c0.6,0.6,1.2,1.2,1.8,1.8c1.2,1.2,2.4,2.4,4.2,3.6l2.4,2.4c1.8,1.8,3.6,3.6,5.4,5.4 c0.6,0.6,1.2,0.6,1.2,1.2l0.6,0.6c4.8,4.8,9.5,9.5,14.3,13.7l0.6,0.6c0,0,0,0,0.6,0.6c1.2,1.2,2.4,1.8,3.6,3l0.6,0.6l0.6,0.6 c0.6,0.6,1.2,0.6,1.8,1.2l0.6,0.6l1.2,0.6c0.6,0.6,1.2,1.2,1.8,1.8l0,0l0.6,0.6c0.6,0.6,1.8,1.2,2.4,1.8c0,0,0,0,0.6,0l0,0l1.8,1.2 c0.6,0.6,1.2,0.6,2.4,1.2l0,0c0.6,0,0.6,0.6,1.2,0.6c0.6,0.6,0.6,0.6,1.2,1.2c0.6,0.6,1.8,1.2,2.4,2.4c0.6,0.6,1.2,1.8,2.4,2.4l0,0 c0.6,1.2,1.2,1.8,1.8,3s1.2,1.8,1.8,3l0,0c0.6,1.2,0.6,1.8,1.2,3c0,1.2,0.6,1.8,0.6,3s0,1.8,0,3L263.1,659.4z M449.4,441l4.8,4.2 c1.2,1.2,2.4,2.4,3.6,3.6l4.2,3.6c2.4,2.4,4.8,4.2,6.5,6.5l6.5,6l0.6,0.6l0.6,0.6c2.4,2.4,4.8,4.8,7.1,6.5l7.7,6.5 c0.6,0.6,1.8,1.2,2.4,1.8l1.2,0.6c1.2,0.6,2.4,1.8,3.6,3c1.2,0.6,2.4,1.8,4.2,2.4l1.2,0.6l1.8,1.2l2.4,1.8l0.6,0.6l1.8,1.8l0,0 l0.6,1.2c0.6,0.6,0.6,1.2,1.2,1.8c0,0,3,6.5,3.6,11.9c0,2.4,0,10.7,0,10.7L277.4,656.5v-2.4c0-1.8,0-3-0.6-4.8l0,0 c0-1.8-0.6-3-1.2-4.2c-2.4-8.3-7.7-16.7-14.3-22c-1.2-0.6-2.4-1.8-3.6-2.4l0,0c-1.8-1.2-4.2-2.4-6.5-4.2l-0.6-0.6l0,0 c-0.6-0.6-1.2-1.2-1.8-1.2l-3-2.4l-0.6-0.6l-2.4-2.4l0,0c-0.6-0.6-0.6-0.6-1.2-1.2l0,0c-2.4-1.8-4.8-4.2-7.1-6.5l-7.1-7.1l0,0l0,0 c-1.2-1.2-2.4-2.4-3.6-3.6c-1.2-1.2-1.8-1.8-3-3l0,0c-3-3-6-5.4-8.9-8.3l-1.2-1.2l0,0l-0.6-0.6l0,0c-0.6-0.6-0.6-0.6-1.2-1.2 c-1.8-1.8-4.2-3.6-6-4.8l-0.6-0.6l0,0l237.5-138.1c0,0,0.6,0,0.6,0.6c0.6,0.6,1.8,1.2,2.4,1.8l1.8,1.2l0.6,0.6l0.6,0.6 C447.1,439.2,448.2,439.8,449.4,441z M278,467.8v-7.1c0-1.2,0-2.4-0.6-3.6l237.5-135.7v6v0.6v1.2v0.6c0,0,0,0.6-0.6,0.6 c0,0,0,0.6-0.6,0.6L278,467.8z"/>
</svg>