<svg xmlns="http://www.w3.org/2000/svg" viewBox="56 0.4 479.5 463.5" id="products-ironwares-icon-svg">
    <style>
        #products-ironwares-icon-svg       > * {fill: #FFF;stroke-width: 10;stroke: #4C5255}
        #products-ironwares-icon-svg:hover > * {stroke: #CC0000}
    </style>
	<path d="M529,222.7c-6.4-17.3-15.8-33-25.7-48.4 c-10.1-15.8-21.3-30.9-33-45.7c-15.3-19.3-31.6-37.7-49.1-55c-18.7-18.5-38.5-35.9-60.2-50.8c-10.5-7.2-21.2-14.2-33.7-17.8 c-4.7-1.4-9.5-2-13.4,1.5c-9.3,8.2-18.4,16.7-27.6,25.1C275,41.8,263.8,51.9,252.5,62c-4.5,4-5.6,8.9-2.3,14.2 c6.6,10.9,13.4,21.7,20.1,32.5c4,6.4,8.2,12.6,12.1,18.9c3.3,5.4,6.2,11,9.8,16.1c1.8,2.6,1.3,4.1-0.8,5.9 c-4.6,3.9-9.2,7.9-13.7,12c-17.5,15.7-34.9,31.5-52.4,47.2c-1.5,1.4-2.9,2.2-5.2,0.5c-3.6-2.6-8.4-1.8-11.8,1.4 c-2.6,2.5-3.8,7.8-1.6,10.9c1.6,2.4,0.4,3.5-1,4.8c-4.7,4.2-9.5,8.2-14.1,12.5c-1.3,1.2-2.2,1.4-3.7,0.4c-4.4-2.7-8.6-2.5-11.7,0.4 c-3.3,3.1-4.7,7.1-2,12.1c0.7,1.3,0.7,2.2-0.7,3.3c-4.6,3.8-9,7.7-13.2,12c-2.1,2.2-3.2,1.6-4.4-0.6c-1.9-3.5-5.2-4.7-8.8-4.4 c-3.9,0.3-6.7,2.6-8.2,6.5c-1.8,4.6,0.7,8.1,2.7,11.7c0.9,1.7,1,2.6-0.5,3.9c-4.6,4.1-9.2,8.2-13.7,12.4c-1.9,1.8-3.1,1.9-4.4-0.6 c-2-3.8-5.5-4.8-9.4-4.3c-3.9,0.6-6.3,3-7.6,6.7c-1.5,4.3,0.8,7.7,2.7,11.1c0.8,1.6,1.4,2.7-0.2,4.1c-9.5,8.4-19,16.7-28.4,25.2 c-6.6,5.9-13.3,11.8-17.1,20.1c-6.2,13.6-3.4,26.7,2.8,39.4c4.8,9.7,10.9,18.6,17.3,27.4c10.3,14.1,22.7,25.6,39.5,31.4 c12.6,4.3,25,3.8,36.9-3c6.3-3.5,11.2-8.6,16.5-13.2c1.5-1.3,2.2-1.7,3.4,0.5c2.3,4.5,8.2,6.3,12.4,4c5.1-2.8,7-8.7,4.3-13.5 c-0.9-1.6-1.7-3.2-2.5-4.8c-0.4-0.8-0.7-1.5,0.3-2.3c5.1-4.5,10.2-9.1,15.3-13.7c1.2-1,2.1-1.3,3,0.6c2.1,4.2,7,6.2,11.3,4.9 c4.1-1.3,6.7-5.6,6.6-10.2c0-3-1.9-5.1-3.1-7.4c-1.2-2.4-0.3-3.7,1.3-5.2c3.8-3.4,7.6-6.7,11.3-10.1c3.4-3.1,3.3-3.1,5.6,0.9 c0.4,0.8,1.1,1.5,1.4,2.3c1.7,4.7,8.8,6.6,12.9,4.3c4.7-2.7,6.4-8.2,3.9-13.1c-1.5-2.9-2.9-5.9-4.5-8.7c-0.9-1.6-0.4-2.7,0.8-3.8 c3.8-3.4,7.5-6.8,11.2-10.1c4.7-4.2,4.7-4.2,8.1,1.2c0.2,0.4,0.5,0.8,0.7,1.2c2.3,4.1,7.2,5.9,11.5,4.2c4.4-1.7,6.9-6.2,5.9-10.8 c-0.7-3.2-2.4-6-4-8.9c-2.5-4.3-2.4-4.8,1.3-8c17.6-15.7,35.1-31.3,52.6-47c12.9-11.5,25.8-22.9,38.6-34.6c1.7-1.6,2.7-1.4,4.2-0.3 c5.2,4.1,10.3,8.2,15.5,12.2c14.8,11.6,29.5,23.2,44.4,34.7c5.7,4.4,14.4,4.4,19.1,0.3c5.4-4.7,10.6-9.7,15.9-14.4 c13.8-12.5,27.7-24.9,41.5-37.4c3.2-2.9,6.5-5.6,6.2-10.8C532.1,232.1,530.6,227.5,529,222.7z"/>
	<path d="M529,222.7c1.6,4.7,3.1,9.4,3.4,14.5 c0.3,5.2-3,7.9-6.2,10.8c-13.8,12.5-27.6,24.9-41.5,37.4c-5.3,4.8-10.5,9.7-15.9,14.4c-4.7,4.1-13.4,4.1-19.1-0.3 c-14.9-11.5-29.6-23.1-44.4-34.7c-5.2-4.1-10.3-8.2-15.5-12.2c-1.5-1.2-2.5-1.3-4.2,0.3c-12.7,11.6-25.7,23.1-38.6,34.6 c-17.5,15.7-35.1,31.3-52.6,47c-3.6,3.2-3.8,3.7-1.3,8c1.6,2.8,3.3,5.6,4,8.9c1,4.5-1.5,9.1-5.9,10.8c-4.3,1.7-9.2-0.1-11.5-4.2 c-0.2-0.4-0.5-0.8-0.7-1.2c-3.4-5.4-3.4-5.4-8.1-1.2c-3.7,3.4-7.5,6.8-11.2,10.1c-1.2,1.1-1.7,2.2-0.8,3.8c1.6,2.9,3,5.8,4.5,8.7 c2.5,4.9,0.8,10.4-3.9,13.1c-4.1,2.3-11.3,0.4-12.9-4.3c-0.3-0.8-1-1.5-1.4-2.3c-2.3-4.1-2.3-4-5.6-0.9c-3.7,3.4-7.5,6.7-11.3,10.1 c-1.6,1.4-2.5,2.7-1.3,5.2c1.2,2.3,3.1,4.4,3.1,7.4c0.1,4.6-2.5,8.9-6.6,10.2c-4.3,1.4-9.3-0.6-11.3-4.9c-0.9-1.9-1.8-1.7-3-0.6 c-5.1,4.5-10.1,9.2-15.3,13.7c-1,0.9-0.7,1.6-0.3,2.3c0.8,1.6,1.6,3.2,2.5,4.8c2.7,4.8,0.8,10.8-4.3,13.5c-4.2,2.3-10.2,0.6-12.4-4 c-1.1-2.3-1.9-1.8-3.4-0.5c-5.4,4.6-10.3,9.6-16.5,13.2c-11.9,6.7-24.3,7.3-36.9,3c-16.8-5.8-29.2-17.2-39.5-31.4 c-6.4-8.8-12.5-17.6-17.3-27.4c-6.2-12.7-9-25.8-2.8-39.4c3.8-8.3,10.5-14.2,17.1-20.1c9.4-8.4,18.9-16.8,28.4-25.2 c1.5-1.4,7.8,5.1,6.9,3.5c-1.9-3.4-11-14.4-9.5-18.7c1.3-3.8,3.8-6.2,7.6-6.7c3.9-0.6,10.8,11.4,12.8,15.2c1.3,2.5-0.9-8.6,1-10.4 c4.5-4.2,9.1-8.4,13.7-12.4c1.5-1.3,1.4-2.2,0.5-3.9c-1.9-3.6-4.4-7.1-2.7-11.7c1.5-3.9,4.3-6.2,8.2-6.5c3.6-0.3,6.9,0.9,8.8,4.4 c1.2,2.2,2.2,2.8,4.4,0.6c4.2-4.2,8.7-8.2,13.2-12c1.4-1.2,1.5-2,0.7-3.3c-2.7-5-1.3-9,2-12.1c3.2-2.9,7.3-3.2,11.7-0.4 c1.5,1,2.4,0.8,3.7-0.4c4.6-4.2,9.4-8.3,14.1-12.5c1.4-1.3,2.6-2.4,1-4.8c-2.1-3.2-1-8.4,1.6-10.9c3.4-3.2,8.1-4,11.8-1.4 c2.3,1.7,3.6,0.9,5.2-0.5c17.5-15.7,34.9-31.5,52.4-47.2c4.5-4,9.1-8,13.7-12c2.1-1.8,2.6-3.4,0.8-5.9c-3.6-5.2-6.5-10.8-9.8-16.1 c-3.9-6.4-8.1-12.6-12.1-18.9c-6.7-10.8-13.5-21.6-20.1-32.5c-3.2-5.3-2.1-10.2,2.3-14.2c11.3-10.1,22.5-20.2,33.7-30.3 c9.2-8.3,18.3-16.8,27.6-25.1c3.9-3.5,8.8-2.9,13.4-1.5c12.5,3.6,23.2,10.6,33.7,17.8c21.7,14.9,41.4,32.3,60.2,50.8 c17.5,17.3,33.8,35.7,49.1,55c11.7,14.7,22.8,29.8,33,45.7C513.1,189.8,522.6,205.5,529,222.7z M225.7,216.4 c0.4,0.8,0.8,1.6,1.2,2.4c5.8,10.9,11.7,21.7,17.4,32.6c5.6,10.6,11.3,21.1,16.8,31.8c6.1,12,12.8,23.6,19.2,35.4 c2.5,4.6,4.9,9.2,7.4,13.7c0.5,0.8,0.8,2.3,2.4,0.8c9.7-9,19.6-17.8,29.6-26.4c9.3-8.1,18.2-16.7,27.3-24.9 c11.8-10.6,23.7-21.2,35.6-31.7c1.2-1,1.3-1.9-0.2-2.9c-2.3-1.6-4.5-3.4-6.6-5.2c-7.4-6.7-13.6-14.6-20.3-21.9 c-13.8-15-27.3-30.3-40.8-45.6c-6.1-6.9-13-13.1-17.1-21.5c-0.9-1.8-2-1.7-3.4-0.4c-5.3,4.9-10.7,9.8-16.1,14.7 c-17.2,15.4-34.4,30.7-51.7,46.1C225.4,214.1,224.9,215.1,225.7,216.4z M443.1,174.6c-0.3-0.3-0.5-0.5-0.7-0.8 c-2.8-3.9-5.6-7.9-8.4-11.8c-9-12.2-18.4-24.1-28.7-35.2c-8.6-9.3-17.8-18-27.8-25.7c-1.2-1-2.1-1.2-3.4,0 c-7.4,6.7-14.9,13.2-22.3,19.9c-12.8,11.5-25.6,23.1-38.5,34.5c-5.3,4.7-5.4,4.6-0.6,10.1c0.7,0.8,1.5,1.7,2.2,2.5 c10,11.1,19.9,22.2,29.9,33.3c9.7,10.8,19.5,21.6,29.1,32.5c1.5,1.6,2.4,1.5,3.9,0.2c9.6-8.6,19.1-17.3,28.7-25.9 c7.3-6.5,14.7-12.8,21.8-19.5c4.5-4.2,9.3-8.1,13.6-12.4C442.3,175.9,443.4,175.7,443.1,174.6z M373,94.5 c-3.8-7.5-7.1-14-10.5-20.5c-6.1-11.6-12.7-22.8-20.2-33.6c-7.1-10.2-14.7-19.9-23.5-28.7c-1.2-1.2-1.7-1.4-3.1,0 c-3.4,3.4-7.2,6.4-10.8,9.6c-8.5,7.6-17,15.2-25.5,22.8c-8.2,7.3-16.3,14.6-24.4,22.1c-2.8,2.6-3.1,5-1.1,8.1 c1.8,2.8,3.3,5.7,5.2,8.3c8.3,11.9,14.7,25,22.9,37c7.4,10.9,13.8,22.5,20.7,33.7c2.5,4.1,2.6,4.1,6.1,0.6c0.1-0.1,0.1-0.2,0.2-0.3 c8.5-7.6,17-15.2,25.5-22.8c12.3-11,24.6-21.9,36.9-32.8C372.8,96.7,373.7,95.5,373,94.5z M463.8,297.8c0.5-0.3,1.7-0.7,2.6-1.5 c9.4-8.5,18.7-17,28.1-25.5c9.4-8.6,18.8-17.3,28.4-25.6c2.6-2.2,2.2-3.3,0.2-5.5c-7.8-8.7-16.1-17-24.8-24.8 c-15.3-13.6-32.1-25.4-49.7-35.8c-1.5-0.9-2.7-0.7-3.9,0.4c-4.3,3.9-8.6,7.9-12.9,11.8c-8.5,7.6-17.1,15.2-25.6,22.9 c-8.6,7.7-17.1,15.5-25.7,23.2c-1.4,1.2-1.7,1.7,0.1,3.1c23.3,18.1,46.4,36.4,69.7,54.5C454,297.7,458.1,299.8,463.8,297.8z M66.2,388.8c0.8,2.1,1.8,5.2,3.3,8.1c4.9,9.3,10.8,17.9,16.9,26.5c8.3,11.5,18.2,21,31,27.2c11.5,5.5,23.3,7,35.5,2.1 c8.7-3.5,14.9-10.4,21.8-16.3c0.8-0.7,0.9-1.5,0.3-2.7c-3.1-5.8-6.1-11.6-9.2-17.4c-6.6-12.2-13.2-24.4-19.8-36.7 c-5.6-10.4-11-20.8-16.5-31.1c-5.3-9.9-11-19.7-16.1-29.8c-1.5-3-2.6-2-4-0.7c-12.5,11.7-25.8,22.5-37.9,34.7 c-6.2,6.2-9.9,13.5-8.9,22.6C63.2,379.6,64.4,383.8,66.2,388.8z M528.3,239c0.1-2.9-0.1-5.2-0.7-7.5c-2.9-10.6-7.7-20.3-12.8-29.9 c-5.9-11-12.5-21.7-19.5-32.1c-10.1-15-20.9-29.5-32.5-43.5c-11.8-14.4-24.1-28.3-37.2-41.7c-21-21.4-43.3-41.2-67.9-58.4 c-9.4-6.6-19.2-12.8-30.1-16.7c-1.5-0.5-3.6-1.8-4.6-0.2c-1.1,1.7,1.4,2.2,2.3,3.2c10.7,11.6,19.8,24.3,28.2,37.7 c8,12.7,14.9,26.1,21.5,39.5c2.1,4.3,4.5,7.9,8.3,10.8c12.4,9.9,23.4,21.2,33.6,33.2c9.5,11.2,18.5,22.8,26.8,35 c1.5,2.2,2.8,4.5,5.3,6c12.5,7.1,24.6,15,35.9,23.9c11.8,9.1,23.1,18.9,33.2,29.9C521.4,231.8,524.7,235.2,528.3,239z M144.1,287 c-0.1,0.1-0.3,0.5-0.7,0.8c-4.4,4-8.5,8.3-13.3,11.9c-3.1,2.3-3.1,4.3-1.4,7.2c6.4,11.2,12.3,22.6,18.3,34 c6.6,12.6,13.5,25,20.2,37.6c7.3,13.6,14.5,27.3,21.7,41c1.1,2,2,2.7,4,0.8c4.5-4.3,9.1-8.6,13.9-12.6c1.7-1.4,1.5-2.3,0.6-3.9 c-3.5-6.4-6.9-13-10.3-19.4c-9.4-17.7-18.7-35.3-28.1-53c-7.7-14.5-15.6-29-23.4-43.5C145.4,287.3,145.4,286.4,144.1,287z M255.9,363.7c5.8-5.3,11.2-10.3,16.7-15.1c1.2-1,1.3-1.7,0.6-3c-2.7-4.8-5.4-9.7-8-14.5c-7.3-13.6-14.5-27.3-21.7-41 c-6.8-12.6-13.6-25.2-20.4-37.9c-3.9-7.3-7.8-14.5-11.7-21.8c-0.9-1.7-1.4-2.3-3.1-0.7c-4.6,4.4-9.4,8.6-14.2,12.7 c-1.6,1.4-1.8,2.5-0.8,4.3c3.6,6.6,7.1,13.3,10.7,20c3.4,6.3,6.8,12.5,10.2,18.8c4.7,8.8,9.3,17.5,14,26.3 c5.5,10.4,11.1,20.7,16.6,31.1C248.2,349.8,252,356.6,255.9,363.7z M160.8,275.2c8.8,16.5,17.4,32.7,26,48.8 c6.4,12.1,13,24.1,19.4,36.1c5.3,10,10.6,20,15.8,29.9c0.7,1.4,1.4,2.7,3.2,1.1c4.7-4.3,9.5-8.5,14.3-12.7c1.4-1.2,1.3-2.2,0.5-3.7 c-2.7-4.7-5.3-9.5-7.8-14.2c-5.4-10.2-10.7-20.4-16.2-30.5c-5.3-9.9-10.9-19.8-16.2-29.7c-7.2-13.4-14.4-26.9-21.4-40.4 c-1-2-1.9-1.8-3.2-0.6c-4.4,4-8.8,8-13.2,12C160.5,272.4,159.4,273.7,160.8,275.2z M143.5,275c1.4,4.4,4.6,8.7,7.1,13.4 c8,15.1,16.1,30.1,24.1,45.2c8.7,16.5,17.6,32.9,26.5,49.2c4.7,8.7,9.3,17.6,13.7,26.5c1.3,2.7,5.8,4.4,8,3.2 c2.9-1.6,3.7-4.8,2.1-8.2c-2-4.1-4.3-8-6.4-11.9c-8.7-16.3-17.3-32.8-26-49.1c-8.7-16.2-17.5-32.4-26.2-48.6 c-4.5-8.4-9-16.7-13.6-25c-1.8-3.2-4.5-4.1-7.2-2.8C143,268,142.1,271.1,143.5,275z M110.3,303.7c4.4,8.4,8.8,16.8,13.2,25.2 c8.7,16.3,17.6,32.6,26.3,48.9c5.4,10.1,10.6,20.2,16,30.2c5.5,10.3,11.2,20.6,16.8,31c1.5,2.8,4.5,4,7.3,2.7 c2.8-1.3,4-4.6,2.5-7.4c-1.6-3.1-3.3-6.2-4.9-9.3c-9.3-17.5-18.6-35.1-28-52.6c-8.7-16.3-17.6-32.6-26.3-48.9 c-4.5-8.2-8.9-16.5-13.5-24.7c-1.6-2.8-4.4-3.7-6.8-2.5C110.1,297.6,109.1,300.6,110.3,303.7z M291.8,348.8 c-4.6-8.6-9.8-18.1-14.8-27.7c-5.5-10.3-10.8-20.6-16.3-30.9c-5.3-9.9-10.9-19.8-16.2-29.7c-7.5-14-14.9-28.1-22.4-42.2 c-0.9-1.7-1.7-3.6-3-4.8c-1.8-1.7-4.2-2.1-6.5-0.5c-2.8,2-3,4.6-1.5,7.4c8.7,16.5,17.3,33,26.1,49.4c8.6,16.1,17.3,32.2,26,48.3 c6.7,12.4,13.4,24.8,20.1,37.3c1,1.8,2.3,2.7,4.2,2.9C292,358.9,294.3,354.9,291.8,348.8z M259.3,379.5c-0.7-2.6-2.4-4.8-3.6-7.2 c-7.4-13.9-14.7-27.8-22.1-41.6c-7.3-13.6-14.8-27.2-22.1-40.8c-8.1-15.1-16.2-30.3-24.3-45.4c-0.5-0.9-0.9-1.7-2-2.2 c-2.1-1-4.2-1.4-6,0.3c-2.1,1.9-2.7,4.3-1.3,7c6.7,12.7,13.3,25.4,20,38.1c8.6,16.1,17.3,32.2,26,48.3 c8.8,16.3,17.6,32.6,26.3,48.9c0.5,1,1,1.9,2.2,2.4c2.1,0.8,4,1.4,5.9-0.5C260.6,384.7,260.9,382.3,259.3,379.5z"/>
	<path d="M225.7,216.4c-0.8-1.3-0.2-2.3,0.8-3.2 c17.2-15.4,34.5-30.7,51.7-46.1c5.4-4.8,11.8-16,17.1-20.9c1.4-1.3,1.6,4.8,2.5,6.6c4.1,8.5,11,14.7,17.1,21.5 c13.5,15.3,27,30.6,40.8,45.6c6.7,7.3,12.9,15.2,20.3,21.9c2.1,1.9,4.3,3.6,6.6,5.2c1.5,1,1.3,1.9,0.2,2.9 c-11.9,10.6-23.8,21.1-35.6,31.7c-9.2,8.3-18,16.9-27.3,24.9c-10,8.7-19.9,17.4-29.6,26.4c-1.6,1.5-1.9,0-2.4-0.8 c-2.5-4.5-5-9.1-7.4-13.7c-6.4-11.8-13.1-23.5-19.2-35.4c-5.5-10.7-11.2-21.2-16.8-31.8c-5.8-10.9-11.6-21.7-17.4-32.6 C226.5,218,226.1,217.2,225.7,216.4z"/>
	<path d="M443.1,174.6c0.3,1,4.8-0.2,4.4,0.3 c-4.4,4.3-14.8,9.6-19.3,13.9c-7.1,6.7-14.5,13-21.8,19.5c-9.6,8.6-19.2,17.2-28.7,25.9c-1.7,15.5-2.5,3.9-3.9-0.2 c-9.6-10.9-19.4-21.7-29.1-32.5c-10-11.1-19.9-22.2-29.9-33.3c-0.7-0.8-1.5-1.7-2.2-2.5c-4.8-5.5-4.7-5.4,0.6-10.1 c12.9-11.5,25.6-23,38.5-34.5c7.4-6.7,14.9-13.2,22.3-19.9c1.3-1.2,2.2-1,3.4,0c10,7.7,19.2,16.4,27.8,25.7 c10.3,11.1,19.8,23,28.7,35.2c2.9,3.9,5.6,7.9,8.4,11.8C442.6,174.1,442.8,174.3,443.1,174.6z"/>
	<path d="M373,94.5c0.7,1,6.1,1.5,4.7,2.7 c-12.3,10.9-30.9,22.6-43.2,33.5c-8.5,7.6-17,15.2-25.5,22.8c-0.1,0.1-1.2,8.7-1.3,8.8c-3.5,3.4-2.5-5-5-9.2 c-6.9-11.2-13.3-22.8-20.7-33.7c-8.2-12-14.6-25.1-22.9-37c-1.9-2.7-3.4-5.6-5.2-8.3c-2-3.1-1.7-5.5,1.1-8.1 c8.1-7.4,16.2-14.7,24.4-22.1c8.5-7.6,17-15.2,25.5-22.8c3.6-3.2,5.6-9.2,9.1-12.6c1.4-1.3,5-1.5,6.3-0.3c8.8,8.8,15,21.8,22,32 c7.5,10.7,14.1,22,20.2,33.6C365.9,80.5,369.2,87,373,94.5z"/>
	<path d="M463.8,297.8c-5.7,2-9.8-0.1-13.5-3 c-23.3-18.1-41.8-27.6-65.1-45.7c-1.8-1.4-6.1-10.7-4.7-12c8.6-7.7,17.1-15.5,25.7-23.2c8.5-7.6,17.1-15.2,25.6-22.9 c4.3-3.9,8.6-7.8,12.9-11.8c1.2-1.1,2.4-1.3,3.9-0.4c17.6,10.5,34.3,22.2,49.7,35.8c8.8,7.8,17,16.1,24.8,24.8c2,2.2,9,1,6.4,3.2 c-9.6,8.4-25.6,19.4-35,27.9c-9.4,8.5-18.7,17.1-28.1,25.5C465.5,297.2,464.3,297.6,463.8,297.8z"/>
	<path d="M66.2,388.8c-1.8-5-3.1-9.2-3.5-13.5 c-0.9-9,2.8-16.4,8.9-22.6c12.1-12.2,25.4-22.9,37.9-34.7c1.4-1.3,2.5-2.3,4,0.7c5.1,10.1,10.7,19.9,16.1,29.8 c5.6,10.4,11,20.8,16.5,31.1c6.6,12.2,13.2,24.4,19.8,36.7c3.1,5.8,6,11.6,9.2,17.4c0.6,1.1,0.5,2-0.3,2.7 c-6.9,5.9-13.1,12.8-21.8,16.3c-12.2,4.9-24,3.4-35.5-2.1c-12.8-6.2-22.7-15.7-31-27.2c-6.1-8.5-12-17.2-16.9-26.5 C68,394,67.1,390.9,66.2,388.8z"/>
	<path d="M528.3,239c-3.6-3.8-6.9-7.2-10.2-10.8 c-10.1-11-21.4-20.8-33.2-29.9c-11.4-8.8-23.4-16.7-35.9-23.9c-2.5-1.4-3.8-3.8-5.3-6c-8.3-12.2-17.3-23.8-26.8-35 c-10.2-12.1-21.3-23.3-33.6-33.2c-3.7-3-6.1-6.5-8.3-10.8C368.4,76,361.5,62.7,353.5,50c-8.4-13.4-17.6-26.1-28.2-37.7 c-0.9-0.9-3.4-1.5-2.3-3.2c1.1-1.6,3.1-0.3,4.6,0.2c11,3.9,20.7,10.1,30.1,16.7c24.6,17.1,47,36.9,67.9,58.4 c13,13.3,25.3,27.3,37.2,41.7c11.5,14,22.3,28.5,32.5,43.5c7,10.4,13.6,21,19.5,32.1c5.1,9.6,9.9,19.4,12.8,29.9 C528.2,233.8,528.4,236.1,528.3,239z M474.3,164.4c-0.8-2.8-2.2-5-3.6-7.2c-4.1-6.5-8.8-12.6-13.6-18.7c-8.4-10.5-16.9-20.9-26-31 c-9.5-10.5-19.2-20.8-30.3-30.3c-2.7-2.3-5.5-4.7-9.1-6.2c-1.1-0.4-2.1-0.3-3.1,0.2c-1,0.6-1.3,1.4-1.1,2.4 c0.5,1.7,0.8,3.5,1.7,5.1c2.7,5.4,6.1,10.5,9.6,15.5c8.2,11.6,17.1,22.9,26.7,33.7c10.3,11.6,21.3,22.7,33.9,32.7 c3.1,2.5,6.2,5,10.3,6.5c1.1,0.4,2.2,1,3.4,0C474.4,166.3,474.7,165.2,474.3,164.4z"/>
	<path d="M144.1,287c1.3-0.6,1.3,0.3,1.6,0.8 c7.8,14.5,15.6,28.9,23.4,43.5c9.4,17.6,18.8,35.3,28.1,53c3.4,6.5,6.8,13,10.3,19.4c0.9,1.6,1.1,2.5-0.6,3.9 c-4.8,4-9.4,8.3-13.9,12.6c-2,1.9-3,1.2-4-0.8c-7.2-13.7-14.4-27.4-21.7-41c-6.7-12.5-13.6-25-20.2-37.6c-6-11.4-11.9-22.8-18.3-34 c-1.6-2.9-1.7-4.9,1.4-7.2c4.7-3.5,8.9-7.9,13.3-11.9C143.8,287.5,144,287.1,144.1,287z"/>
	<path d="M255.9,363.7c-3.9-7.1-7.6-14-11.3-20.8 c-5.6-10.3-11.1-20.7-16.6-31.1c-4.7-8.8-9.3-17.6-14-26.3c-3.4-6.3-6.8-12.5-10.2-18.8c-3.6-6.7-7-13.4-10.7-20 c-1-1.8-0.8-3,0.8-4.3c4.8-4.2,9.6-8.4,14.2-12.7c1.7-1.6,2.3-1,3.1,0.7c3.8,7.3,7.8,14.5,11.7,21.8c6.8,12.6,13.7,25.2,20.4,37.9 c7.3,13.6,14.5,27.3,21.7,41c2.6,4.9,5.3,9.7,8,14.5c0.7,1.3,0.6,2-0.6,3C267,353.4,261.6,358.5,255.9,363.7z"/>
	<path d="M160.8,275.2c-1.4-1.5-0.3-2.8,1.2-4.1 c4.4-4,8.8-8,13.2-12c1.3-1.2,2.2-1.4,3.2,0.6c7.1,13.5,14.2,27,21.4,40.4c5.3,9.9,10.9,19.8,16.2,29.7 c5.5,10.1,10.8,20.4,16.2,30.5c2.5,4.8,5.1,9.6,7.8,14.2c0.9,1.5,0.9,2.5-0.5,3.7c-4.8,4.2-9.6,8.4-14.3,12.7 c-1.8,1.7-2.5,0.3-3.2-1.1c-5.3-10-10.5-20-15.8-29.9c-6.4-12.1-13-24.1-19.4-36.1C178.2,307.8,169.6,291.7,160.8,275.2z"/>
	<path d="M143.5,275c-1.5-3.9-0.5-6.9,2-8.2 c2.7-1.3,10.9,0.1,12.7,3.4c4.6,8.3,3.6,16.1,8.1,24.4c8.7,16.2,17.5,32.4,26.2,48.6c8.7,16.3,17.2,32.8,26,49.1 c10.9,0.6,4.5,7.9,6.4,11.9c1.6,3.3,0.9,6.6-2.1,8.2c-2.2,1.2-12.3-1.4-13.6-4c-4.3-9-3.3-16.9-8.1-25.7 c-8.9-16.4-17.8-32.7-26.5-49.2c-7.9-15.1-16.1-30.1-24.1-45.2C148.2,283.7,140.8,288.1,143.5,275z"/>
	<path d="M110.3,303.7c-1.2-3.1-0.1-6.1,2.6-7.4 c2.4-1.1,5.2-0.3,6.8,2.5c4.6,8.2,9,16.4,13.5,24.7c8.8,16.3,17.6,32.6,26.3,48.9c9.4,17.5,18.7,35.1,28,52.6 c4.3-6.5,5.2-0.8,4.9,9.3c-0.1,3.2,0.3,6.1-2.5,7.4c-2.8,1.3-10.8-1.2-12.4-4.1c-5.6-10.3-6.1-19.3-11.7-29.6 c-5.4-10.1-10.6-20.2-16-30.2c-8.7-16.3-17.6-32.6-26.3-48.9C119,320.5,114.7,312.1,110.3,303.7z"/>
	<path d="M291.8,348.8c2.5,6.1,0.3,10.1-4.4,9.6 c-2-0.2-11.5-6.9-12.5-8.7c-6.7-12.5-5.1-19.1-11.8-31.5c-8.7-16.1-17.4-32.2-26-48.3c-8.8-16.4-19.5-27.2-28.2-43.7 c-1.5-2.9,0.8-11.2,3.6-13.2c2.3-1.6,9.9-2.2,11.8-0.5c1.3,1.2-3.1,4.1-2.2,5.8c7.5,14.1,14.9,28.1,22.4,42.2 c5.3,9.9,10.9,19.8,16.2,29.7c5.5,10.2,10.9,20.6,16.3,30.9C282,330.7,292.7,332.2,291.8,348.8z"/>
	<path d="M259.3,379.5c1.6,2.7,1.3,5.1-0.9,7.4 c-1.9,1.9-3.8,1.3-5.9,0.5c-1.2-0.4-1.7-1.4-2.2-2.4c-9.5-2.2-17.7-29.2-26.3-48.9c-8.7-16.1-17.4-32.2-26-48.3 c-6.7-12.7-14.8-19.9-21.5-32.6c-1.4-2.7,0.7-10.6,2.8-12.5c1.8-1.7,3.9-1.3,6-0.3c1.1,0.5,16.7-1.3,2,2.2 c8.1,15.1,16.1,30.3,24.3,45.4c7.3,13.6,14.8,27.2,22.1,40.8c7.4,13.8,14.7,27.7,22.1,41.6C256.9,374.7,258.6,376.9,259.3,379.5z"/>
</svg>