<svg xmlns="http://www.w3.org/2000/svg" viewBox="22 144.9 557 556" id="products-hardware-icon-svg">
    <style>
        #products-hardware-icon-svg       > * {fill: #FFF;stroke-width: 15;stroke: #4C5255}
        #products-hardware-icon-svg:hover > * {stroke: #CC0000}
    </style>
	<path d="M428.4,447.1c-5.4,1.8-10.1-4.8-7.1-9.5 c10.7-19.6,15.5-39.9,20.2-60.1c2.4-9.5,13.7-16.7,21.4-25c13.7-14.9,29.8-28.6,41.1-44.6c18.5-26.8,10.7-62.5-14.9-82.7 c-24.4-19.6-59.5-18.5-82.7,3.6c-20.8,19.6-42.3,39.9-61.9,61.3c-23.2,25-21.4,63.7,3,88.1c2.4,2.4,4.2,4.2,7.1,7.1 c2.4,2.4,3,6.5,0.6,8.9c-9.5,10.7-18.5,21.4-28,32.1c-2.4,2.4-6,3-8.3,1.2c-37.5-25-56.6-80.4-44.1-125 c6.5-23.2,18.5-42.9,35.7-59.5c23.2-22,43.5-47,69.1-66.1c73.2-53,176.8-8.7,188.1,80c5.4,41.1-6,77.2-35.7,105.8 c-22,21.4-44.1,44.1-66.7,64.9C455.7,437,443.2,443,428.4,447.1z"/>
	<path d="M314.7,572.8c-14.9,19.6-31.5,37.5-48.2,55.4 c-15.5,16.1-31,32.1-49.4,44.6c-40.5,28-97,25.6-135.7-3.6C39.1,637,22.4,587,36.7,537.6c7.1-25,22-44.6,40.5-61.9 c22-20.8,42.9-43.5,66.7-61.9c17.9-14.3,41.1-20.2,64.3-20.2c37.5,0,69.6,14.3,94.1,42.9c4.8,5.4,6,8.9,0,13.7 c-8.3,7.1-15.5,14.9-23.8,22c-7.7,6-14.3,7.7-22-1.8c-22.6-24.4-61.3-29.8-88.7-3.6c-22,21.4-44.6,42.9-64.9,66.1 c-22,25.6-16.7,63.7,8.9,86.3c23.8,22,62.5,20.8,85.7-1.8c17.3-16.7,35.1-32.7,52.4-48.8c2.4-2.4,6.5-4.8,9.5-5.4 c11.3-3,23.2-6,33.9-10.1c7.7-3,15.5-6.5,22.6-10.7c4.2-2.4,9.5,1.8,7.7,6.5C322.4,557.3,318.8,567.4,314.7,572.8z"/>
	<path d="M429.6,369.8c-3,22.6-7.7,48.8-25,67.9 c-28.6,31.5-58.3,63.1-90.5,90.5c-23.2,20.2-53.6,25-83.9,19.6c-26.2-4.8-54.8-41.7-53.6-68.5c0.6-11.9,13.1-17.9,26.2-17.9 c4.2,0,9.5,0.6,13.7,0.6c16.7,1.2,17.3,1.2,19,19c0.6,8.3,5.4,8.9,11.3,8.9c18.5,0,35.1-6.5,48.2-20.2c18.5-19,36.9-38.1,56-57.1 c13.1-13.1,19.6-29.2,20.2-47.6c0.6-8.9-3-13.7-11.9-12.5c-12.5,2.4-17.9-4.2-17.9-15.5c0-11.9,0.6-23.8,3-35.1 c0.6-4.2,8.3-8.9,13.1-8.9C395.6,291.8,429.6,325.7,429.6,369.8z"/>
	<path d="M219.4,369.2"/>
    <path d="M259.3,384.6c-10.1-4.2-20.8-7.7-31.5-11.9 c-1.8-0.6-1.8-2.4-0.6-3.6c7.1-7.1,13.7-14.9,20.8-22c1.2-1.2,3-0.6,3.6,1.2c3.6,11.3,7.1,22.6,10.7,33.9 C262.3,383.5,260.5,385.2,259.3,384.6z"/>
</svg>