<svg xmlns="http://www.w3.org/2000/svg" viewBox="48 122 406 298.7" id="products-electrodes-icon-svg">
    <style>
        #products-electrodes-icon-svg       > * {fill: #FFF;stroke-width: 9;stroke: #4C5255}
        #products-electrodes-icon-svg:hover > * {stroke: #CC0000}
    </style>
	<path d="M222,313c0-5.5-2-7.5-6.5-9.5 c-20-8-39.5-16.5-59-25c-10.5-4.5-21-8.5-32-13c10-7.5,21-12.5,31-19c29.5-17.5,59-35,88.5-52.5c24-14,47.5-28,71.5-42 c12-7,24-14,35.5-21c5.5-3.5,10,0.5,14.5,2.5c14,5.5,28,11,42,17c11.5,4.5,23.5,9,35,14c2,1,2.5,2.5,2.5,4.5c0,19.5,0,39,0,58.5 c0,1,0,2.5-1.5,3c-0.5,0-31.5,21.5-47,31.5c-32,22-64,43.5-96.5,65c-24.5,16.5-49.5,32.5-74.5,49C225,376.5,222,333.5,222,313z M238,349.9c5.5-2.5,10.5-6.5,15.5-9c3-1.5,4.5-4,5.5-7c3-8,6-15.5,9-23c3.4-10.2,5.5-19.7,12-31.5c0.5-1,1-2.5-0.5-3.5 c-1-0.5-2,0.5-2.5,1c-13,8-26.5,16-39.5,24C235.5,301.4,236,349.4,238,349.9z M286,321.5c0.5-0.5,1-1,1.5-1c5-3.5,10.5-7,15.5-10.5 c3.5-2,7.5-3.5,9-7.5c7-18.5,14-36.5,21.5-55c0.5-1,1-2,0-3C333,244,332,245,331,245c-7,5-14.5,9.5-22,13.5c-1,0.5-2,2-2.5,3 c-7,19-14,37.5-22,56C284,319,283.5,321,286,321.5z M391,207.5c-8.5,5.5-16,10.5-24,15c-2.5,1.5-4,4-5.5,6.5c-5,13-10.5,26-15,39.5 c-2,5-5,9.5-5,15.5c8.5-5.5,16.5-10.5,24.5-16c1.5-1,2.5-2.5,3-4c5.5-14,11.5-28,17-42.5C388,217.5,390.5,213.5,391,207.5z M398.5,244.5c1.5,0.5,2.5,0.5,4.5-0.5c9-6,18-12,27-18c2-1,3.5-2.5,3.5-4.5c0-12,0-24.5,0-36.5c0-2-1.5-3-2.5-2 c-4,3.5-10.5,4.5-12.5,10C412.5,210,405,227,398.5,244.5z"/>
	<path d="M184,295.5"/>
	<path d="M171,294.5"/>
	<path d="M167.5,375.5"/>
	<path d="M92,334c-5,2-8.5,5.5-13,8c-2,1.5-4.5,3-6.5-0.5c-2-3.5,1-4,3-5.5c3.5-2,7.5-4,11-6.5 c2-1.5,4.5-2.5,3.5-6.5c-0.5-1.5,0.5-2.5,2-3c17-11,34-23,51.5-33.5c4.5-2.5,10.5-1,12.5,4c2.5,5-1.5,7.5-5,9.5c-15,10-30,20-45,30 c-2,2.5-4.5,2-7.5,2C96.5,332.5,94,332,92,334z"/>
	<path d="M124.5,343.5c-5-1.5-8,2.5-11.5,5c-2.5,1.5-5,3-7,5c-2,1.5-3.5,2-5,0c-1.5-2-0.5-3.5,1.5-5c3-2,6-4.5,9-6 c3-2,6-3,5-8c-0.5-2,1.5-2.5,2.5-3.5c15.5-10.5,30.5-21.5,46-32c3.5-2.5,6.5-2.5,10.5-0.5c3,1.5,5.5,3,6,6.5c0.5,4-3,4.5-5,6 c-14,10-28,20-42,30C131,343,128.5,345,124.5,343.5z"/>
	<path d="M153,354c-5.5-3-9.5,3.5-14.5,6c-1,0.5-2,2-3,2.5c-2.5,2-5.5,4.5-8,1c-2.5-3.5,2-4.5,4-6 c2.5-2,5.5-3.5,8-5.5c1-1,3-1.5,3-3.5c-1-5.5,2.5-7,6-9.5c13-9.5,26.5-19,39.5-28.5c5-3.5,10.5-2.5,15.5,2.5c2.5,2.5,2.5,4.5-0.5,7 c-14.5,10.5-29.5,21.5-44,32.5C157.5,353.5,156.5,355,153,354z"/>
	<path d="M129.5,277c7,4.5,7,6.5,0.5,11c-15,10-30.5,20-45.5,30c-2.5,1.5-4.5,2-7,1.5c-4.5-1-8.5,1-11.5,3.5 c-3,2.5-7.5,3.5-10,7c-1,1.5-3.5,1.5-4.5,0c-1-1.5-1-3.5,1-4.5c4-3,8.5-6,12.5-8.5c1-0.5,3-1.5,3-2.5c-0.5-6,4-8,8-10 c14.5-8.5,28-19,43-27C122,275.5,126,275.5,129.5,277z"/>
	<path d="M162,407c-3.5-2-7,1.5-11,4.5c-3,2-5.5,4-8.5,6c-1.5,1-3.5,1.5-4.5,0c-1.5-2-0.5-3.5,1-5 c3.5-2.5,7-5,10.5-7.5c1-1,3-1.5,3-3.5c-0.5-8,5.5-9,11-11c6.5-2.5,11.5-8,17-11.5c7-5,14-10,21-15c3.5-2.5,8-1,11,3 c3,4,0,6.5-3,8.5c-14,10.5-27.5,20.5-41.5,31C167.5,407.5,166,408.5,162,407z"/>
	<path d="M203,351c-12,7.5-23,17-34.5,25c-1.5,1-3,2.5-4.5,3.5c-1.5,2.5-4,1-6.5,1c-2,0-4.5-0.5-6.5,1 c-4.5,3-9,6-13.5,9c-2.5,2-4,1-5.5-1c-1.5-2,0.5-3,2-4c3-2.5,6-4,9-6.5c2.5-2,4.5-3.5,4.5-7.5c0-4,4-6.5,6.5-6.5c6.5,0,9.5-5,14-8 c9-6.5,18-13,26.5-20c4.5-3.5,8.5-3,12.5,0.5c4,3.5,4,6-0.5,10.5C205.5,350,204,350,203,351z"/>
	<path d="M109,381.5c-2.5,0-3-0.5-4-1.5c-1-1.5-0.5-3,0.5-3.5c4-3,7.5-6.5,12-8.5c2-1,2.5,0.5,3,1.5s2,2,1,3 C117.5,376,112.5,379,109,381.5z"/>
	<path d="M100,387.5c0,0.5,0,1,0,1c-0.5,1-13.5,9-15,9c-1,0-2.5-0.5-2.5-2c-0.5-1.5,0-2,1-3C87,389,91,387,95,385 C97,383.5,98.5,386.5,100,387.5z"/>
	<path d="M123,395c1.5,0,2,1,3,2.5c0.5,1.5,0.5,2-1,3c-3.5,2.5-7,5-11,7.5c-1,0.5-2.5,0.5-4,0c-1-1-1-2-0.5-3 C110,403,121.5,395,123,395z"/>
	<path d="M94.5,360.5c-0.5,1-1,2-2,2.5c-3.5,2.5-7,5-10.5,7c-1.5,1-3.5,1-4.5-0.5c-1-2,0-3.5,1.5-4.5 c3-2,6.5-4,9.5-6C91.5,357.5,93,359,94.5,360.5z"/>
	<path d="M63,385c-2,0-2.5,0-2.5-1c-0.5-1.5-1-3,0.5-4.5c2-1.5,4.5-3.5,7-4.5c2-1,3.5,0,4.5,2c1.5,2.5-1,2.5-2,3 C67.5,382,65,384,63,385z"/>
	<path d="M59.5,357c-2,0-4,0-4-1.5c0-4.5,4-5,6.5-6.5c2-1,4-1.5,5.5,1c0.5,1,1.5,1.5,0,2.5 C64.5,354,62,356.5,59.5,357z"/>
	<path d="M-258.5,143.5"/>
	<path d="M206.5,348.5"/>
	<path d="M203,351"/>
</svg>