<svg xmlns="http://www.w3.org/2000/svg" viewBox="31.3 243.9 546 356.7" id="products-grid-icon-svg">
    <style>
        #products-grid-icon-svg       > * {fill: #4C5255}
        #products-grid-icon-svg:hover > * {fill: #CC0000}
    </style>
    <path d="M567.9 416.2h-64.3v-33.3h17.3c4.2 0 7.1-3.6 7.1-7.1 0-4.2-3.6-7.1-7.1-7.1h-17.3v-1.2c0-4.2-3.6-7.1-7.1-7.1 -3.6 0-7.1 3.6-7.1 7.1v0.6H456v-28.6c0-4.2-3.6-7.1-7.1-7.1 -3.6 0-7.1 3.6-7.1 7.1V368h-33.3v-33.3h20.2c4.2 0 7.1-3.6 7.1-7.1 0-3.6-3.6-7.1-7.1-7.1h-20.2v-8.9c0-4.2-3.6-7.1-7.1-7.1 -3.6 0-8.3 3.6-8.3 7.1v8.9h-33.3v-36.9c0-4.2-3.6-7.1-7.1-7.1 -4.2 0-7.1 3.6-7.1 7.1v36.9h-33.3V287h18.5c4.2 0 7.1-3.6 7.1-7.1 0-4.2-3.6-7.1-7.1-7.1h-18.5v-16.7c0-4.2-3.6-7.1-7.1-7.1 -4.2 0-7.1 3.6-7.1 7.1v16.1h-18.5c-4.2 0-7.1 3.6-7.1 7.1 0 4.2 3.6 7.1 7.1 7.1h18.5v33.3h-33.3v-36.9c0-4.2-3.6-7.1-7.1-7.1 -4.2 0-7.1 3.6-7.1 7.1v36.9h-33.3v-8.9c0-4.2-3.6-7.1-7.1-7.1 -3.6 0-7.1 3.6-7.1 7.1v8.9h-20.2c-4.2 0-7.1 3.6-7.1 7.1 0 3.6 3.6 7.1 7.1 7.1h20.2v33.3h-33.3v-28.6c0-4.2-3.6-7.1-7.1-7.1 -4.2 0-7.1 3.6-7.1 7.1v28.6h-33.3l0 0c0-4.2-3.6-7.1-7.1-7.1 -4.2 0-7.1 3.6-7.1 7.1v0.6H89.9c-4.2 0-7.1 3.6-7.1 7.1 0 4.2 3.6 7.1 7.1 7.1h17.3v33.3H73.8v-20.8c0-4.2-3.6-7.1-7.1-7.1 -4.2 0-7.1 3.6-7.1 7.1v20.8H41.1c-4.2 0-7.1 3.6-7.1 7.1 0 4.2 3.6 7.1 7.1 7.1h16.1v20.8c0 4.2 3.6 7.1 7.1 7.1 4.2 0 7.1-3.6 7.1-7.1v-20.8h33.3v33.3H87.5c-4.2 0-7.1 3.6-7.1 7.1 0 4.2 3.6 7.1 7.1 7.1h17.3v0.6c0 4.2 3.6 7.1 7.1 7.1 4.2 0 7.1-3.6 7.1-7.1v-0.6h33.3v28.6c0 4.2 3.6 7.1 7.1 7.1 4.2 0 7.1-3.6 7.1-7.1v-28.6H200v33.3h-20.2c-4.2 0-7.1 3.6-7.1 7.1 0 3.6 3.6 7.1 7.1 7.1H200v8.9c0 4.2 3.6 7.1 7.1 7.1 3.6 0 7.1-3.6 7.1-7.1v-8.9h33.3V562c0 4.2 3.6 7.1 7.1 7.1 4.2 0 7.1-3.6 7.1-7.1v-36.9h33.3v33.3h-18.5c-4.2 0-7.1 3.6-7.1 7.1s3.6 7.1 7.1 7.1h18.5v16.7c0 4.2 3.6 7.1 7.1 7.1 4.2 0 7.1-3.6 7.1-7.1v-16.7H328c4.2 0 7.1-3.6 7.1-7.1s-3.6-7.1-7.1-7.1h-18.5v-33.3h33.3V562c0 4.2 3.6 7.1 7.1 7.1 4.2 0 7.1-3.6 7.1-7.1v-36.9h35.7v8.9c0 4.2 3.6 7.1 7.1 7.1 3.6 0 7.1-3.6 7.1-7.1v-8.9h20.2c4.2 0 7.1-3.6 7.1-7.1 0-3.6-3.6-7.1-7.1-7.1h-20.2v-33.3h33.3v28.6c0 4.2 3.6 7.1 7.1 7.1 3.6 0 7.1-3.6 7.1-7.1v-28.6h33.3v0.6c0 4.2 3.6 7.1 7.1 7.1 3.6 0 7.1-3.6 7.1-7.1v-0.6h17.3c4.2 0 7.1-3.6 7.1-7.1 0-4.2-3.6-7.1-7.1-7.1h-17.3v-33.3h64.3c4.2 0 7.1-3.6 7.1-7.1C575 419.8 571.5 416.2 567.9 416.2zM488.7 382.8v33.3h-33.3v-33.3H488.7zM441.1 382.8v33.3h-33.3v-33.3H441.1zM297 416.2h-33.3v-33.3H297V416.2zM311.3 382.8h33.3v33.3h-33.3V382.8zM248.8 416.2h-33.3v-33.3h33.3V416.2zM248.8 431.1v33.3h-33.3v-33.3H248.8zM263.7 431.1H297v33.3h-33.3V431.1zM311.3 431.1h33.3v33.3h-33.3V431.1zM359.5 431.1h33.3v33.3h-33.3V431.1zM359.5 416.2v-33.3h33.3v33.3H359.5zM392.9 335.2v33.3h-33.3v-33.3H392.9zM344.7 335.2v33.3h-33.3v-33.3H344.7zM297 335.2v33.3h-33.3v-33.3H297zM215.5 335.2h33.3v33.3h-33.3V335.2zM201.2 382.8v33.3h-33.3v-33.3H201.2zM119.7 382.8H153v33.3h-33.3V382.8zM119.7 464.4v-33.3H153v33.3H119.7zM167.9 464.4v-33.3h33.3v33.3H167.9zM215.5 512v-33.3h33.3V512H215.5zM263.7 512v-33.3H297V512H263.7zM311.3 512v-33.3h33.3V512H311.3zM392.9 512h-33.3v-33.3h33.3V512zM407.8 464.4v-33.3h33.3v33.3H407.8zM488.7 464.4h-33.3v-33.3h33.3V464.4z"/>
</svg>