<svg xmlns="http://www.w3.org/2000/svg" viewBox="0 0 477.3 413.3" id="products-stainless-metal-icon-svg">
    <style>
        #products-stainless-metal-icon-svg       > * {fill: #4D5255}
        #products-stainless-metal-icon-svg:hover > * {fill: #CC0000}
    </style>
    <path d="M473 174.6c0-1.5-0.1-3-0.2-4.6l-0.4-4.6c-0.1-1.5-0.3-3.1-0.5-4.6 -0.2-1.6-0.4-3.1-0.7-5 -0.2-1.5-0.5-3-0.8-4.4 -0.3-1.6-0.6-3.2-1-4.9l-0.4-1.8c0 0-0.2-1-0.2-1l-0.5-2.1c-0.4-1.6-0.8-3.3-1.3-4.9l-1.1-3.8c0 0-0.3-1-0.3-1.1 -0.5-1.6-1-3.2-1.5-4.8 -0.5-1.6-1.1-3.2-1.6-4.7 0 0-0.3-0.8-0.3-0.8 0 0-0.3-0.7-0.3-0.8l-1.1-3c-0.6-1.5-1.2-3-1.8-4.5l-1.5-3.4c0 0-0.4-1-0.4-1 -0.7-1.5-1.3-3-2-4.5 -0.8-1.6-1.5-3.2-2.6-5.3l-0.4-0.8 -0.5-1 -1.7-3.2c-0.6-1.2-1.3-2.4-2-3.6l-2-3.6c0 0-0.5-1-0.6-1 -0.5-0.9-1.1-1.7-1.6-2.6l-1.6-2.5c-1-1.6-2-3.3-3.2-5.1 -0.1-0.1-0.4-0.6-0.5-0.7 -1.8-2.8-3.8-5.5-5.7-8.2 0-0.1-0.1-0.1-0.1-0.2 -1.3-1.8-2.7-3.6-4.1-5.4 -1.1-1.4-2.2-2.7-3.4-4.2 0-0.1-0.1-0.1-0.1-0.2 -1.2-1.4-2.4-2.8-3.6-4.2 -1.2-1.3-2.4-2.7-3.6-4l-0.6-0.6c0 0-0.8-0.9-0.9-0.9l-2.4-2.5c-1.3-1.3-2.6-2.6-3.9-3.9l-4.1-3.8c-1.4-1.2-2.8-2.4-4.2-3.6l-4.2-3.4c-1.4-1.1-2.7-2.1-4.1-3.1 -0.9-0.7-1.9-1.4-3.1-2.2l-0.9-0.7c-1.3-0.9-2.7-1.8-4-2.7 -1.3-0.8-2.7-1.7-4-2.4 0 0-0.9-0.5-0.9-0.5 -1-0.6-2-1.1-3-1.7 -1.3-0.7-2.6-1.4-3.9-2l-2-0.9c0 0-1.1-0.5-1.1-0.5 0 0-0.7-0.4-0.8-0.4 -1.3-0.6-2.6-1.1-3.9-1.6 -1.3-0.5-2.6-1-4.5-1.6 -0.1 0-1-0.3-1-0.3L358 8.5c-1.4-0.4-2.7-0.8-4-1.1L352 7l-1.2-0.3c-0.1 0-0.8-0.2-0.9-0.2 -1.5-0.3-2.9-0.5-4.4-0.7 -0.7-0.1-1.4-0.2-2.8-0.3l-0.8-0.1c-0.1 0-0.7-0.1-0.8-0.1 -1.5-0.1-3-0.2-4.7-0.2 -0.5 0-1 0-2.1 0.1L331 5.4c-2 0.2-4 0.5-5.4 0.8 -0.3 0-0.7 0.1-1 0.2 -0.3 0.1-0.6 0.2-0.9 0.3 -2 0.5-4 1-5.8 1.6 -0.2 0.1-0.6 0.2-0.8 0.3 -2.8 1.1-5.4 2.2-7.8 3.6L32.4 173.2c-0.4 0.2-0.6 0.6-0.9 0.8C13.5 185 2.8 207.4 2.7 237 2.6 295.8 44 367.7 95.2 397.2c15.2 8.8 29.9 13.2 43.8 13.2 9.4 0 17.9-2.1 25.2-6 0.7-0.2 1.4-0.4 2.1-0.8l276.9-160.9c1.9-1.1 3.9-2.5 6.1-4.2 0.5-0.4 0.9-0.8 1.7-1.5 1.4-1.2 2.7-2.4 4.1-4 0.5-0.5 0.9-1 1.4-1.5 1.4-1.7 2.7-3.4 4-5.3 0.1-0.2 0.7-0.9 0.8-1.1 1.4-2.2 2.7-4.5 3.9-7.2 0 0 0.3-0.8 0.3-0.8 0.7-1.5 1.4-3 2-4.7 0.2-0.6 0.4-1.2 0.6-1.8l0.8-2.5c0-0.1 0.3-0.9 0.3-1 0.5-1.6 0.9-3.3 1.3-5l1-4.8c0.3-1.5 0.5-3.1 0.7-4.6l0.3-2.6c0 0 0.1-0.9 0.1-0.9 0 0 0.1-1.1 0.1-1.1 0.1-1.5 0.2-3 0.3-4.5 0.1-1.5 0.1-3 0.1-4.9C473 177.5 473 176.1 473 174.6zM102.8 384c-46.9-27.1-85-93-84.9-147 0.1-24.2 8.1-41.8 21.8-50.2 0.2-0.1 0.4-0.1 0.5-0.2l0 0c1.7-1 3.5-1.8 5.5-2.6 1.4-0.5 2.9-0.9 4.5-1.3 0.4-0.1 0.7-0.2 0.9-0.3 1.8-0.4 3.7-0.6 5.6-0.7l3.2-0.1c1.2 0 2.5 0 4.5 0.2 2.1 0.2 4.3 0.5 7.2 1.1 2.3 0.5 4.6 1.2 7.5 2.1 2.5 0.9 5.1 1.9 8.2 3.3 2.7 1.3 5.4 2.7 8.2 4.2 2.8 1.6 5.6 3.4 8.9 5.7 2.6 1.8 5.1 3.7 7.6 5.8l0.9 0.7c2.4 2 20.6 20.1 23 23 2.4 2.9 4.7 5.8 7 8.9 0 0 0 0.1 0.1 0.1 2.1 2.8 4 5.7 6 8.6 0.9 1.4 1.8 2.9 2.7 4.4l1.7 2.7c0.6 1 1.3 2 1.9 3.1l1.3 2.2c1.5 2.6 8 15.5 9.7 19.3 1.4 3.3 2.7 6.6 4.2 10.5 1.2 3.4 2.4 6.8 3.6 10.8 1 3.3 4.2 17.4 4.8 20.8 0.5 3.3 1.7 17.2 1.6 20.4 0 3.1-1.1 15-1.6 17.4l-0.2 1c-0.5 2.3-1.1 4.5-1.7 6.6 0 0-0.4 1.2-0.4 1.2 -0.7 1.9-1.4 3.8-2.4 6.2 -0.9 2-1.9 3.8-3 5.5 -0.1 0.1-0.4 0.6-0.5 0.7 -0.9 1.4-1.9 2.6-2.9 3.8l-1.2 1.3c-0.9 0.9-1.8 1.8-3.2 3l-0.7 0.6c-1.3 1.1-2.7 2.1-4.2 2.9l0 0c-0.2 0.1-0.2 0.3-0.4 0.4 -5.5 3.1-11.9 4.8-19 4.8C128 395.2 115.5 391.4 102.8 384zM456.9 188.2c0 0-0.1 1-0.1 1.1l-0.2 1.7c-0.2 1.3-0.4 2.6-0.7 4.6 0 0.1-0.2 0.7-0.2 0.8l-0.2 0.9c0 0-0.3 1.5-0.3 1.5 -0.3 1.4-0.7 2.7-1.2 4.3 0 0.1-0.2 0.7-0.2 0.8l-1 3.1c-0.5 1.3-1 2.5-1.5 3.6l-0.3 0.8c-0.9 1.8-1.8 3.6-2.9 5.3 -0.1 0.1-0.4 0.6-0.5 0.7 -0.9 1.4-1.9 2.6-2.9 3.8l-1.1 1.3c-0.9 0.9-1.8 1.8-3.2 3.1l-0.7 0.6c-1.3 1.1-2.7 2.1-4.2 2.9L191.5 370.8c0-0.1 0.1-0.2 0.1-0.3l0.4-1.1c0.8-2.6 1.5-5.3 2.1-8.2l0.2-1.2c0.6-2.9 1-5.9 1.3-9 0 0 0.1-0.9 0.1-0.9 0.3-3.4 0.5-6.8 0.5-10.4 0-3.6-0.1-7.2-0.4-10.8l-0.1-1c-0.3-3.7-0.7-7.3-1.4-11.2 -0.6-3.7-1.3-7.3-2.2-11 0 0-0.2-1-0.2-1 -0.8-3.5-1.8-7.1-3-11.3 -1.1-3.7-2.4-7.4-4-11.7 -1.3-3.6-2.8-7.1-4.5-11.2 -1.6-3.6-3.3-7.2-5-10.7 0 0-0.5-0.9-0.5-0.9 -1.5-2.9-3-5.8-4.7-8.6l-1.3-2.4c-0.7-1.2-1.4-2.4-2.2-3.5l-1.6-2.6c-1-1.6-2-3.2-3-4.8 -2.1-3.1-4.2-6.2-6.4-9.2 0 0 0 0 0-0.1 -2.4-3.3-5-6.5-7.6-9.7 -2.5-3.1-5.2-6-7.8-8.9 0 0-0.6-0.6-0.6-0.6 -2.5-2.7-5.1-5.2-7.7-7.7 0 0-0.9-0.8-0.9-0.9 -2.6-2.4-5.2-4.7-7.9-6.9l-0.9-0.8c-2.8-2.3-5.6-4.4-9.1-6.8 -3.1-2.2-6.3-4.2-9.5-6 -3.2-1.8-6.3-3.5-10-5.2 -3.1-1.4-6.2-2.6-9.7-3.9 -2.9-1-5.8-1.8-8.6-2.4 0 0-0.8-0.2-0.9-0.2 -0.3-0.1-0.6-0.1-0.9-0.2L317.1 25.8c1.7-1 3.5-1.8 5.6-2.6 0.2-0.1 0.4-0.1 0.6-0.2 1.2-0.4 2.5-0.7 3.9-1l1-0.3c0.1 0 0.1 0 0.2 0 1.3-0.3 2.7-0.5 4.4-0.6 0.1 0 0.7 0 0.8 0l1.2-0.1c0.1 0 1.6-0.1 1.6-0.1 1.1 0 2.3 0 3.6 0.1 0 0 0.9 0.1 0.9 0.1 0.1 0 0.9 0.1 1 0.1l1.5 0.2c1.1 0.2 2.3 0.3 3.5 0.6l1 0.2c0 0 1.4 0.3 1.4 0.3l0.9 0.2c1.1 0.3 2.2 0.6 3.3 0.9l2.2 0.7 1 0.3c1.1 0.4 2.2 0.8 3.3 1.2 1.1 0.4 2.2 0.9 3.3 1.4l0.8 0.4c0 0 0.9 0.4 0.9 0.4l1.6 0.8c1.1 0.6 2.3 1.1 3.4 1.8 0.9 0.5 1.8 1 2.6 1.5l0.8 0.5c1.2 0.7 2.4 1.4 3.5 2.2 1.2 0.8 2.4 1.5 3.9 2.6 0 0 0.8 0.5 0.8 0.5l2.5 1.8c1.2 0.9 2.5 1.9 3.7 2.8l1.2 1 2.6 2.1c1.3 1.1 2.5 2.2 3.8 3.3l1.7 1.6 0.9 0.8c0 0 1.1 1 1.1 1.1 1.2 1.2 2.4 2.3 3.6 3.5l2.1 2.2c0 0 0.6 0.6 0.6 0.6l0.8 0.8c1.1 1.2 2.2 2.4 3.3 3.7 1.1 1.3 2.2 2.5 3.2 3.8 0.1 0.1 0.1 0.1 0.2 0.2 1.1 1.3 2.1 2.6 3.2 3.9 1.3 1.6 2.5 3.3 3.8 5 0 0 0 0.1 0.1 0.1 1.9 2.5 3.7 5.1 5.5 7.9 0 0.1 0.4 0.6 0.5 0.7 1 1.5 1.9 2.9 2.8 4.4l1.7 2.8c0.4 0.7 0.9 1.4 1.3 2l0.5 0.9 2 3.5c0.6 1 1.2 2.1 1.8 3.2l1.5 2.9c0 0 0.6 1.1 0.6 1.2l0.5 1c0.7 1.5 1.5 3 2.2 4.5 0.6 1.4 1.3 2.8 2 4.3 0 0 0.4 0.9 0.4 1l1.3 3c0.6 1.4 1.1 2.8 1.7 4.2l1.3 3.4 0.3 0.8c0.5 1.4 1 2.9 1.5 4.4 0.5 1.5 1 2.9 1.4 4.4l0.2 0.8c0 0 0.2 0.8 0.2 0.8l0.8 2.9c0.4 1.5 0.8 3 1.2 4.5l0.6 2.4c0 0 0.3 1.1 0.3 1.2l0.2 0.9c0.3 1.5 0.6 2.9 0.9 4.4 0.3 1.3 0.5 2.7 0.7 4.3 0.2 1.4 0.4 2.8 0.6 4.2 0.2 1.4 0.3 2.8 0.5 4.1l0.1 1.4c0 0 0.1 1.4 0.1 1.4l0.1 1.3c0.1 1.4 0.2 2.7 0.2 4 0 1.3 0.1 2.5 0.1 4 0 1.4 0 2.7-0.1 4 -0.1 1.3-0.1 2.6-0.3 4.2L456.9 188.2z"/>
    <path d="M170 317.8c-3-21.6-12.7-45.2-27.3-66.4 -14.6-21.2-32.7-37.8-50.7-46.5 -19.5-9.3-37.8-8.4-49.8 2.2 -11.9 10.5-16.7 29-13.5 52.1 3 21.6 12.7 45.1 27.3 66.4 14.7 21.3 32.7 37.8 50.7 46.4 9.1 4.4 17.8 6.6 25.8 6.6h0c9.3 0 17.6-3 24.1-8.7C168.4 359.2 173.2 340.8 170 317.8zM146.4 358.4c-3.7 3.3-8.4 4.9-14 4.9h0c-5.7 0-12.2-1.7-19.2-5.1 -15.7-7.5-31.6-22.2-44.7-41.3 -13.3-19.3-22.1-40.6-24.8-59.9 -2.4-17.6 0.7-31.6 8.5-38.6 3.7-3.3 8.4-4.9 14-4.9 5.7 0 12.2 1.7 19.1 5 15.7 7.6 31.6 22.3 44.8 41.4 13.3 19.3 22.1 40.5 24.8 59.8C157.4 337.4 154.2 351.5 146.4 358.4z"/>
</svg>