<svg xmlns="http://www.w3.org/2000/svg" viewBox="6.7 42.7 546.7 374.7" id="products-profnastil-icon-svg">
    <style>
        #products-profnastil-icon-svg       > * {fill: #4C5255}
        #products-profnastil-icon-svg:hover > * {fill: #CC0000}
    </style>
    <path d="M11.4 259.1L11.4 259.1v36.6c0 2 1.3 4 2.7 4.7l197.1 113.9 0 0 0 0h0.7 0.7c0.7 0 0.7 0 1.3 0 0.7 0 2 0 2.7-0.7l51.2-29.3c1.3-0.7 2-2 2.7-3.4l19.4-57.9 9.3-5.4 39.3 22.6c0.7 0 0.7 0.7 1.3 0.7l0 0 0 0c0.7 0 0.7 0 1.3 0 0 0 0 0 0.7 0h0.7c0.7 0 0.7 0 1.3-0.7 0 0 0 0 0.7 0l64.5-37.2c1.3-0.7 2-2 2.7-3.4l19.4-57.9 9.3-5.4 39.3 22.6c0.7 0 0.7 0.7 1.3 0.7l0 0 0 0c0.7 0 0.7 0 1.3 0 0 0 0 0 0.7 0 0.7 0 0.7 0 0.7 0 0.7 0 0.7 0 1.3-0.7 0 0 0 0 0.7 0l60-34.7c2-0.7 2.7-2.7 2.7-4.7v-36.6 -0.7 -0.7 -0.7 -0.4c0 0 0-0.7-0.7-0.7 0 0 0-0.7-0.7-0.7 0 0-0.7 0-0.7-0.7l-0.7-0.7L347.1 65.9c-2-0.7-4-1.3-5.4 0l-15.3 8.6L287 52c-2-1.3-4-1.3-5.4 0l-75.8 44c-0.7 0-0.7 0.7-1.3 0.7l0 0c-0.7 0.7-0.7 1.3-1.3 2l0 0 -18.7 55.9 -37.9-21.9c-2-1.3-4-1.3-5.4 0l-75.9 44c-0.7 0-0.7 0.7-1.3 0.7l0 0c-0.7 0.7-0.7 1.3-1.3 2l0 0 -19.4 57.9 -29.3 16.7c-0.7 0-0.7 0.7-1.3 0.7l0 0 -0.7 0.7 0 0c0 0.7-0.7 0.7-0.7 1.3v0.7C11.4 258.4 11.4 258.4 11.4 259.1L11.4 259.1zM71.4 189.2l186.5 108.5 -6 18.7 -10 30.6L54.7 238.5 71.4 189.2zM329.7 251.7L283 278.3 264.3 289l-185-107.8 64.5-37.2L329.7 251.7zM211.2 108.5L398.3 217 387 251.7l-4.7 14.7L195.2 157.9 211.2 108.5zM374.3 274.3L363 281l-10-19.4L374.3 274.3zM469.5 170.5l-46.6 26.6 -18 10.6L219.1 99.9l64.5-37.2L469.5 170.5zM529.4 184.5l-26.6 15.3 -17.3-32 0 0c0-0.7-0.7-1.3-1.3-1.3 0 0 0 0-0.7 0 0 0 0 0-0.7-0.7L336.3 80.6l6.7-4L529.4 184.5zM450.2 231.1l8.6-4.7 7.9 14.7L450.2 231.1zM309.7 312.3l8.6-4.7 7.9 14.7L309.7 312.3zM219.8 376.2l28-16c0.7 0 0.7-0.7 1.3-0.7l0 0 0 0c0 0 0 0 0-0.7 0-0.7 0.7-0.7 0.7-1.3l0 0 19.4-57.9 69.2-39.9 17.3 32c0.7 1.3 2 2 3.4 2.7 1.3 0.7 3.4 0 4-0.7l24.6-14 0.7-0.7c0 0 0.7 0 0.7-0.7 0.7-0.7 0.7-1.3 1.3-2l19.4-57.9 69.2-39.9 17.3 32 0 0 0 0c0 0.7 0.7 1.3 1.3 1.3 0 0 0 0 0.7 0 0.7 0.7 1.3 0.7 1.3 0.7l0 0 0 0c0.7 0 0.7 0 1.3 0 0 0 0 0 0.7 0 0 0 0 0 0.7 0s1.3 0 2-0.7l31.3-18V217l-51.9 30 -18-31.3c-0.7-1.3-2-2-3.4-2.7l0 0h-0.7c-0.7 0-0.7 0-1.3 0s-0.7 0-1.3 0h-0.7l0 0 0 0 -35.9 20.7c-1.3 0.7-2 2-2.7 3.4l-18.9 58.6L343 329l-17.3-32c-0.7-1.3-2-2-3.4-2.7l0 0h-0.7c-0.7 0-0.7 0-1.3 0s-0.7 0-1.3 0 -0.7 0-1.3 0l0 0 0 0 -35.9 21.3c-1.3 0.7-2 2-2.7 3.4l-19.4 57.9L219 400.1v-3.4L219.8 376.2zM28.1 259.1l20-11.3 185.7 107.8 -20 11.3L28.1 259.1zM22.7 268.4l185.8 107.8v16 7.3L22.7 292.3V268.4z"/>
</svg>