<svg xmlns="http://www.w3.org/2000/svg" viewBox="1.5 -3 217 25.9">
    <linearGradient id="SVGID_1" gradientUnits="userSpaceOnUse" x1="7" y1="8" x2="7" y2="20" gradientTransform="matrix(1 0 0 -1 0 24)">
        <stop  offset="0"             stop-color="#6C8896"/>
        <stop  offset="1.926647e-003" stop-color="#6D8997"/>
        <stop  offset="7.733236e-002" stop-color="#97ADB9"/>
        <stop  offset="0.1451"        stop-color="#B9CAD3"/>
        <stop  offset="0.2022"        stop-color="#D0DBE2"/>
        <stop  offset="0.2418"        stop-color="#D8E2E7"/>
        <stop  offset="0.3224"        stop-color="#C9D6DD"/>
        <stop  offset="0.4704"        stop-color="#A3B8C3"/>
        <stop  offset="0.6692"        stop-color="#6E8997"/>
        <stop  offset="0.9089"        stop-color="#2F4F5E"/>
        <stop  offset="1"             stop-color="#113442"/>
    </linearGradient>
    <path fill="url(#SVGID_1)" d="M6.5,4.2c-2.2,0-3.9,2.7-3.9,6.1c0,3.4,1.8,6.2,3.9,6.2h0.9c0.9,0,2.2-0.2,1.7-0.7 c-1.2-1-2-2.9-2-5.1c0-3.2,1.7-5.8,3.9-5.8L7,4.2H6.5z"/>
    <linearGradient id="SVGID_2" gradientUnits="userSpaceOnUse" x1="11" y1="13" x2="11" y2="8" gradientTransform="matrix(1 0 0 -1 0 24)">
        <stop  offset="0"      stop-color="#ED1C24"/>
        <stop  offset="0.3736" stop-color="#ED1C24"/>
        <stop  offset="0.4467" stop-color="#E51C23"/>
        <stop  offset="0.5449" stop-color="#D61A21"/>
        <stop  offset="0.6573" stop-color="#BE171D"/>
        <stop  offset="0.7804" stop-color="#9F0F13"/>
        <stop  offset="0.9106" stop-color="#7A0101"/>
        <stop  offset="1"      stop-color="#5E0000"/>
    </linearGradient>
    <path fill="url(#SVGID_2)" d="M6.5,16.4c2,0,3.8-2.1,3.7-5.3h4.9c0,3.2-2.2,5.3-4.4,5.3H6.5z"/>
    <linearGradient id="SVGID_3" gradientUnits="userSpaceOnUse" x1="14" y1="20" x2="14" y2="8" gradientTransform="matrix(1 0 0 -1 0 24)">
        <stop  offset="0"             stop-color="#B5191E"/>
        <stop  offset="2.278189e-002" stop-color="#C91B21"/>
        <stop  offset="4.952808e-002" stop-color="#DB1C23"/>
        <stop  offset="7.885586e-002" stop-color="#E71C24"/>
        <stop  offset="0.1154"        stop-color="#ED1C24"/>
        <stop  offset="0.1871"        stop-color="#F05139"/>
        <stop  offset="0.2455"        stop-color="#F2684B"/>
        <stop  offset="0.2802"        stop-color="#F37053"/>
        <stop  offset="0.3389"        stop-color="#F15F43"/>
        <stop  offset="0.4588"        stop-color="#EE2325"/>
        <stop  offset="0.467"         stop-color="#ED1C24"/>
        <stop  offset="0.5282"        stop-color="#E01B23"/>
        <stop  offset="0.6371"        stop-color="#C6181E"/>
        <stop  offset="0.7811"        stop-color="#9E0F13"/>
        <stop  offset="0.9528"        stop-color="#6C0000"/>
        <stop  offset="1"             stop-color="#5E0000"/>
    </linearGradient>
    <path fill="url(#SVGID_3)" d="M17.3,16.4l2.5-0.2c0.9,0,1.3-0.1,0.8-0.6c-1.3-1.1-2.4-3.2-3.3-5.4c-1.3-3.1-2.6-6.2-5.2-6.2H6.5 c2.4,0,3.7,2.9,4.9,6.2c1.2,3,2.7,6.2,4.9,6.2C16.3,16.4,17.3,16.4,17.3,16.4z"/>
    <linearGradient id="SVGID_4" gradientUnits="userSpaceOnUse" x1="25" y1="8" x2="25" y2="24" gradientTransform="matrix(1 0 0 -1 0 24)">
        <stop  offset="0"             stop-color="#6C8896"/>
        <stop  offset="8.691043e-004" stop-color="#6D8897"/>
        <stop  offset="4.922779e-002" stop-color="#8FA7B3"/>
        <stop  offset="9.784003e-002" stop-color="#AEC0CA"/>
        <stop  offset="0.1462"        stop-color="#C5D3DA"/>
        <stop  offset="0.1943"        stop-color="#D3DEE4"/>
        <stop  offset="0.2418"        stop-color="#D8E2E7"/>
        <stop  offset="0.3224"        stop-color="#C9D6DD"/>
        <stop  offset="0.4704"        stop-color="#A3B8C3"/>
        <stop  offset="0.6692"        stop-color="#6E8997"/>
        <stop  offset="0.9089"        stop-color="#2F4F5E"/>
        <stop  offset="1"             stop-color="#113442"/>
    </linearGradient>
    <path fill="url(#SVGID_4)" d="M21.8,16.4c2.8,0,4.7-5.1,6-8.2c1.9-4.4,3.7-8.2,6-8.2h-5.6c-2.3,0-4.1,3.9-6,8.2 c-1.3,3.1-3.2,8.2-6,8.2H21.8z"/>

    <path fill="#D71920" d="M49.1,16.6H45c0-0.5-0.4-2-1.2-4.4h-5.9c-0.8,2.4-1.2,3.9-1.2,4.4h-3.3c-0.3,0-0.5-0.3-0.4-0.5 c0.3-1,1.3-3.4,2.8-7.1c2-4.8,3-7.4,3-7.9h4.8c0,0.5,0.9,3,2.7,7.8C48.2,13.6,49.1,16.2,49.1,16.6z M43.2,9.9 C41.7,5.8,41,3.6,41,3.3h-0.2c0,0.3-0.8,2.5-2.3,6.6H43.2z"/>
    <path fill="#D71920" d="M62.5,12c0,3.2-2.8,4.7-8.3,4.7c-1,0-2.5,0-4.5-0.1c0.1-2.4,0.2-5.1,0.2-8.1c0-2.9-0.1-5.3-0.2-7.4h2.1 c0.4,0,1,0,2,0c0.9,0,1.6,0,2.2,0c3.8,0,5.7,1.1,5.7,3.4c0,1.8-1,2.9-2.9,3.5v0.2c1,0.2,1.9,0.5,2.7,1.1 C62.1,9.9,62.5,10.8,62.5,12z M58.1,5.4c0-1.4-1-2.1-2.9-2.1c-0.9,0-1.7,0.1-2.3,0.2C53,4.3,53,5.7,53,7.6c0.3,0,0.7,0,1,0 C56.8,7.6,58.1,6.9,58.1,5.4z M59.1,12.1c0-1.6-1.5-2.4-4.5-2.4c-0.6,0-1.1,0-1.5,0.1c0,1.7,0,3.2,0.1,4.6 c0.3,0.1,0.7,0.1,1.3,0.1c1.6,0,2.7-0.2,3.5-0.5C58.7,13.6,59.1,13,59.1,12.1z"/>
    <path fill="#3E484F" d="M83.6,16.6h-2.4c-0.2,0-0.4-0.2-0.4-0.4c0-1.9-0.1-8.2-0.1-8.6h-0.2c-0.2,0.6-2.3,6.5-3.1,9H75 c0,0-0.8-2.4-1.5-4.3S72.2,9,71.8,7.6h-0.2c0,0.5,0,2-0.1,4.3s-0.1,3.9-0.1,4.7h-2.9c0-0.2,0.8-11.3,0.8-11.3h4.5 c0,0.9,2.7,8.7,2.7,8.7h0.1c0.2-0.4,2.5-7.7,2.7-8.7h4.6l0.4,10.9C84.1,16.4,83.9,16.6,83.6,16.6z"/>
    <path fill="#3E484F" d="M97.3,9.8c0,0.4,0,0.9-0.1,1.6L89,11.5c0.1,0.9,0.5,1.6,1.2,2.2c0.7,0.6,1.6,0.9,2.8,0.9 c1.3,0,2.6-0.2,4.1-0.5l-0.3,2.3c-1.2,0.4-2.6,0.6-4.4,0.6c-2.2,0-3.9-0.6-5.1-1.7c-1.2-1.2-1.8-2.5-1.8-4.2s0.6-3.2,1.7-4.4 s2.7-1.9,4.6-1.9c1.8,0,3.1,0.5,4,1.4C96.8,7.1,97.3,8.3,97.3,9.8z M94.3,9.6c0-1.8-0.8-2.7-2.5-2.7c-1.6,0-2.5,0.9-2.8,2.8 L94.3,9.6z"/>
    <path fill="#3E484F" d="M109.3,5.3l-0.1,2.4c-1.2-0.1-2.5-0.2-3.7-0.2c0,1,0,6.5,0.1,8.7c0,0.2-0.2,0.4-0.4,0.4h-2.5 c-0.2,0-0.4-0.2-0.4-0.4c0.1-2.1,0.1-7.6,0.1-8.7c-1.2,0-2.5,0.1-3.9,0.2l0.1-2.4C98.6,5.3,109.3,5.3,109.3,5.3z"/>
    <path fill="#3E484F" d="M121.5,16.6l-3,0.1c-0.1-0.3-0.2-0.6-0.2-0.9h-0.2c-0.9,0.7-2.2,1.1-3.8,1.1c-1.1,0-1.9-0.3-2.7-0.8 c-0.7-0.6-1.1-1.3-1.1-2.2c0-1.2,0.5-2.2,1.6-3s3-1.2,5.8-1.2c0-0.1,0-0.3,0-0.4c0-0.9-0.2-1.4-0.7-1.7 c-0.4-0.3-1.3-0.4-2.4-0.4c-1.3,0-2.5,0.2-3.8,0.5l0.3-2.2c1.2-0.4,2.8-0.6,4.9-0.6c1.5,0,2.7,0.3,3.6,0.9 c0.8,0.6,1.3,1.7,1.3,3.2c0,0.3,0,0.9,0,1.8c0,0.9,0,1.5,0,1.8C121.1,14.2,121.2,15.6,121.5,16.6z M118.1,14.1 c0-1.1-0.1-2-0.1-2.8c-2.9,0-4.4,0.7-4.4,2.1c0,0.9,0.6,1.4,1.9,1.4C116.6,14.8,117.4,14.6,118.1,14.1z"/>
    <path fill="#3E484F" d="M122.6,16.6c0.3-0.7,0.9-2.4,2.3-5.7s2.3-5.2,2.5-5.7h3.3c0.1,0.5,0.8,2.4,2,5.8c1,2.6,1.6,4.2,1.8,5 c0.1,0.3-0.1,0.5-0.4,0.5H131c-0.1-0.4-0.5-1.6-1.3-4.1c-0.8-2.4-1.1-3.7-1.3-4.2h-0.2c-0.1,0.4-0.6,1.7-1.3,4 c-0.7,2.3-1.1,3.7-1.2,4.4H122.6z"/>
    <path fill="#3E484F" d="M135.7,16.6c0.3-0.7,0.9-2.4,2.3-5.7c1.4-3.3,2.3-5.2,2.5-5.7h3.3c0.1,0.5,0.8,2.4,2,5.8 c1,2.6,1.6,4.2,1.8,5c0.1,0.3-0.1,0.5-0.4,0.5h-3.1c-0.1-0.4-0.5-1.6-1.3-4.1c-0.8-2.4-1.1-3.7-1.3-4.2h-0.2 c-0.1,0.4-0.6,1.7-1.3,4s-1.1,3.7-1.2,4.4H135.7z"/>
    <path fill="#3E484F" d="M163.5,5.3l-0.1,2.5c-0.6-0.1-2.5-0.1-5.7-0.2c0,1.4,0.1,6.5,0.2,8.6c0,0.2-0.2,0.4-0.4,0.4H155 c-0.2,0-0.4-0.2-0.4-0.4c0.1-2.3,0.1-9.3,0-10.9L163.5,5.3z"/>
    <path fill="#3E484F" d="M203.6,5.3h-11.4c0.1,1.5,0.1,8.6,0,10.9c0,0.2,0.2,0.4,0.4,0.4h2.5c0.2,0,0.4-0.2,0.4-0.4 c-0.1-2-0.2-7.1-0.2-8.6c2.5,0.1,4.2,0.1,5.1,0.2c0.1,2.8,0,6.8-0.1,8.4c0,0.2,0.2,0.4,0.4,0.4h2.3c0.2,0,0.4-0.2,0.4-0.4 C203.5,14.5,203.7,9.2,203.6,5.3z"/>
    <path fill="#3E484F" d="M218,5.3h-11.4c0.1,1.5,0.1,8.6,0,10.9c0,0.2,0.2,0.4,0.4,0.4h2.5c0.2,0,0.4-0.2,0.4-0.4 c-0.1-2-0.2-7.1-0.2-8.6c2.5,0.1,4.2,0.1,5.1,0.2c0.1,2.8,0,6.8-0.1,8.4c0,0.2,0.2,0.4,0.4,0.4h2.3c0.2,0,0.4-0.2,0.4-0.4 C217.9,14.5,218.1,9.2,218,5.3z"/>
    <path fill="#3E484F" d="M178.2,10.5c0,1.7-0.5,3.2-1.6,4.5s-2.5,2-4.3,2c-1.4,0-2.3-0.3-2.8-0.8l-0.2-0.1l0.1,6h-3.5 c0,0,0-5,0-7.9c0-3.9-0.1-6.9-0.5-8.7l3.3-0.3l0.2,1.1l0.3-0.2c0.9-0.8,2.1-1.1,3.6-1.1c1.6,0,2.9,0.5,3.9,1.6 S178.2,9,178.2,10.5z M174.8,10.8c0-1.5-0.6-2.7-1.8-3.6c-1.7-0.3-2.9,0-3.7,0.7c-0.1,0.1-0.1,0.2-0.1,0.3 c0.1,1.9,0.1,4.2,0.2,6c0.5,0.4,1.2,0.6,2.1,0.6c1.1,0,2-0.4,2.5-1.2S174.8,11.9,174.8,10.8z"/>
    <path fill="#3E484F" d="M190.3,5.3c0,0-3.7,10-4.2,11.4c-0.7,1.9-1.5,3.3-2.4,4.1c-0.9,0.7-2.3,1.1-4.1,1.1l-0.3-2.3 c1.1,0,1.9-0.3,2.6-0.8c0.7-0.6,1-1.3,1-2.2c0-0.9-0.6-3-2.2-6.2c-1.5-3.2-2.3-4.9-2.3-5h3.3l2.9,8.5c0,0,2.2-7.9,2.2-8.5 C187,5.3,190.3,5.3,190.3,5.3z"/>
</svg>
