<svg xmlns="http://www.w3.org/2000/svg" viewBox="0 0 125 74">
    <linearGradient id="SVGID_1" gradientUnits="userSpaceOnUse" x1="38" y1="50" x2="38" y2="13">
        <stop offset="0"             stop-color="#6C8896"/>
        <stop offset="1.926647e-003" stop-color="#6D8997"/>
        <stop offset="7.733236e-002" stop-color="#97ADB9"/>
        <stop offset="0.1451"        stop-color="#B9CAD3"/>
        <stop offset="0.2022"        stop-color="#D0DBE2"/>
        <stop offset="0.2418"        stop-color="#D8E2E7"/>
        <stop offset="0.3224"        stop-color="#C9D6DD"/>
        <stop offset="0.4704"        stop-color="#A3B8C3"/>
        <stop offset="0.6692"        stop-color="#6E8997"/>
        <stop offset="0.9089"        stop-color="#2F4F5E"/>
        <stop offset="1"             stop-color="#113442"/>
    </linearGradient>
    <path fill="url(#SVGID_1)" d="M36.8,13.2c-6.7,0-12.1,8.3-12.1,18.6c0,10.3,5.4,18.6,12.1,18.6l2.6-0.1c2.8,0,6.9-0.7,5.2-2.1 c-3.7-3-6.1-8.8-6.1-15.4c0-9.7,5.3-17.6,11.9-17.6l-12-1.9L36.8,13.2z"/>
    <linearGradient id="SVGID_2" gradientUnits="userSpaceOnUse" x1="50" y1="34" x2="50" y2="50">
        <stop offset="0"      stop-color="#ED1C24"/>
        <stop offset="0.3736" stop-color="#ED1C24"/>
        <stop offset="0.4467" stop-color="#E51C23"/>
        <stop offset="0.5449" stop-color="#D61A21"/>
        <stop offset="0.6573" stop-color="#BE171D"/>
        <stop offset="0.7804" stop-color="#9F0F13"/>
        <stop offset="0.9106" stop-color="#7A0101"/>
        <stop offset="1"      stop-color="#5E0000"/>
    </linearGradient>
    <path fill="url(#SVGID_2)" d="M36.8,50.4c6.1,0,11.8-6.6,11.4-16h15.1c0,9.8-6.9,16-13.4,16H36.8z"/>
    <linearGradient id="SVGID_3" gradientUnits="userSpaceOnUse" x1="59" y1="13" x2="59" y2="50">
        <stop offset="0"             stop-color="#B5191E"/>
        <stop offset="2.278189e-002" stop-color="#C91B21"/>
        <stop offset="4.952808e-002" stop-color="#DB1C23"/>
        <stop offset="7.885586e-002" stop-color="#E71C24"/>
        <stop offset="0.1154"        stop-color="#ED1C24"/>
        <stop offset="0.1871"        stop-color="#F05139"/>
        <stop offset="0.2455"        stop-color="#F2684B"/>
        <stop offset="0.2802"        stop-color="#F37053"/>
        <stop offset="0.3389"        stop-color="#F15F43"/>
        <stop offset="0.4588"        stop-color="#EE2325"/>
        <stop offset="0.467"         stop-color="#ED1C24"/>
        <stop offset="0.5282"        stop-color="#E01B23"/>
        <stop offset="0.6371"        stop-color="#C6181E"/>
        <stop offset="0.7811"        stop-color="#9E0F13"/>
        <stop offset="0.9528"        stop-color="#6C0000"/>
        <stop offset="1"             stop-color="#5E0000"/>
    </linearGradient>
    <path fill="url(#SVGID_3)" d="M70.1,50.4l7.7-0.6c2.9,0,4.1-0.3,2.3-1.7c-4.1-3.3-7.3-9.9-10-16.3c-4-9.6-8-18.6-16-18.6H36.8 c7.5,0,11.3,9,15.1,18.6c3.7,9.2,8.4,18.6,15,18.6H70.1z"/>
    <linearGradient id="SVGID_4" gradientUnits="userSpaceOnUse" x1="94" y1="50" x2="94" y2="0.4183">
        <stop offset="0"             stop-color="#6C8896"/>
        <stop offset="8.691043e-004" stop-color="#6D8897"/>
        <stop offset="4.922779e-002" stop-color="#8FA7B3"/>
        <stop offset="9.784003e-002" stop-color="#AEC0CA"/>
        <stop offset="0.1462"        stop-color="#C5D3DA"/>
        <stop offset="0.1943"        stop-color="#D3DEE4"/>
        <stop offset="0.2418"        stop-color="#D8E2E7"/>
        <stop offset="0.3224"        stop-color="#C9D6DD"/>
        <stop offset="0.4704"        stop-color="#A3B8C3"/>
        <stop offset="0.6692"        stop-color="#6E8997"/>
        <stop offset="0.9089"        stop-color="#2F4F5E"/>
        <stop offset="1"             stop-color="#113442"/>
    </linearGradient>
    <path fill="url(#SVGID_4)" d="M83.6,50.4c8.6,0,14.4-15.5,18.5-25c5.8-13.2,11.3-25,18.5-25h-17.2c-7.2,0-12.6,11.7-18.3,25 c-4.1,9.5-9.9,25-18.3,25H83.6z"/>

    <path fill="#D71920" d="M11.3,70.1H8.6c0-0.4-0.3-1.4-0.8-3.1h-4C3.3,68.6,3,69.7,3,70.1H0.4c0-0.2,0.7-2,2-5.3 c1.3-3.3,2-5.2,2-5.5h3.2c0,0.3,0.6,2.1,1.8,5.4C10.7,68,11.3,69.8,11.3,70.1z M7.3,65.4c-1-2.9-1.5-4.4-1.5-4.6H5.7 c0,0.2-0.5,1.8-1.5,4.6H7.3z"/>
    <path fill="#D71920" d="M20.3,66.8c0,2.2-1.9,3.3-5.6,3.3c-0.6,0-1.7,0-3-0.1c0.1-1.7,0.1-3.6,0.1-5.7c0-2,0-3.7-0.1-5.2h1.4 c0.3,0,0.7,0,1.3,0c0.6,0,1.1,0,1.5,0c2.5,0,3.8,0.8,3.8,2.4c0,1.2-0.6,2-1.9,2.4v0.1c0.7,0.1,1.3,0.4,1.8,0.8 C20.1,65.4,20.3,66,20.3,66.8z M17.4,62.3c0-1-0.6-1.5-1.9-1.5c-0.6,0-1.1,0-1.6,0.1c0.1,0.6,0.1,1.5,0.1,2.9c0.2,0,0.4,0,0.7,0 C16.5,63.8,17.4,63.3,17.4,62.3z M18,66.9c0-1.1-1-1.7-3-1.7c-0.4,0-0.7,0-1,0c0,1.2,0,2.2,0.1,3.2c0.2,0,0.5,0.1,0.9,0.1 c1.1,0,1.8-0.1,2.3-0.4C17.8,67.9,18,67.5,18,66.9z"/>
    <path fill="#3E484F" d="M34.8,70.1h-2.2c0-0.9,0-5.9,0-6.3h-0.2c-0.1,0.4-1.6,4.6-2.1,6.3h-1.6c0,0-0.6-1.7-1-3 c-0.5-1.3-0.9-2.3-1.1-3.3h-0.1c0,0.4,0,1.4-0.1,3c-0.1,1.6-0.1,2.7-0.1,3.3h-2c0-0.2,0.5-7.9,0.5-7.9h3c0,0.6,1.8,6.1,1.8,6.1 h0.1c0.1-0.3,1.7-5.4,1.8-6.1h3.1L34.8,70.1z"/>
    <path fill="#3E484F" d="M43.6,65.3c0,0.3,0,0.7-0.1,1.1L38,66.5c0.1,0.6,0.4,1.1,0.8,1.6c0.5,0.4,1.1,0.6,1.9,0.6 c0.9,0,1.8-0.1,2.7-0.4l-0.2,1.6c-0.8,0.3-1.8,0.4-2.9,0.4c-1.5,0-2.6-0.4-3.4-1.2c-0.8-0.8-1.2-1.8-1.2-2.9 c0-1.2,0.4-2.2,1.1-3.1c0.7-0.9,1.8-1.3,3.1-1.3c1.2,0,2.1,0.3,2.7,1C43.3,63.4,43.6,64.3,43.6,65.3z M41.6,65.2 c0-1.3-0.6-1.9-1.7-1.9c-1.1,0-1.7,0.7-1.9,2L41.6,65.2z"/>
    <path fill="#3E484F" d="M51.6,62.2l-0.1,1.7c-0.8-0.1-1.7-0.1-2.5-0.1c0,0.8,0,5.2,0.1,6.3h-2.3C47,69,47,64.6,47,63.7 c-0.8,0-1.7,0-2.6,0.1l0.1-1.7H51.6z"/>
    <path fill="#3E484F" d="M59.9,70.1l-2,0.1c-0.1-0.2-0.1-0.4-0.1-0.6h-0.1C57,70,56.1,70.3,55,70.3c-0.7,0-1.3-0.2-1.8-0.6 c-0.5-0.4-0.7-0.9-0.7-1.5c0-0.8,0.4-1.5,1.1-2.1c0.7-0.5,2-0.8,3.9-0.9c0-0.1,0-0.2,0-0.3c0-0.6-0.1-1-0.4-1.2 c-0.3-0.2-0.8-0.3-1.6-0.3c-0.9,0-1.7,0.1-2.5,0.3l0.2-1.5c0.8-0.3,1.9-0.4,3.3-0.4c1,0,1.8,0.2,2.4,0.6 c0.6,0.4,0.8,1.2,0.8,2.2c0,0.2,0,0.7,0,1.3c0,0.6,0,1,0,1.2C59.6,68.4,59.7,69.3,59.9,70.1z M57.6,68.3c0-0.7-0.1-1.4-0.1-1.9 c-1.9,0-2.9,0.5-2.9,1.4c0,0.7,0.4,1,1.3,1C56.6,68.8,57.1,68.7,57.6,68.3z"/>
    <path fill="#3E484F" d="M60.6,70.1c0.2-0.5,0.6-1.7,1.5-3.9c1-2.3,1.5-3.6,1.7-3.9H66c0.1,0.3,0.5,1.7,1.4,4 c0.9,2.4,1.3,3.6,1.4,3.9h-2.5c-0.1-0.3-0.3-1.1-0.8-2.9c-0.5-1.7-0.8-2.6-0.8-3h-0.1c-0.1,0.3-0.4,1.2-0.9,2.8 c-0.5,1.6-0.7,2.6-0.8,3H60.6z"/>
    <path fill="#3E484F" d="M69.4,70.1c0.2-0.5,0.6-1.7,1.5-3.9c1-2.3,1.5-3.6,1.7-3.9h2.2c0.1,0.3,0.5,1.7,1.4,4 c0.9,2.4,1.3,3.6,1.4,3.9H75c-0.1-0.3-0.3-1.1-0.8-2.9c-0.5-1.7-0.8-2.6-0.8-3h-0.1c-0.1,0.3-0.4,1.2-0.9,2.8 c-0.5,1.6-0.7,2.6-0.8,3H69.4z"/>
    <path fill="#3E484F" d="M88,62.2L88,64c-0.4,0-1.7-0.1-3.8-0.1c0,1.1,0.1,5.1,0.2,6.3H82c0.1-1.1,0.1-6.7,0-7.9H88z"/>
    <path fill="#3E484F" d="M114.9,62.2h-7.6c0.1,1.2,0.1,6.7,0,7.9h2.3c-0.1-1.1-0.2-5.2-0.2-6.3c1.7,0,2.8,0.1,3.4,0.1 c0,2.2,0,5.3-0.1,6.2h2.1C114.8,69.3,115,65.1,114.9,62.2z"/>
    <path fill="#3E484F" d="M124.5,62.2h-7.6c0.1,1.2,0.1,6.7,0,7.9h2.3c-0.1-1.1-0.2-5.2-0.2-6.3c1.7,0,2.8,0.1,3.4,0.1 c0,2.2,0,5.3-0.1,6.2h2.1C124.5,69.3,124.6,65.1,124.5,62.2z"/>
    <path fill="#3E484F" d="M97.8,65.8c0,1.2-0.4,2.3-1.1,3.2c-0.7,0.9-1.7,1.4-2.9,1.4c-0.9,0-1.5-0.2-1.9-0.6l-0.1-0.1l0.1,4.2 h-2.3c0,0,0-3.5,0-5.5c0-2.7-0.1-4.9-0.3-6.1l2.2-0.2l0.1,0.8l0.2-0.1c0.6-0.5,1.4-0.8,2.4-0.8c1.1,0,2,0.4,2.6,1.2 C97.5,63.8,97.8,64.7,97.8,65.8z M95.6,66c0-0.7-0.2-1.3-0.5-1.8c-0.4-0.5-0.9-0.8-1.5-0.8c-0.8,0-1.4,0.2-1.7,0.7 c0,1.4,0,3,0.1,4.3c0.4,0.3,0.8,0.4,1.4,0.4c0.8,0,1.3-0.3,1.7-0.8C95.4,67.4,95.6,66.8,95.6,66z"/>
    <path fill="#3E484F" d="M106,62.2c0,0-2.5,7-2.8,7.9c-0.5,1.3-1,2.3-1.6,2.9c-0.6,0.5-1.5,0.8-2.7,0.8l-0.2-1.6 c0.7,0,1.3-0.2,1.7-0.6c0.5-0.4,0.7-0.9,0.7-1.6c0-0.7-0.4-2.1-1.5-4.3c-1-2.2-1.5-3.4-1.5-3.5h2.2l2,5.9c0,0,1.5-5.5,1.5-5.9 H106z"/>
</svg>
