<?xml version="1.0" encoding="utf-8"?>
<!-- Generator: Adobe Illustrator 17.1.0, SVG Export Plug-In . SVG Version: 6.00 Build 0)  -->
<!DOCTYPE svg PUBLIC "-//W3C//DTD SVG 1.1//EN" "http://www.w3.org/Graphics/SVG/1.1/DTD/svg11.dtd">
<svg version="1.1" id="Layer_1" xmlns="http://www.w3.org/2000/svg" xmlns:xlink="http://www.w3.org/1999/xlink" x="0px" y="0px"
	 viewBox="0 0 200 200" enable-background="new 0 0 200 200" xml:space="preserve">
<g>
	<g>
		<path fill="#9B9A9A" d="M149,165c-29.7,32.8-80.3,35.3-113.1,5.6C3.2,140.9,0.7,90.2,30.3,57.5c29.7-32.8,80.3-35.3,113.1-5.6
			C176.2,81.6,178.7,132.2,149,165"/>
		<path fill="#FFFFFF" d="M63.8,140.7c0.1-0.7,1-3.9,0.4-4.3c-1.1-0.9-1.6-1.8-3.6-1.8c-1.5,0-2.6,0.2-4.1,0
			c1.3-2.6,0.8-4.8,2.4-7.3c1.2-2-3.9-1.1-4.5-0.9c-1.2,0.3-0.9,0.9-1.1,2c-0.1,0.7-1.2,1.6-1.1,2.2c-0.5-0.1-1.1-0.1-1.7,0
			c-0.8,0.1-1.7,0.2-2.3-0.3c-1-0.8-1.7,0.4-2.4-0.9c-0.4-0.8-0.4-2.1-0.9-2.9c-1.1-1.7-1.5-5.1-0.4-6.8c1-1.5-0.7-3,0.9-4.3
			c0.7-0.5,1.5-2.7,1.5-3.8c1.3-0.1,3.9,1.4,5.1,1.4c0.3,0.8,2.1,1.6,2.3,0.4c0.4,0.3,0.8,1,1.5,0.5c0-0.4-0.3-0.7-0.7-0.8
			c0.2-0.4,0.3-0.8,0.1-1.2c0.9-0.5,1.7,0.2,2.3,0.3c0.6-0.3,1.2-0.2,1.8-0.1c0.5,0.1,1.5-0.6,1.9-0.7c-0.2,1,0.4,1.8,1,1.3
			c1-0.8,1.2,0.4,2,1.1c1.1,1-0.3,3.3,1.7,4.5c-0.1,0.9,1.2,3.3,1.7,3.2c3.6-0.5-1.2-8.6-0.6-10.8c0.4-1.5,1-2.1,2.2-2.8
			c1.1-0.6-0.1-3.1,1-3.4c1.1-0.4,2.8,0.2,3.9-0.2c0.6-0.2,1-0.6,0.3-1c0.2-0.2,1.6-1.1,1.6-1.1c-0.1-0.8-1.3-2.2-1.2-2.8
			c0.2,0.1,0.6-0.3,0.5-0.1c0.2,0.5,1.1-1.2,1.1-1.4c0.6-1.1-1-1.8-0.7-2.7c0.5,0.1,2,0.6,2.4-0.2c0.3-0.8-0.6-4.9-1.1-4.9
			c1.4-1.6,4.8,2.7,6.1,1.5c1.1,0.1,1.6,0.2,1.6-0.9c-0.4-0.5-1.1,0-1.5-0.7c0.2-1.2,1.1-1.7,2.3-2.1c0.5-0.2,0.5-0.9,0.8-1.4
			c0.7-0.1,1.2-0.5,1.9-0.8c1.9-0.7,0.6-0.5,1.2-0.8c0.1,0,3.1-0.3,2.9-0.5c0.3,0.5-2.1,1.2-2,2.3c0.2,1.7,2.2-0.4,3.2-0.7
			c0.9-1.9,3.2-0.9,5.2-1.3c0.2-0.6-0.5-0.3-0.4-0.8c0.9,0.2,1.6-0.2,1.9-0.7c0.3-0.4,0.1-0.8-0.8-0.7c0-0.4-0.9-4.1-2.2-2.5
			c-0.7,0.8,0.5,2.5,0.5,3.4c-0.6-0.2-1.1-0.2-1.7-0.1c-0.4,0-0.8,0-1.2,0c-0.4-0.6-0.6-0.6-1.2-0.8c-0.5-0.2-1-1.6-1.3-1.6
			c0.3-0.4,0.5-0.8,0.7-1.2c-0.1-0.1-1.6-0.3-2-0.4c1,0,3.7-0.6,2.4-1.8c-1-0.9-2.5,0.1-3.6,0.5c-1.1,0.4-2.1,0.9-3,1.6
			c-0.3,0.2-1.5,0.1-2.1,0.3c0-0.7,2-2,2.5-2.4c1-0.5,1.6-0.1,2.2-1.2c0.2-0.9,0.7-1.2,1.5-1c1.1-0.1,2.8-0.7,3.9-0.6
			c2.1,0.1,3.7,1,5.5,0.4c0.9-0.3,1.4-1.1,2-1.7c0.8,0,1.6-0.1,2.4-0.1c1.1-0.1,2-1,1.7-1.9c-0.3-0.8,0.1-3.3-1.9-2.3
			c-0.3-0.1-0.2-1.3-1.6-1.1c0.4-0.2,0.7-0.4,1.1-0.7c-0.4-0.8-4-1-4.8-0.7c-0.2-0.5,0.5-1.4-0.5-2.1c-0.5-0.4-2-0.4-1.9-1.3
			c0.9,0.9,2.1-0.6,0.1-1.2c-0.1-0.4,1.4-0.1-0.1-1c-0.3-0.2-1.4-0.9-1.2-1.3c0.4-0.8-2.8-3.7-3.6-0.5c-0.1,0.5-3.7,1.7-4,1.1
			c-0.4-1-0.7-0.4-1.2-0.3c-0.3,0.1-0.8-0.2-1.4-0.4c-0.2-0.5,0.9-0.3,0.6-1.7c-0.3-1.3-0.4-0.8,0.2-1.8c0.5-0.8-3.6-0.2-3.2-1.5
			c-1.1-0.6-2.1-1.7-3.4-1.2c-1,0.4-1.8,1.1-2.9,0.8c-0.8-0.2-1.8-1.2-2.5-0.5c-0.5,0.5-0.5,1.3,0.3,1.5C74,56,73.6,56.5,73.3,57
			c0.3,0.2,0.6,0.2,0.9,0.1c-0.1,0.4,0,0.8,0.3,1.2c-0.2,0.3-0.3,0.9-0.6,1c-0.3,1.3-2.1,1.2-0.3,2.2c1.3,0.7,3.6,2.2,2.8,3.9
			c-0.6,1.2-4.3,2.1-5.7,2.3c-0.2,1.3,0.7,1.2,0.7,2.4c0,0.7,0.4,1.4,0.4,2.1c-0.1,1.5-0.7,0.8-1.4,1.5c-0.8,0.8-1.3-0.7-2.1-1.1
			c-1.1-0.5-1.4-1.3-1.2-2.4c0.1-1,0.4-2.8-0.7-3.1c-2-0.4-4.6,0.3-6.4-1c-0.9-0.6-1.5-1.8-2.8-2.1c-0.6-0.1-1.5,0.6-2,0.8
			c-0.4,0.1-1.1-0.2-1.3,0.3c0.4-0.6-0.2-3-1.5-2.9c-1.3,0.1-1.5-1.6-1.2-2.2c0.4-0.8,2.8-1.5,2.8-2.3c0-0.3,2.5-2.2,1.7-2.1
			c2.5-0.9,2-0.9-0.3-1.5c0.2-0.2,0.9-0.7,1.6-0.7c1.1,0.1,2.3,0.7,1.7-0.5c1.6,0.5,3.3-0.6,3.8-2.1c-0.4-0.1-3.7-0.2-3.5-0.8
			c1.3,0.5,2.7,0.9,3.9,0c1-0.8,1.7-1,0.5-1.4c1.2-0.3,2.5-0.4,3.7-0.3c-0.2-0.5-0.6-0.8-1.2-0.8c0.6-0.5,1.2,0.2,1.7,0.2
			c1,0.1,1.8-0.2,2.4-1c1.5-1.7-1.8-1-1.2-2.4c0.2-0.2,0.9-0.1,1.1,0c0.4,0.1,0.7,0.3,0.8-0.4c0.1-0.9-0.8-0.7-1.5-0.9
			c-1.2-0.3-5.1,0.8-2.7,1.2c-0.4,0.3-0.8,0.4-1.2,0.5c-0.3,0.6-0.6,1.1-1.1,1.6c-0.9,0.9-1.7,1.2-2.5,0c0.1-0.2,1.8-2.4-0.2-1.7
			c-0.8,0.3-1.2,1.1-1.9,1.5c0.4-0.5-0.4-1.2,0.3-1.5c-0.3-0.3-0.8-0.2-1.2,0c-0.3,0.1-0.5,0.2-0.8,0.2c-0.1-0.8,0.9-0.4,1.1-0.9
			c-0.5-0.7-1.3-0.2-1.1-1.1c0.2-0.9-1.8-0.2-2.1-0.1c-0.9,0.4-1.4,1.3-2.3,1.9C53.8,45,54,45,54.2,45c-0.1,0.4-1.2,1,0,1.1
			c0.5,0,1-0.1,1.5-0.2c0.4-0.1,0.8-0.2,1.3-0.2c0,0.2-1.8,0.9-1.9,0.9c0,0.4,0.3,0.3,0.6,0.2c0.2-0.1,0.3-0.1,0.5-0.1
			c-0.4,0.7-1.6,1-2.2,1.4c-1,0.7-0.1,0.7-0.6,1.4c-1.1,0.1-0.4-0.8-0.3-1.2c-0.7-0.2-2.7-0.2-2.5,0.9c-0.7,0.3-3.9,1.9-4.6,1.5
			c-1.7-0.9-3.8,1.4-4.8,2.6c0,0,0,0,0-0.1c-2.2-0.1-3.3,1.8-5.3,2.1c0.4-0.4,0.8-0.7,1.2-1.1c-0.8-0.6-4.3,2.4-4.9,3.1
			c-2.5,2.8-0.8-0.5-3.5-0.8c-0.4,0.3,0.6,0.6,0.4,1.1c-0.4,0-1.7,0.6-2.1,0.8c-0.5,0.2-1.6,0.5-2.3,1c-0.2,0.2-0.4,0.4-0.6,0.7
			c0,0-0.1,0.1-0.1,0.1c-3.5,4.5-6.6,9.2-9,14.1c1.1,0,2.3,0,2.5,0.3c-0.4,1.3,2.9,0.9,2.8,1.7c0.3-0.2-0.2,1.5-0.2,1.5
			c-0.2,0.6-0.4,1.2-0.5,1.7c0.7-0.3,0.2-1.3,0.8-1.6c0.1,0.2-0.1,2.2-0.1,2.3c0.2,1-0.8,3.8-0.5,4.3c0.2,0.3,1.3,1.6,1,1.9
			c-0.4,0.6-0.1,2.6-0.2,3.4c-0.2,1.1-0.5,2.2-0.6,3.4c-0.3,1.7-0.7,3.7-0.4,5.4c0.3,2.2,1.1,4.2,1.7,6.3c0.4,1.5,1.2,0.5,1.8,1.8
			c0.7,1.5,1.1,3.6,1.9,5.2c0.3,0.6,2.4,3.5,0.7,3.2c-0.1,1.8,2.5,1.8,2.7,3.4c0.2,1.9,1.7,2.5,2.3,4.2c1.5,0.1-0.1-2-0.1-2.4
			c-0.9,0-1.3-2.4-1.5-3.4c-0.9-0.4-1.3-2.2-1.7-3c-0.8-1.4-1.5-2.5-1.4-4.2c1.7,0.5,2.1,2.1,2.7,3.8c0.3,0.8,0.7,2.1,1.1,2.6
			c1,0.8,1.1,1.3,1.2,2.4c1.9,1.1,3.2,4.1,4.1,6c0.5,1.1-0.3,1.8,0.4,2.8c0.6,1,1.8,1.4,2.2,2.5c1.9,0.6,3.8,1.9,5.5,2.9
			c1,0.6,1.9,1.2,3,1.5c0.9,0.2,1.6-0.6,2.4-0.6c1.7,0,3.2,2.8,4.5,3.7c0.6,0,5,1.9,5,1.2c0.2,0,2.3,3.2,2.9,3.6
			c0.2,0.8-0.6,0.9,0.3,1.5c-0.1-0.1,0.1,0.1,0.5,0.3c0.9-0.4,1.8-0.7,2.7-1.1C63.9,142.3,63.6,141.5,63.8,140.7"/>
		<path fill="#FFFFFF" d="M127.5,168.5c-0.4-1.5-3-0.1-4-0.8c-0.9-0.6-1.8-1.7-3-1.6c-1.5,0.1-2.5-0.2-4-0.5c-1-0.2-1.4,1.1-2.3,1
			c0.2-1.4-1.3-1.9-2.9-1.6c-0.5-0.7-1.6-0.6-2.5-0.1c0.1-0.2,0.2-0.5,0.2-0.8c-0.7-0.6-1.5,0.1-2.3,0c-0.7,0.7-1.4,1.4-2.7,1.5
			c0.5-1.6,2.2-2,3-3.3c0.4-0.7-1.1-1.5-1.3-2.1c-0.7-2-0.6-1.7-2.3-2.9c-1.1-0.7-2.6-1.2-4-1.3c-1.2-0.1-1.4,0.5-2.5,0.1
			c-0.7-0.3-2.3-0.8-3.3-0.7c0.4-2.3-2.3-2.8-3.7-2.6c0.3-0.4,0.6-0.8,1.1-1.1c-0.3-0.3-0.6-0.6-1.1-0.7c0.6-0.1,0.3-1.2,0.5-1.6
			c-1.1-0.2-1.7,1.6-2.4,0.8c0.2-0.3,0.9,0,0.8-0.5c-1-0.6-2.9-0.3-3.8,0.3c-1.2,0.9-2.3-0.7-3.6-0.5c-1.1,0.1-1.5,0.4-2-0.5
			c-0.4-0.7-1.1-0.8-1.9-0.7c-0.3-0.3-0.5-1.6-1.2-1.1c-0.4,0.3-0.5,0.9,0.2,1c-0.6,0.5-1.6,0.3-2.1,0.8c-0.3,0-0.6-0.9-0.1-1
			c2.2-0.5-0.7-1.2-1.2-1.9c-0.3-0.5-0.7-0.9-1.2-1.1c-1.7-0.7-4.2,0.1-5.8,0.3c-0.5-0.7-1.3-1.4-1.9-2.2c-0.9,0.4-1.9,0.7-2.7,1.1
			c0.4,0.2,0.8,0.4,0.7-0.1c0.5,1.2,1.6,0.3,1.6,1.9c0.2,0.5,1.4,0.7,1.7,0.7c0.3,0,0.6,0,0.9,0.1c0.5,0.2,0.9,0.5,1.3,0.8
			c0.7,0.5,0.7,0.4,1.8,0.4c-0.1-0.5-0.3-0.9-0.5-1.3c1.1,0,1.1-0.7,2.4-0.4c0,0.5,0.8,1.6,0.5,2c-1.1,0.3-2.3-0.1-3.1,0.8
			c-0.3,0.4-0.3,1.8-0.8,1.9c-0.6,0.1-1.2,0.8-1.3,1.4c-0.2-0.3-0.5-0.5-0.8-0.5c-0.5,0.4,0.7,0.7,0.3,1.1c-0.4,0.1-0.6,0.3-0.8,0.7
			c-0.1,0.7,0.9,1.4,0.9,2.1c0.1,0.8,0.5,2.7,0.1,3.3c-0.2,0.3-2,1.4-1.4,1.4c-0.9,0.1-0.2,1-1.2,1c-0.7-0.2-0.9,0.1-0.7,0.9
			c-0.1,0.6-1.8,2.9-0.5,3.4c0.1,0,1.2,0.2,1.3,0c0,1.2-1.4,1-1.9,1.8c-0.1,0.8,1.6,1.7,0.4,1.7c0.3,0.6,1.1,0.8,1.7,1.1
			c0.4,0.6,0.8,1.2,1.3,1.7c0.9,1.1,2,2.1,2.5,3.5c1.4,1,1.8,2.6,3,3.6c1.1,0.9,2.3,1.5,3.6,2c1.4,0.6,2.6,1.2,3.9,1.9
			c0.2,0.7,0.9,2.9,0.4,3.5c-0.2,0.2-0.3,4.4-0.1,4.4c-0.1,1-1-0.5-0.2,1.1c0.2,0.2,0.3,0.4,0.2,0.7c0,0.1-0.8,1.4-1.4,1.1
			c0.1,0.3,0.3,0.5,0.5,0.6c6,0.8,12,1,18,0.5c-0.5-0.2-0.5-0.7-1.4-0.6c2.2-0.4,4.1,0.7,6.1-0.3c0.5-0.2,1.2-1.1,1.8-1.5
			c0,0-0.1,0-0.1,0.1c1.2,0.1,4-2.1,4.1-3.1c0.2-2.4,3.9-2.7,4.9-4.4c2.6-0.3,3.8,0.6,5.6-1c1.4-1.3,1.8-2.6,2.8-3.9
			c0.6-0.9-1-3-0.5-4c1.2-0.3,3.1-0.5,3.6-1.6C125.3,173.3,128.2,171,127.5,168.5z"/>
		<path fill="#FFFFFF" d="M31.6,54.4c1.2,0.2,1.1,0.7,2,1.5c0.2-0.3,3-3.6,3.3-3.2c-0.3,0.2-0.5,0.4-0.7,0.7c0.1-0.1,0.3-0.1,0.4,0
			c-0.4,0.3-0.7,0.6-0.9,1.1c0.9,0,2.2-0.6,2.7-0.8c1.2-0.6,2.4-1.4,3.4-2.2c0.9,0.1,1.7-1.1,2.8-1.2c1.2-0.1,2.6-0.6,3.3-1.6
			c-0.5-0.5-1.1,0.6-1.3,0.3c0.6-0.6,2.8-0.7,2.5-1.6c-0.9-0.3-1.8,0.5-2.7,0c0.6-0.5,0.3-1.1,0.3-1.7c-1.7-0.1-2,1.1-2.7,2.3
			c-0.5,0-0.1-0.7-0.3-0.7c-0.9,0.1-1.3,1-2,1.5c0,0.1-3.2,1.5-4.1,1.4c-1.2-0.1-1.3-0.8-2.6-0.7c-0.2,0-0.4,0-0.6,0.1
			c-0.6,0.5-1.1,1-1.7,1.5c0,0.2-0.1,0.3-0.2,0.6c-0.7,1.1-0.7,0.6-0.8,1.9C31.6,53.8,30.3,54.3,31.6,54.4z"/>
		<path fill="#FFFFFF" d="M27.7,56c-0.3,0.3-0.6,0.7-0.9,1c0.7-0.3,1.4-0.6,1.7-0.8C28.4,56,28.1,56,27.7,56z"/>
		<path fill="#FFFFFF" d="M168.1,88.8c0-0.9-0.1-1.7-0.4-2.3C167.2,87.2,167.5,88.4,168.1,88.8z"/>
		<path fill="#FFFFFF" d="M154.3,65.7c-0.2-0.2,0-1,0.3-0.7c-1,1,2.4,2.7,2.3,4c-0.3-0.2-0.6-0.2-0.9,0c0.2,0.4,0.3,0.7,0.5,1.1
			c-0.2,0.1-0.4,0.1-0.7,0.1c0.1,1.1,1.4,0.9,1.9,1.7c-0.3-0.1-0.6-0.2-0.9-0.4c-0.7,2.4-0.8,0.6,1.1,1.9c0-0.2,0-0.4,0.1-0.5
			c1,0.4,1.6,0.9,2.8,1.1c0.1-0.1-0.1-1.6-0.1-1.9c-0.4-1.1-1.6-2.3-2.3-3.3c-0.7-1.1-1.6-2.2-2.4-3.2c-0.2-2-0.9-1.3-1.7-2.8
			c0.3,0,0.4-0.1,0.5-0.4c-0.6-0.4-1.1-0.7-1.7-1.1c0,0.3,0.1,0.6,0.3,0.9c-0.1,0-0.2-0.1-0.3-0.1C153.1,62.8,153.6,65.6,154.3,65.7
			z"/>
		<path fill="#FFFFFF" d="M171.6,100.6c-0.5-0.9-1-1.7-1.4-1.8c-1-0.2,0.7-4.8-1.3-5c-0.5,0.5-1.8-0.1-2.5-0.2
			c-1.2-0.3-2,0.1-2.7,0.8c0.1,0.3-3.3,0.9-4-0.6c-0.5-0.9,1.4-0.9,1.7-0.8c1.5,0.1,1.3-1.2,2-2.2c0.4-0.6,0-0.8-0.3-1.5
			c0.3-0.6,0.5-1.2,0.7-1.9c2.1,0.2,0.3-2.1,1.2-2.7c0.4,0.4,0.9,0.8,1.5,1.1c0.2-0.4,0.4-0.8,0.8-1.1c1,1.4,1.3,3.1,2.1,4.6
			c0,0,0,0,0,0.1c-1.6-5.9-3.9-11.6-6.9-17.1c-0.3,0.3-0.6,0.9-0.5,1.5c-1-0.5-0.8,0.8-1.3,1.1c-0.5,0.3-0.6,0.1-0.8-0.2
			c-0.1-0.2-0.3-0.4-0.6-0.4c0.2,0.5,0.3,1,0.4,1.5c-0.9-0.7-1.1-0.6-2.3-0.8c-0.1,1.2,2.4,3.1,3.1,4.2c0.5,0.7,1.2,3.2,0.6,4.1
			c-1.2-0.9-5.1-2.3-6.1-1.3c-0.2,0.6,0.7,3.1,0.9,3.9c0.1,0.7-0.1,2.5-0.3,3.2c1.9,1.1-0.5,3.2,2.7,2.6c1.3,1.6,1.3,3.7-0.3,4.9
			c-1.4,1-0.8,1.8-1.6,2.9c-0.9,1.2,0.6,2.4-0.6,3.8c-0.8,0.9-2,1.4-2.4,2.5c-0.5,1.6-2,2.2-2,4.1c-1.5,0.7-1.1,1.9-2.1,2.9
			c-0.8,0.8-0.1,1.9-0.3,2.9c0.2,0,0.4,0,0.5,0.1c0.3,0.5,0.5,3,0.4,3.6c-0.1,0.9-0.3,3.3-0.9,4c-1.1,1.4,0.2,1.8-0.2,3.1
			c-0.3,1,0.3,2.4,1.6,2.2c-0.8,1.6,2.3,2.6,1.9,4.6c0.4,1.3,2.6,2.6,3.7,3.6c1.2,1,2,0.3,2.9-0.3c0.8-0.6,1.7-1.3,2.8-0.5
			c0.4,0.3,4-2.8,4.7-3.1c0.5,0.5,0.3,1.5,0.5,2.1c0.6-0.1,1.1-0.5,1.5-0.9c0.5,2.6-1.4,4.6-1.2,7c0,0.1,0,0.2,0,0.3
			C171.9,128.2,173.4,114.2,171.6,100.6"/>
		<path fill="#FFFFFF" d="M151.1,68.5c1.3,2.2,5.3,1.8,3.2-1.1c1.1-0.1-1.3-2.8-2-2.7c-0.3,0.2-0.5,0.4-0.7,0.7
			c0.3,0,0.4,0.1,0.5,0.4c-0.5,0-0.8-0.4-1.3-0.4C150.5,66.1,152.8,68.8,151.1,68.5"/>
		<path fill="#FFFFFF" d="M95.3,29c-0.7,0.1-1.5,0.1-2.2,0.1c-1.3,0-2.7,0-3.9,0.6c0.6,0,1.2,0.1,1.7,0.4c-0.1,0-0.4,0-0.6,0
			c-0.5,0-1.2-0.1-1.4,0.3c0.4,0.1,0.6,0.1,0.7,0.1c0.1,0,1.2,0.7,1.1,1.2c3.4,0.5,5.8-1.3,8.8,0.9c0,0.2-1.4,1.1-1.1,1.2
			c1-0.2,1.3-0.4,2.1-0.2c-0.2,0.1-0.4,0.1-0.5,0.3c0.5,0,0.9,0.2,1.3,0.5c0,0-1.4,0-1.2,0.1c0.3-0.1,0.5,0,0.7,0.1
			c-0.3,0-0.5,0.2-0.7,0.4c0.2,0,0.3,0,0.4,0.1c-0.2,0-0.4,0-0.6,0c-0.6,0.3,1.7,0.5,2.6,0.4c0.1-0.1,0.2-0.2,0.4-0.1
			c0.1,0.1-0.1,0.1-0.4,0.1c0,0,0,0.1,0,0.1c0.9,0.3,2.4,0.2,2.9,0.9c-0.3-0.1-0.2,0.1-0.2,0.2c0.1,0.2,0.2,0.3-0.8,0
			c-0.9-0.3-2.4-0.8-3.3-0.1c0.2,0.1,0.4,0.2,0.5,0.4c-0.8-0.1-1.4,1.8-1.3,1.8c0.6,0.6,3.9,0.3,4.5-0.9c-0.4-0.2-0.8-0.4-1.2-0.5
			c0.6,0.1,1.2,0.2,1.9,0.4c-0.2,0-0.3,0-0.4,0.1c0,0.3,0.3,0.2,0.5,0.2c0.1,0,0.3,0,0.3,0c0.5,1.6-2.2,1.2-3,1.7
			c0.7,0.1-0.5,0.6-0.6,0.9c-0.3,0.5-0.2,0.7,0.3,0.6c-0.1,0.1-0.3,0.2-0.4,0.2c0.5,0.5,1.6,0.1,2,0.5c-2.4,0-0.9,1.4,1,1.7
			c0,1-0.5,1.3,0.5,1.5c-0.8,0-0.7,0.4-0.3,0.9c0.4,0.5,0.9,0.9,0.9,0.9c0.2,0.7,0,0.3,0.7,0.8c0.2,0.2,1.2,0.2,1.4,0.4
			c-0.2,0.8-0.2,1.5,0,2.5c1.1,0.3,1.8-0.8,2.2,0c0.1,0.1,0.5,0.4,0.7,0.4l0,0c0,0,0,0,0,0c-0.9,0.8,1.7,0.8,2,0.9
			c0,0.4,0.2,0.6,0.6,0.6c0.5,0,0.5,0.2,0,0.5c1,0.1,1.8,0,2.8-0.3c-0.2,0.1-0.3,0.3-0.1,0.5c0.9,0.2,0.7-0.7,0.8-0.7
			c0.1,0,1.4,0.1,1.5,0.3c-0.4,0.1-0.6,0.3-0.8,0.7c0.7,0.1,1.3,0.3,2,0.4c-0.8,0.9,0.3,0.5,1.2,0.9c0.4-0.2,0.9-0.2,1.3-0.2
			c0.4,0,0.8,0,1.2-0.1c0.2-0.8,0-0.7-0.2-0.5c-0.2,0.2-0.1,0.1,0,0c0.1-0.1,0.3-0.3,0.6-0.7c-0.2-0.7-0.8-0.3-0.4-1.6
			c0.5-1.5-0.5-1.1-1.1-2.3c0.3,0,0.5,0,0.8-0.1c0-0.3-0.1-0.5-0.4-0.7c0.7-0.1,1.3,0.1,1.7-1.1c-0.5-0.3-0.9-0.6-1.3-0.9
			c0.3,0.1,0.6,0,0.9-0.1c-0.3-0.3-0.6-0.6-0.9-0.9c0.3,0.1,0.6,0,0.9-0.1c0-0.4-0.2-0.6-0.5-0.8c1.7,0.6,2.9,1.5,4.5,1.5
			c-0.1-0.2-0.2-2.3-0.2-2.6c0.4,0.3,0.8,0.4,1.2,0.4c0.3-0.9-0.4-1.7,0.4-2.4c0.6,0.2,1.5,0.6,2.1,0.3c0,0,1.3-0.1,1.9-0.4
			C121.8,34.1,108.6,30,95.3,29"/>
		<path fill="#FFFFFF" d="M170.3,93.5c-0.1-0.1-0.1-0.1-0.2,0c0,0.6,0.3,1.1,0.6,1.6C170.5,94.6,170.4,94,170.3,93.5z"/>
		<path fill="#FFFFFF" d="M168.7,91.7c-0.1-1.4-0.3-2.1-1.1-2.8c0.2,0.9,0.2,2.1,0.8,2.9C168.5,91.6,168.5,91.5,168.7,91.7z"/>
		<path fill="#FFFFFF" d="M72,31.7c0.8-0.2,1.6-0.4,2.4-0.4C73.8,31.4,72.9,31.5,72,31.7c-0.5,0.1-1,0.3-1.5,0.3
			c-0.4,0.1-0.8,0.3-1.1,0.6c0.2-0.1,0.1,0.3,0,0.4c0.3,0,0.9-0.1,0.4-0.4c0.5-0.1,2.6-0.3,2.9,0c-0.7,0-4.7,0.3-4.8,1.3
			c0.8-0.1,2.8-0.6,3.3-0.1c-0.7,0.2-7.1,0.7-6.8,2.4c1.1,0,2.5-0.7,3.7-0.9c1.2-0.2,2.6-0.5,3.9-0.9c1.4-0.4,4.4,0.3,5.4-1.3
			c-1.4,0-3,0.7-4.4,0.3c1.1-0.3,2.3-0.2,3.4-0.4c0.8-0.2,0.9-0.7,1.7-0.7c0.7-0.1,2.8-0.6,3.1-1.4c-0.8-0.1-1.7,0.4-2.4,0.1
			c1.4-0.5,2.9-0.1,4.2-0.7c-0.3,0.1-0.6,0-0.8-0.1c0.9,0.1,5.9-1.1,8.5-1.4c-0.2,0-0.3,0-0.4,0c-2.4,0-4.8,0-7.2,0.2
			c-2.2,0.3-4.3,0.7-6.5,1.2c-2.1,0.5-5,0.6-6.8,1.8c0.2,0,0.4,0,0.6-0.1C71,31.8,71.5,31.7,72,31.7z"/>
		<path fill="#FFFFFF" d="M69.1,32.3c0.2-0.1,0.3-0.1,0.4-0.3C69.4,32,68.8,32.3,69.1,32.3z"/>
		<path fill="#FFFFFF" d="M45,44.3c4.6-1.8,6.4-3.5,4.8-3.3C48.6,41,45.6,43.1,45,44.3z"/>
		<path fill="#FFFFFF" d="M61.3,35.6c0.1,0,0.2,0,0.3,0h0c0.1,0,0.1-0.1,0.2-0.2c1.3-0.4,3.1-0.8,3.9-0.8c0.9-0.7,2.3-1.2,3.3-1.6
			c-0.2,0.1-0.7-0.2-0.7-0.3c0-0.1,0.1-0.1,0.2-0.2c-0.1,0-0.3,0.1-0.5,0.2c-0.4,0-1.1,0.3-1.5,0.4c0,0,0,0,0.1,0
			c0,0-0.1,0.1-0.1,0.1l0.2-0.1c0.2,0-0.5,0.2-0.3,0.2c-0.2,0,0.4-0.2,0.3-0.2c-2.5,0.8-6.3,2-6.2,2.8C60.6,35.8,61,35.7,61.3,35.6z
			"/>
		<path fill="#FFFFFF" d="M141.5,49.1c-0.1-0.5-1.3-1.5-1.8-1.7c-0.3-0.2-0.3-0.1-0.4,0c-0.1,0.1-0.2,0.2-1-0.1
			c-0.3-0.1-2.6-0.9-2.6-0.8c0.2,0.2,0.2,0.3,0.1,0.5c0-0.3-2.1-1.7-2.8-1.9c-0.2,0.3,0.5,0.4,0.3,0.5c-0.5-0.2-1.3-0.6-1.3,0.1
			c0.5,1,2.2,0.1,2.5,1.2c-0.1,0-0.4,0-0.6-0.1c-0.4-0.1-0.9-0.2-1,0.2c0.7,0.4,1.8,0.3,2.3,1.1c-0.4-0.1-0.6,0-0.7,0.4
			c0.8,0.2,8.3,3.1,8.2,1.7c0,0-0.1-0.3-0.4-0.6C142.3,49.4,141.9,49.1,141.5,49.1"/>
		<path fill="#FFFFFF" d="M77.7,129c0-1.2-1.4-1.2-2.3-1.2c-0.1-0.3,0.4-0.4,0.1-0.7c-0.9-0.4-1.8-0.6-2.8-0.8
			c-0.2-0.7-0.9-0.9-1.6-1.1c-1.1-0.3-2.1-1.3-3.2-1.3c-1.4,0-2.6-0.6-4.1-0.2c-0.7,0.2-2.8,1.3-2.1,2.4c0.7,0.2,2.9-1.2,3.7-1.6
			c0.2,1.3,1.8,1,3.1,1.6c1.1,0.5,1.9,0,2.3,1c0.4,0.9,1.2,0.6,2,1.1c-0.3,0.5-0.9,0.3-0.8,1.1C74,128.9,75.9,129.2,77.7,129z"/>
		<path fill="#FFFFFF" d="M72.1,132.1c0.1,0.1,2.6,0.6,2.5-0.1C73.9,130.8,69.7,130.8,72.1,132.1z"/>
		<path fill="#FFFFFF" d="M79.4,131.9c0.6,0.1,1.1,0.2,1.7,0.1c0.3,0.5,0.7,0.7,1.2,0.8c0.3-2.6,4.6,0.3,4.6-1.6
			c-1.1-1.3-3.3-2.3-4.7-2.1c-0.7,0.1-3.4-0.6-3.7,0.3c0,0,1.7,1.8,1.6,1.7c-1,0.4-1.9-0.6-2.9-0.1C77,132.5,78.7,131.8,79.4,131.9z
			"/>
		<path fill="#FFFFFF" d="M88.4,131.7c0.1,1.3,2.9,0.6,2.7-0.2C90.8,131.6,88.4,130.5,88.4,131.7z"/>
		<path fill="#FFFFFF" d="M52.1,41.3c1.6,1.3,2.7-0.8,3.2-0.8C54.8,40.3,50.8,40.2,52.1,41.3z"/>
		<path fill="#FFFFFF" d="M40.6,46.8c-0.5,0-1.9-0.3-2,0.7c1,0.8,4.4-0.3,4.1-1.7c-0.4-0.1-0.8-0.2-1.1-0.5c-0.7,0-1.4,0.2-2,0.5
			C39.3,45.8,40.4,46.8,40.6,46.8z"/>
		<path fill="#FFFFFF" d="M60.7,38.7c2.5-0.3,4.9-1.6,7.4-1.7c0.7,0,1.9-0.2,2.3-0.9c0.6,0.8,1.7,0.2,2.4,0.1c1-0.2,1.2-0.6,2.2-1.2
			c-2.3-0.7-5,0.1-7.1,0.9c-1,0.4-1.6,0.3-2.6,0.7c-0.6,0.2-2.3,0-2.8,0.5c0.3-0.5,1.1-0.3,1.5-0.8c-1.2,0.1-2.3,0.5-3.4,0.9
			c0,0.6,0.5,0.1,0.5,0.4C60.8,38.1,60.5,38.1,60.7,38.7z"/>
		<path fill="#FFFFFF" d="M78.9,44.1c-1.4-0.5-3.2-0.1-3.2,1.6C76.9,46.2,79,45.8,78.9,44.1z"/>
		<path fill="#FFFFFF" d="M88.2,40.5c-0.6,0.1-1.3,0.4-1.9,0.3c0.5-0.1,1-0.3,1.5-0.5c-0.1-0.6-1.1-0.5-2.1-0.5
			c-0.8,0.1-2.2,0.8-2.3,0.4c0.8,0-1.1-2.1-1.8-0.7c-0.1-0.8-0.7-0.7-1.3-0.5c-0.3,0.1-0.6,0.2-0.9,0.1c0.5-0.1,0.9-0.3,1.2-0.7
			c-0.9-0.7-5.8-1.2-5.8,0.7c-0.6-0.4-1-0.2-1.4-0.1c-0.3,0.2-0.7,0.3-1.1,0.1c0.4-0.4,0.7-0.8,0.9-1.2c-1.4-1.4-3.9-0.2-5.3,0.7
			c0.3-0.1,0.5,0,0.7,0.1c-0.6,0-1.6,0-1.7,0.8c0.2,0.1,0.4,0.2,0.5,0.4c-0.4,0-0.7,0.2-0.8,0.5c0.2,0.4,1,0,1.1,0.5
			c-0.4,0.4-0.9,0.5-1.5,0.4c0.3,0,0.6-0.1,0.8-0.4c-0.4-0.7-1.2-0.7-1.3-1.5c0.6-0.7,1.6-0.9,2.3-1.6c-1.7,0.2-6.4,1.4-5.7,3.3
			c-0.5,0.1-0.8,0.3-0.9,0.8c0.4,0,0.7,0,1-0.1c0.5-0.1,1.1-0.1,1.6,0.1c-0.5,0.4-1.8,0-2,0.8c0.5,0.6,1.6,0.3,2.2,0.1
			c0.7-0.2,0.7-0.1,0.9,0c0.1,0.1,0.4,0.2,1.2,0.1c1.9-0.2,3.7-0.4,5.5-0.3c0.1-0.8,0.5-0.6,1.1-0.5c0.4,0.1,0.8,0.2,1.3,0
			c1.4-0.6-0.3-0.7-0.3-1c0.6-0.4,3.9,1.2,4.4,1.4c-0.5,0.2-0.9,0.3-1.5,0.3c-0.2,1.2,1.2,0.5,1.8,0.3c1.2-0.3,1,0.4,2.1,0.6
			c2.9,0.6,0.5,2.9-1.3,3.3c0,0.5,1.2,0.8,0.9,1.2c-1.6,0.1-2.7,0.4-4.2,0.4c-0.7,0-2.3,0.7-2.1,1.8c0.9,0.1,4.6-0.6,4.7-1.3
			c0-0.4,4,1.8,4.5,2.2c-0.3,0-0.5,0.2-0.5,0.5c1.1,0.9,2.8,0.7,3.7,2c1.6-0.2,3.1,0.3,4.6,0.4c0-2.1-1.5-2.1-4.2-2.7
			c1.7,0.4,4.1-0.1,4.4,0.1c0.8,0.5,0.7,1.4,1.6,1.4c0.1-0.2,0.1-1.4,0-1.5c0.2,0.1,0.3,0.1,0.5,0.1c0.2-1.3-0.7-1.2-1.3-2
			c0.2,0.1,0.4,0,0.4-0.3c-0.7,0-4.4-2.2-4.1-2.5c0.3,0.3,0.7,0.4,1.2,0.3c0.1-0.7-0.6-0.4-0.7-0.9c1.3-0.5,2.8-0.6,3.8,0.2
			c0.8,0.6,1.1,2.2,2.1,2.2c0.1-0.4-0.5-0.9-0.1-1.2c0.6,0,1.3-0.3,1.9-0.3c0.4-0.2-0.4-0.5,0-0.7c1,0.1,1.8-0.7,0.4-1.1
			c-1.1-0.4-1.2,0.1-1.8-0.6c-0.6,0-1.5,0.4-2.1,0c0.4,0.1,0.7,0,0.9-0.3c-0.9-1.5-4.5-1-6.1-2c0.2-0.2,0.4-0.2,0.7-0.1
			c0.1-0.3-0.7-0.5-0.4-0.7c0.7,0.3,1.4,0.3,2.1,0.3c0.1-0.6-0.4-0.6-0.9-0.6c-0.4,0-0.8,0-1-0.3C90.9,41.3,89.1,40.4,88.2,40.5"/>
		<path fill="#FFFFFF" d="M66.5,52.7c0.5,0,4.2,2.1,4.1,0c-0.7-0.3-1.4-0.4-2.1-0.3c0.4-1.2-1.5-0.4-2.3-0.8
			c-1.9-0.8-0.2-0.5-1.5-0.7c0-0.5-0.2-0.8-0.7-0.9c-0.4,0.7-1,1.2-1.2,2.1c-0.4,1.4-1,1-1.5,2.2c0.7,0.1,1.5-0.6,2.1-0.4
			c-0.1,0.3-0.1,0.5,0,0.8c1.1,0,1.8-1.1,2.9-1.2C66.6,53.2,66,52.7,66.5,52.7z"/>
		<path fill="#FFFFFF" d="M73.4,48.4c-0.5-0.2-1.3,0.4-1.7,0.1c0.7-0.3,1.2-0.7,1.7-1.2c-1.1,0-3.3,1-4,1.7c0.2,0,0.4,0,0.5,0.1
			c-0.7,0.2-2.3,1-2.7,1.5C68.4,51.3,73.5,50.6,73.4,48.4z"/>
		<path fill="#FFFFFF" d="M57.2,37.5c1.2-0.2,2.1-0.6,2.9-1.2C59,36.6,58,36.9,57.2,37.5z"/>
		<path fill="#FFFFFF" d="M54.2,47.1c-0.5,0-1.6-0.6-2.3-0.7c-0.4,0.4-1.7,1.4-1.9,1.9C51.6,48.1,53.2,48.5,54.2,47.1z"/>
		<path fill="#FFFFFF" d="M68.4,32.6c0.1,0,0.2-0.1,0.3-0.1C68.6,32.5,68.5,32.5,68.4,32.6z"/>
		<path fill="#FFFFFF" d="M57.2,39.2c0.7,0.4,3.1-0.9,2.8-1.1C59.1,38.6,57.9,38.5,57.2,39.2z"/>
		<path fill="#FFFFFF" d="M56.3,41.6c0.9,0.5,1.9-0.2,4.5-2.4C61.8,38.2,57.7,40.2,56.3,41.6z"/>
		<path fill="#FFFFFF" d="M56.1,38.1c-0.4-0.1-3.2,0.3-3.2,0.7C53.7,38.6,55.9,39.4,56.1,38.1z"/>
		<path fill="#FFFFFF" d="M49.5,45c-0.2,0.1-0.4,0.3-0.5,0.5c1.1-0.1,3.1-1,3.3-2.3C50.5,43,48.8,44.9,49.5,45z"/>
		<path fill="#FFFFFF" d="M106.3,74c-0.2,0-0.3,0-0.5,0c-1,0.2-1.6,1.1-2,2c-0.4,0.9-0.8,2-1.3,2.4c0,0-0.1,0.1-0.1,0.1
			c-0.4,0.3-0.4,0.7-0.1,1.1c-0.5,0.1-0.9,0.3-1.1,0.7c-0.1,0.2-0.1,0.3-0.1,0.4c0.1,0.3,0.4,0.5,0.9,0.5c0.2,0,0.3,0,0.5,0
			c0.2,0,0.3,0,0.4,0c0.1,0,0.3,0,0.4,0c0.1,0,0.1,0,0.1,0c0.1,0,0.2,0,0.4,0c0.3,0,0.7,0,1.2,0c0.5,0,0.9,0,1.4,0
			c0.3,0,0.6,0,0.8,0c0.3,0,0.4,0,0.5,0.1c-0.1,0-0.1,0.1-0.2,0.1c-0.5,0.2-0.8,0.6-1.1,1c0.2,0.1,0.4,0.2,0.6,0.2
			c0.4,0,0.8-0.3,1.1-0.6c0,0,0.1-0.1,0.1-0.1c0.3-0.3,0.6-0.5,1-0.5c0.1,0,0.1,0,0.2,0c-0.1,1.1-0.4,1.1,1,1.5
			c0.2,0.1,0.3,0.1,0.5,0.1c0.5,0,0.5-0.5,0.7-1.1c0.4-1.3-1.3-1.1-1.6-1.3c0-0.4,0.2-0.5,0.4-0.6c0.3-0.1,0.6-0.2,0.5-0.7
			c-0.1-0.1-0.2-0.1-0.3-0.1c-0.1,0-0.3,0.1-0.4,0.1c-0.1,0.1-0.3,0.1-0.4,0.1c0,0-0.1,0-0.1,0c0-0.6,1-1.4-0.2-1.7
			c-0.2,0-0.4-0.1-0.5-0.1c-0.2,0-0.4,0-0.6,0.1c-0.2,0-0.4,0.1-0.6,0.1c-0.3,0-0.7-0.1-1.1-0.5c1.5-0.4-0.4-0.5-1-0.5
			c-0.1,0-0.2,0-0.2,0c0.4-0.5,1.2-1.5,1.6-2.2c0.1-0.2,0.2-0.4,0.2-0.6C106.9,74,106.6,74,106.3,74"/>
		<g>
			<g>
				<path fill="#373B3F" d="M176.1,41.2l-0.6,0.5c0.3,0.3,0.7,0.6,1,0.9l0.6-0.5C176.8,41.8,176.5,41.5,176.1,41.2z"/>
				<path fill="#373B3F" d="M6.7,124c0,0.4,0.1,0.9,0.1,1.3l0.8-0.2c0-0.4-0.1-0.9-0.1-1.3L6.7,124z"/>
				<path fill="#373B3F" d="M178.5,43.4l-0.6,0.5c0.3,0.3,0.6,0.6,0.9,0.9l0.6-0.4C179.2,44,178.8,43.7,178.5,43.4z"/>
				<path fill="#373B3F" d="M7,127.3c0.1,0.4,0.1,0.9,0.2,1.3l0.8-0.2c-0.1-0.4-0.1-0.9-0.2-1.3L7,127.3z"/>
				<path fill="#373B3F" d="M180.8,45.7l-0.7,0.4c0.3,0.3,0.6,0.6,0.9,1l0.7-0.4C181.3,46.4,181,46,180.8,45.7z"/>
				<path fill="#373B3F" d="M7.5,130.4c0.1,0.4,0.2,0.9,0.3,1.3l0.8-0.3c-0.1-0.4-0.2-0.8-0.3-1.3L7.5,130.4z"/>
				<path fill="#373B3F" d="M182.8,48.1l-0.7,0.4c0.3,0.3,0.5,0.7,0.8,1l0.7-0.4C183.4,48.8,183.1,48.5,182.8,48.1z"/>
				<path fill="#373B3F" d="M8.2,133.5c0.1,0.4,0.2,0.8,0.4,1.2l0.7-0.3c-0.1-0.4-0.2-0.8-0.3-1.2L8.2,133.5z"/>
				<path fill="#373B3F" d="M184.7,50.7l-0.7,0.4c0.2,0.3,0.5,0.7,0.7,1.1l0.7-0.4C185.2,51.4,184.9,51,184.7,50.7z"/>
				<path fill="#373B3F" d="M9.1,136.5c0.1,0.4,0.3,0.8,0.4,1.2l0.7-0.3c-0.1-0.4-0.3-0.8-0.4-1.2L9.1,136.5z"/>
				<path fill="#373B3F" d="M186.4,53.3l-0.7,0.4c0.2,0.4,0.4,0.7,0.6,1.1l0.7-0.4C186.8,54.1,186.6,53.7,186.4,53.3z"/>
				<path fill="#373B3F" d="M10.2,139.4c0.2,0.4,0.3,0.8,0.5,1.2l0.7-0.3c-0.2-0.4-0.3-0.8-0.5-1.2L10.2,139.4z"/>
				<path fill="#373B3F" d="M187.9,56.1l-0.7,0.4c0.2,0.4,0.4,0.8,0.6,1.1l0.7-0.3C188.3,56.8,188.1,56.4,187.9,56.1z"/>
				<path fill="#373B3F" d="M187.9,57.8c0.2,0.4,0.4,0.8,0.5,1.2l0.7-0.3c-0.2-0.4-0.3-0.8-0.5-1.2L187.9,57.8z"/>
				<path fill="#373B3F" d="M12.3,141.9l-0.7,0.3c0.2,0.4,0.4,0.8,0.6,1.1l0.7-0.4C12.6,142.7,12.5,142.3,12.3,141.9z"/>
				<path fill="#373B3F" d="M189.1,60.7c0.2,0.4,0.3,0.8,0.4,1.2l0.7-0.3c-0.1-0.4-0.3-0.8-0.5-1.2L189.1,60.7z"/>
				<path fill="#373B3F" d="M13.7,144.7L13,145c0.2,0.4,0.4,0.7,0.7,1.1l0.7-0.4C14.2,145.4,14,145,13.7,144.7z"/>
				<path fill="#373B3F" d="M190.1,63.6c0.1,0.4,0.3,0.8,0.4,1.2l0.7-0.3c-0.1-0.4-0.2-0.8-0.4-1.2L190.1,63.6z"/>
				<path fill="#373B3F" d="M15.4,147.3l-0.7,0.4c0.2,0.4,0.5,0.7,0.7,1.1l0.7-0.4C15.9,148,15.6,147.7,15.4,147.3z"/>
				<path fill="#373B3F" d="M191,66.6c0.1,0.4,0.2,0.8,0.3,1.3l0.8-0.3c-0.1-0.4-0.2-0.9-0.3-1.3L191,66.6z"/>
				<path fill="#373B3F" d="M17.2,149.8l-0.7,0.4c0.3,0.3,0.5,0.7,0.8,1l0.7-0.4C17.8,150.5,17.5,150.2,17.2,149.8z"/>
				<path fill="#373B3F" d="M191.6,69.7c0.1,0.4,0.1,0.9,0.2,1.3l0.8-0.2c-0.1-0.4-0.1-0.9-0.2-1.3L191.6,69.7z"/>
				<path fill="#373B3F" d="M19.2,152.3l-0.7,0.4c0.3,0.3,0.6,0.7,0.9,1l0.7-0.4C19.8,152.9,19.5,152.6,19.2,152.3z"/>
				<path fill="#373B3F" d="M192.1,72.9c0,0.4,0.1,0.9,0.1,1.3L193,74c0-0.4-0.1-0.9-0.1-1.3L192.1,72.9z"/>
				<path fill="#373B3F" d="M21.4,154.6l-0.6,0.5c0.3,0.3,0.6,0.6,1,0.9l0.6-0.5C22.1,155.2,21.7,154.9,21.4,154.6z"/>
				<path fill="#373B3F" d="M192.3,76.1c0,0.4,0,0.9,0,1.3l0.8-0.2c0-0.5,0-0.9,0-1.3L192.3,76.1z"/>
				<path fill="#373B3F" d="M23.8,156.8l-0.6,0.5c0.3,0.3,0.7,0.6,1,0.9l0.6-0.5C24.5,157.4,24.1,157.1,23.8,156.8z"/>
				<path fill="#373B3F" d="M192.4,79.3c0,0.4,0,0.9,0,1.4l0.8-0.2c0-0.5,0-0.9,0-1.4L192.4,79.3z"/>
				<path fill="#373B3F" d="M26.3,158.9l-0.6,0.5c0.4,0.3,0.7,0.6,1.1,0.8l0.6-0.5C27,159.4,26.7,159.1,26.3,158.9z"/>
				<path fill="#373B3F" d="M192.2,82.6c0,0.4-0.1,0.9-0.1,1.4l0.8-0.1c0-0.5,0.1-0.9,0.1-1.4L192.2,82.6z"/>
				<path fill="#373B3F" d="M29,160.8l-0.6,0.5c0.4,0.3,0.8,0.5,1.2,0.8l0.6-0.5C29.8,161.3,29.4,161.1,29,160.8z"/>
				<path fill="#373B3F" d="M191.9,86c-0.1,0.5-0.1,0.9-0.2,1.4l0.8-0.1c0.1-0.5,0.1-0.9,0.2-1.4L191.9,86z"/>
				<path fill="#373B3F" d="M31.8,162.6l-0.6,0.5c0.4,0.2,0.8,0.5,1.2,0.7l0.5-0.5C32.7,163.1,32.2,162.9,31.8,162.6z"/>
				<path fill="#373B3F" d="M191.3,89.3c-0.1,0.5-0.2,0.9-0.3,1.4l0.7-0.1c0.1-0.5,0.2-0.9,0.3-1.4L191.3,89.3z"/>
				<path fill="#373B3F" d="M34.8,164.3l-0.5,0.5c0.4,0.2,0.9,0.4,1.3,0.7l0.5-0.5C35.7,164.7,35.3,164.5,34.8,164.3z"/>
				<path fill="#373B3F" d="M190.6,92.7c-0.1,0.5-0.2,0.9-0.4,1.4l0.7,0c0.1-0.5,0.3-0.9,0.4-1.4L190.6,92.7z"/>
				<path fill="#373B3F" d="M38,165.8l-0.5,0.5c0.4,0.2,0.9,0.4,1.3,0.6l0.5-0.6C38.9,166.2,38.4,166,38,165.8z"/>
				<path fill="#373B3F" d="M189.6,96.1c-0.1,0.5-0.3,0.9-0.4,1.4l0.7,0c0.2-0.5,0.3-0.9,0.4-1.4L189.6,96.1z"/>
				<path fill="#373B3F" d="M41.2,167.2l-0.5,0.6c0.5,0.2,0.9,0.4,1.4,0.5l0.5-0.6C42.1,167.6,41.7,167.4,41.2,167.2z"/>
				<path fill="#373B3F" d="M188.5,99.5c-0.2,0.5-0.3,0.9-0.5,1.4l0.7,0c0.2-0.5,0.4-0.9,0.5-1.4L188.5,99.5z"/>
				<path fill="#373B3F" d="M44.6,168.5l-0.5,0.6c0.5,0.2,1,0.3,1.4,0.5l0.4-0.6C45.6,168.8,45.1,168.6,44.6,168.5z"/>
				<path fill="#373B3F" d="M187.2,102.9c-0.2,0.5-0.4,0.9-0.6,1.4l0.7,0c0.2-0.5,0.4-0.9,0.6-1.4L187.2,102.9z"/>
				<path fill="#373B3F" d="M48.1,169.5l-0.4,0.6c0.5,0.1,1,0.3,1.5,0.4l0.4-0.6C49.1,169.8,48.6,169.7,48.1,169.5z"/>
				<path fill="#373B3F" d="M185.6,106.3c-0.2,0.5-0.4,0.9-0.7,1.4l0.7,0.1c0.2-0.5,0.5-0.9,0.7-1.4L185.6,106.3z"/>
				<path fill="#373B3F" d="M51.7,170.5l-0.4,0.6c0.5,0.1,1,0.2,1.5,0.3l0.4-0.6C52.7,170.7,52.2,170.6,51.7,170.5z"/>
				<path fill="#373B3F" d="M183.9,109.7c-0.2,0.5-0.5,0.9-0.8,1.4l0.7,0.1c0.3-0.5,0.5-0.9,0.8-1.4L183.9,109.7z"/>
				<path fill="#373B3F" d="M55.5,171.3l-0.4,0.6c0.5,0.1,1,0.2,1.6,0.3l0.4-0.6C56.5,171.5,56,171.4,55.5,171.3z"/>
				<path fill="#373B3F" d="M182.1,113c-0.3,0.5-0.5,0.9-0.8,1.4l0.7,0.1c0.3-0.5,0.6-0.9,0.8-1.4L182.1,113z"/>
				<path fill="#373B3F" d="M59.3,171.9l-0.3,0.6c0.5,0.1,1.1,0.2,1.6,0.2l0.3-0.6C60.3,172.1,59.8,172,59.3,171.9z"/>
				<path fill="#373B3F" d="M180,116.4c-0.3,0.5-0.6,0.9-0.9,1.4l0.7,0.2c0.3-0.5,0.6-0.9,0.9-1.4L180,116.4z"/>
				<path fill="#373B3F" d="M63.2,172.4l-0.3,0.6c0.5,0.1,1.1,0.1,1.6,0.2l0.3-0.6C64.2,172.5,63.7,172.5,63.2,172.4z"/>
				<path fill="#373B3F" d="M177.8,119.7c-0.3,0.5-0.6,0.9-1,1.3l0.6,0.2c0.3-0.4,0.7-0.9,1-1.4L177.8,119.7z"/>
				<path fill="#373B3F" d="M67.1,172.7l-0.3,0.6c0.6,0,1.1,0.1,1.7,0.1l0.3-0.6C68.2,172.8,67.7,172.8,67.1,172.7z"/>
				<path fill="#373B3F" d="M175.4,122.9c-0.3,0.4-0.7,0.9-1,1.3l0.6,0.2c0.4-0.4,0.7-0.9,1-1.3L175.4,122.9z"/>
				<path fill="#373B3F" d="M71.2,172.9l-0.2,0.6c0.6,0,1.1,0,1.7,0l0.2-0.6C72.3,172.9,71.7,172.9,71.2,172.9z"/>
				<path fill="#373B3F" d="M172.8,126.1c-0.4,0.4-0.7,0.9-1.1,1.3l0.6,0.2c0.4-0.4,0.7-0.9,1.1-1.3L172.8,126.1z"/>
				<path fill="#373B3F" d="M75.3,172.9l-0.2,0.6c0.6,0,1.1,0,1.7,0l0.2-0.6C76.4,172.9,75.8,172.9,75.3,172.9z"/>
				<path fill="#373B3F" d="M170.1,129.3c-0.4,0.4-0.8,0.9-1.2,1.3l0.6,0.3c0.4-0.4,0.8-0.9,1.2-1.3L170.1,129.3z"/>
				<path fill="#373B3F" d="M79.4,172.8l-0.2,0.6c0.6,0,1.2-0.1,1.7-0.1l0.2-0.6C80.6,172.7,80,172.7,79.4,172.8z"/>
				<path fill="#373B3F" d="M167.3,132.4c-0.4,0.4-0.8,0.8-1.2,1.3l0.5,0.3c0.4-0.4,0.8-0.8,1.2-1.3L167.3,132.4z"/>
				<path fill="#373B3F" d="M83.6,172.5l-0.1,0.6c0.6-0.1,1.2-0.1,1.8-0.2l0.1-0.6C84.8,172.3,84.2,172.4,83.6,172.5z"/>
				<path fill="#373B3F" d="M164.3,135.4c-0.4,0.4-0.9,0.8-1.3,1.2l0.5,0.3c0.4-0.4,0.9-0.8,1.3-1.2L164.3,135.4z"/>
				<path fill="#373B3F" d="M87.8,172l-0.1,0.6c0.6-0.1,1.2-0.2,1.8-0.2l0.1-0.6C89,171.8,88.4,171.9,87.8,172z"/>
				<path fill="#373B3F" d="M161.1,138.3c-0.4,0.4-0.9,0.8-1.3,1.2l0.5,0.3c0.5-0.4,0.9-0.8,1.3-1.2L161.1,138.3z"/>
				<path fill="#373B3F" d="M92.1,171.4L92,172c0.6-0.1,1.2-0.2,1.8-0.3l0-0.6C93.3,171.2,92.7,171.3,92.1,171.4z"/>
				<path fill="#373B3F" d="M157.8,141.2c-0.5,0.4-0.9,0.8-1.4,1.2l0.5,0.4c0.5-0.4,0.9-0.8,1.4-1.2L157.8,141.2z"/>
				<path fill="#373B3F" d="M96.4,170.6l0,0.6c0.6-0.1,1.2-0.2,1.8-0.4l0-0.6C97.5,170.4,97,170.5,96.4,170.6z"/>
				<path fill="#373B3F" d="M154.4,143.9c-0.5,0.4-1,0.7-1.4,1.1l0.4,0.4c0.5-0.4,1-0.7,1.5-1.1L154.4,143.9z"/>
				<path fill="#373B3F" d="M100.7,169.7l0,0.6c0.6-0.1,1.2-0.3,1.8-0.4l0-0.6C101.8,169.4,101.2,169.6,100.7,169.7z"/>
				<path fill="#373B3F" d="M150.9,146.6c-0.5,0.4-1,0.7-1.5,1.1l0.4,0.4c0.5-0.4,1-0.7,1.5-1.1L150.9,146.6z"/>
				<path fill="#373B3F" d="M104.9,168.6l0,0.6c0.6-0.2,1.2-0.3,1.8-0.5l-0.1-0.6C106.1,168.3,105.5,168.5,104.9,168.6z"/>
				<path fill="#373B3F" d="M147.2,149.2c-0.5,0.3-1,0.7-1.5,1l0.4,0.4c0.5-0.3,1-0.7,1.5-1L147.2,149.2z"/>
				<path fill="#373B3F" d="M109.2,167.4l0.1,0.6c0.6-0.2,1.2-0.4,1.8-0.6l-0.1-0.6C110.4,167,109.8,167.2,109.2,167.4z"/>
				<path fill="#373B3F" d="M143.5,151.6c-0.5,0.3-1,0.7-1.6,1l0.3,0.4c0.5-0.3,1.1-0.7,1.6-1L143.5,151.6z"/>
				<path fill="#373B3F" d="M113.5,166l0.1,0.5c0.6-0.2,1.2-0.4,1.8-0.6l-0.1-0.5C114.6,165.6,114,165.8,113.5,166z"/>
				<path fill="#373B3F" d="M139.7,154c-0.5,0.3-1.1,0.6-1.6,0.9l0.3,0.5c0.5-0.3,1.1-0.6,1.6-0.9L139.7,154z"/>
				<path fill="#373B3F" d="M117.7,164.5l0.1,0.5c0.6-0.2,1.2-0.4,1.7-0.7l-0.2-0.5C118.8,164.1,118.3,164.3,117.7,164.5z"/>
				<path fill="#373B3F" d="M135.8,156.2c-0.5,0.3-1.1,0.6-1.6,0.9l0.3,0.5c0.6-0.3,1.1-0.6,1.6-0.9L135.8,156.2z"/>
				<path fill="#373B3F" d="M121.9,162.8l0.2,0.5c0.6-0.2,1.2-0.5,1.7-0.7l-0.2-0.5C123,162.4,122.5,162.6,121.9,162.8z"/>
				<path fill="#373B3F" d="M131.8,158.3c-0.6,0.3-1.1,0.6-1.7,0.8l0.2,0.5c0.6-0.3,1.1-0.6,1.7-0.8L131.8,158.3z"/>
				<path fill="#373B3F" d="M126,161l0.2,0.5c0.6-0.3,1.1-0.5,1.7-0.8l-0.2-0.5C127.1,160.5,126.6,160.8,126,161z"/>
			</g>
		</g>
		<g>
			<polygon fill="#EE3332" points="189.3,21.5 131.2,5.6 156.2,47.3 169.2,33.2 172.1,38.1 170.4,23.7 			"/>
			<polygon fill="#CB2027" points="170,23.5 131.2,5.6 169.2,33.2 172.1,38.1 170.4,23.7 			"/>
			<polygon fill="#961B1E" points="169.2,33.2 167.8,34.8 172.1,38.1 			"/>
		</g>
	</g>
	<path fill="#F26322" d="M187.9,188.3"/>
</g>
</svg>
