<?xml version="1.0" encoding="utf-8"?>
<!-- Generator: Adobe Illustrator 17.1.0, SVG Export Plug-In . SVG Version: 6.00 Build 0)  -->
<!DOCTYPE svg PUBLIC "-//W3C//DTD SVG 1.1//EN" "http://www.w3.org/Graphics/SVG/1.1/DTD/svg11.dtd">
<svg version="1.1" id="Layer_1" xmlns="http://www.w3.org/2000/svg" xmlns:xlink="http://www.w3.org/1999/xlink" x="0px" y="0px"
	 viewBox="0 0 200 200" enable-background="new 0 0 200 200" xml:space="preserve">
<g>
	<g>
		<g>
			<g>
				<g>
					<polyline fill="none" stroke="#E8E8E7" stroke-width="6.1573" stroke-linecap="round" stroke-linejoin="round" points="
						114.8,90.8 127.7,53 145.8,66.4 157.5,32.3 					"/>
					<g>
						<polygon fill="#E8E8E7" points="166.6,38.8 162.5,17.7 146.3,31.8 						"/>
					</g>
				</g>
			</g>
		</g>
	</g>
	<g>
		<polygon fill-rule="evenodd" clip-rule="evenodd" fill="#E0E0E0" points="99.7,90.2 135.9,97.1 172.2,104.1 135.9,111.1 
			99.7,118.1 63.5,111.1 27.2,104.1 63.5,97.1 		"/>
		<polygon fill-rule="evenodd" clip-rule="evenodd" fill="#EFEFEF" points="122.2,75.6 110.9,83 99.6,90.3 135.8,97.2 172.1,104.2 
			183.4,96.9 194.7,89.5 158.4,82.6 		"/>
		<polygon fill-rule="evenodd" clip-rule="evenodd" fill="#EFEFEF" points="70.4,84.2 85.1,87.2 99.7,90.2 63.8,97.2 27.8,104.1 
			13.2,101.1 48.5,100 34.5,91.2 		"/>
		<g>
			<path fill-rule="evenodd" clip-rule="evenodd" fill="#B2B3B3" d="M71.2,69.9c0.4,0.1,0.8,0.3,1.1,0.5l1.3-1.3l1.6,1.6l-1.3,1.3
				c0.2,0.3,0.4,0.7,0.5,1.1h1.9v2.3h-1.9c-0.1,0.4-0.3,0.8-0.5,1.1l1.3,1.3l-1.6,1.6L72.3,78c-0.3,0.2-0.7,0.4-1.1,0.5v1.9h-2.3
				v-1.9c-0.4-0.1-0.8-0.3-1.1-0.5l-1.3,1.3l-1.6-1.6l1.3-1.3c-0.2-0.3-0.4-0.7-0.5-1.1h-1.9v-2.3h1.9c0.1-0.4,0.3-0.8,0.5-1.1
				l-1.3-1.3l1.6-1.6l1.3,1.3c0.3-0.2,0.7-0.4,1.1-0.5V68h2.3V69.9z M70.1,71.9c1.3,0,2.3,1.1,2.2,2.4c-0.1,1.1-1,2-2.1,2.1
				c-1.3,0.1-2.4-0.9-2.4-2.2C67.8,72.9,68.8,71.9,70.1,71.9L70.1,71.9z"/>
			
				<path fill-rule="evenodd" clip-rule="evenodd" fill="#FFFFFF" stroke="#C4C2C2" stroke-width="0.2546" stroke-miterlimit="10" d="
				M70.1,71.1c1.7,0,3.1,1.4,3.1,3.1c0,1.8-1.5,3.2-3.3,3.1c-1.5-0.1-2.8-1.4-2.9-2.9C66.8,72.6,68.3,71.1,70.1,71.1L70.1,71.1z
				 M70.1,72.6c0.9,0,1.6,0.7,1.6,1.6c0,0.9-0.7,1.6-1.7,1.6c-0.8,0-1.5-0.7-1.5-1.5C68.4,73.3,69.2,72.6,70.1,72.6L70.1,72.6z"/>
		</g>
		<g>
			<path fill-rule="evenodd" clip-rule="evenodd" fill="#898989" d="M148.8,71.3c2,0.5,3.9,1.3,5.7,2.4l6.9-6.9l8.2,8.2l-6.9,6.9
				c1.1,1.8,1.8,3.7,2.4,5.7h9.7v11.6H165c-0.5,2-1.3,4-2.4,5.7l6.9,6.9l-8.2,8.2l-6.9-6.9c-1.8,1-3.7,1.8-5.7,2.4v9.7h-11.6v-9.7
				c-2-0.5-3.9-1.3-5.7-2.4l-6.9,6.9l-8.2-8.2l6.8-6.9c-1-1.8-1.8-3.7-2.4-5.7h-9.7V87.6h9.7c0.5-2,1.3-4,2.4-5.7l-6.8-6.9l8.2-8.2
				l6.9,6.9c1.8-1.1,3.7-1.8,5.7-2.4v-9.7h11.6V71.3z M142.9,81.9c6.6,0,11.9,5.6,11.5,12.2c-0.4,5.7-5,10.3-10.7,10.7
				c-6.7,0.4-12.2-4.9-12.2-11.4C131.5,87,136.6,81.9,142.9,81.9L142.9,81.9z"/>
			
				<path fill-rule="evenodd" clip-rule="evenodd" fill="#FFFFFF" stroke="#939090" stroke-width="1.0164" stroke-miterlimit="10" d="
				M142.9,77.3c8.9,0,16.1,7.2,16.1,16.1c0,9.2-7.8,16.7-17.2,16c-7.9-0.5-14.3-7-14.9-14.9C126.3,85.1,133.7,77.3,142.9,77.3
				L142.9,77.3z M142.9,85.2c4.5,0,8.1,3.6,8.1,8.1c0,4.6-3.9,8.3-8.5,8.1c-4.1-0.2-7.5-3.6-7.7-7.7
				C134.6,89.1,138.3,85.2,142.9,85.2L142.9,85.2z"/>
		</g>
		<g>
			<path fill-rule="evenodd" clip-rule="evenodd" fill="#939191" d="M51.7,80.9c1.5,0.2,2.9,0.5,4.2,1.1l4.1-5.5l6.5,4.9l-4.1,5.5
				c0.9,1.1,1.7,2.4,2.2,3.8l6.8-1l1.2,8.1l-6.8,1c-0.2,1.5-0.5,2.9-1.1,4.2l5.5,4.1l-4.9,6.5l-5.5-4.1c-1.1,0.9-2.4,1.7-3.7,2.2
				l1,6.8l-8.1,1.2l-1-6.8c-1.5-0.2-2.9-0.5-4.2-1.1l-4.1,5.5l-6.5-4.9l4.1-5.5c-0.9-1.1-1.7-2.4-2.2-3.7l-6.8,1L27.1,96l6.8-1
				c0.2-1.5,0.5-2.9,1.1-4.2l-5.4-4.1l4.9-6.5l5.5,4.1c1.1-0.9,2.4-1.7,3.7-2.2l-1-6.8l8.1-1.2L51.7,80.9z M48.7,88.8
				c4.6-0.7,8.8,2.7,9.2,7.4c0.3,4-2.5,7.7-6.4,8.5c-4.6,1-9-2.2-9.6-6.7C41.2,93.6,44.3,89.5,48.7,88.8L48.7,88.8z"/>
			
				<path fill-rule="evenodd" clip-rule="evenodd" fill="#FFFFFF" stroke="#939090" stroke-width="1.0164" stroke-miterlimit="10" d="
				M49,88.3c5.2,0,9.4,4.2,9.4,9.4c0,6-5.6,10.6-11.9,9c-3.2-0.8-5.7-3.3-6.5-6.5C38.4,93.9,43,88.3,49,88.3L49,88.3z M49,92.9
				c2.6,0,4.7,2.1,4.7,4.7c0,3-2.8,5.4-6,4.5c-1.6-0.4-2.9-1.7-3.3-3.3C43.6,95.8,46,92.9,49,92.9L49,92.9z"/>
		</g>
		<g>
			<path fill-rule="evenodd" clip-rule="evenodd" fill="#CB2027" d="M97.6,82.1c1.6,0.4,3.1,1,4.4,1.9l5.3-5.3l6.4,6.4l-5.3,5.3
				c0.8,1.4,1.4,2.9,1.9,4.5h7.5v9h-7.5c-0.4,1.6-1,3.1-1.9,4.5l5.3,5.3l-6.4,6.4l-5.3-5.3c-1.4,0.8-2.9,1.4-4.4,1.8v7.5h-9v-7.5
				c-1.6-0.4-3.1-1-4.4-1.8l-5.3,5.3l-6.4-6.4l5.3-5.3c-0.8-1.4-1.4-2.9-1.8-4.5h-7.5v-9h7.5c0.4-1.6,1-3.1,1.8-4.5L72.4,85l6.4-6.4
				l5.3,5.3c1.4-0.8,2.9-1.4,4.4-1.9v-7.5h9V82.1z M93.1,90.4c5.1,0,9.3,4.3,8.9,9.5c-0.3,4.4-3.9,8-8.3,8.3
				c-5.2,0.3-9.5-3.8-9.5-8.9C84.2,94.4,88.2,90.4,93.1,90.4L93.1,90.4z"/>
			
				<path fill-rule="evenodd" clip-rule="evenodd" fill="#FFFFFF" stroke="#CB2027" stroke-width="1.0199" stroke-miterlimit="10" d="
				M92.6,86.5c6.9,0,12.5,5.6,12.5,12.5c0,7.2-6.1,13-13.4,12.5c-6.2-0.4-11.2-5.4-11.6-11.6C79.6,92.6,85.4,86.5,92.6,86.5
				L92.6,86.5z M92.6,92.7c3.5,0,6.3,2.8,6.3,6.3c0,3.6-3,6.5-6.7,6.3c-3.2-0.2-5.8-2.8-6-6C86.1,95.7,89,92.7,92.6,92.7L92.6,92.7z
				"/>
		</g>
		<polygon fill-rule="evenodd" clip-rule="evenodd" fill="#D6D6D6" points="172.2,104.1 99.7,118 99.7,171.3 172.2,157.4 		"/>
		<polygon fill-rule="evenodd" clip-rule="evenodd" fill="#E2E2E2" points="27.2,104.1 99.7,118 99.7,171.3 27.2,157.4 		"/>
		
			<polygon fill-rule="evenodd" clip-rule="evenodd" fill="#EFEFEF" stroke="#D6D6D5" stroke-width="0.3373" stroke-miterlimit="10" points="
			122.2,132.9 110.9,125.4 99.6,118 135.9,111 172.2,104.1 183.5,111.6 194.8,119.1 158.5,126 		"/>
		
			<polygon fill-rule="evenodd" clip-rule="evenodd" fill="#E8E8E8" stroke="#E2E2E1" stroke-width="0.3373" stroke-miterlimit="10" points="
			77.4,133.1 88.7,125.6 100,118 63.7,111 27.4,104 16,111.6 4.7,119.1 41.1,126.1 		"/>
		<g>
			<path fill-rule="evenodd" clip-rule="evenodd" fill="#CB2027" d="M110.7,58.8c0.7,0.2,1.3,0.4,1.8,0.8l2.2-2.2l2.6,2.6l-2.2,2.2
				c0.3,0.6,0.6,1.2,0.8,1.9h3.1v3.7h-3.1c-0.2,0.7-0.4,1.3-0.8,1.8l2.2,2.2l-2.6,2.7l-2.2-2.2c-0.6,0.3-1.2,0.6-1.8,0.8v3.1h-3.8
				V73c-0.7-0.2-1.3-0.4-1.8-0.8l-2.2,2.2l-2.6-2.7l2.2-2.2c-0.3-0.6-0.6-1.2-0.8-1.8h-3.1V64h3.1c0.2-0.7,0.4-1.3,0.8-1.9l-2.2-2.2
				l2.6-2.6l2.2,2.2c0.6-0.3,1.2-0.6,1.8-0.8v-3.1h3.8V58.8z M108.8,62.2c2.1,0,3.8,1.8,3.7,3.9c-0.1,1.8-1.6,3.3-3.5,3.5
				c-2.2,0.1-3.9-1.6-3.9-3.7C105.1,63.9,106.7,62.2,108.8,62.2L108.8,62.2z"/>
			<path fill-rule="evenodd" clip-rule="evenodd" fill="#FFFFFF" stroke="#CB2027" stroke-width="0.423" stroke-miterlimit="10" d="
				M108.6,60.6c2.9,0,5.2,2.3,5.2,5.2c0,3-2.5,5.4-5.6,5.2c-2.6-0.2-4.6-2.2-4.8-4.8C103.2,63.1,105.6,60.6,108.6,60.6L108.6,60.6z
				 M108.6,63.2c1.5,0,2.6,1.2,2.6,2.6c0,1.5-1.2,2.7-2.8,2.6c-1.3-0.1-2.4-1.2-2.5-2.5C105.9,64.4,107.1,63.2,108.6,63.2
				L108.6,63.2z"/>
		</g>
	</g>
</g>
</svg>
