<?xml version="1.0" encoding="utf-8"?>
<!-- Generator: Adobe Illustrator 17.1.0, SVG Export Plug-In . SVG Version: 6.00 Build 0)  -->
<!DOCTYPE svg PUBLIC "-//W3C//DTD SVG 1.1//EN" "http://www.w3.org/Graphics/SVG/1.1/DTD/svg11.dtd">
<svg version="1.1" id="Layer_1" xmlns="http://www.w3.org/2000/svg" xmlns:xlink="http://www.w3.org/1999/xlink" x="0px" y="0px"
	 viewBox="0 0 200 200" enable-background="new 0 0 200 200" xml:space="preserve">
<g id="Key_Word_1_">
	<g id="Blooming_3_">
		<g>
			<path fill="#373B3F" d="M106.8,164.2C106.8,164.2,106.8,164.3,106.8,164.2c0,0.1,0,0.1,0,0.1c0,0,0,0,0,0c0,0,0,0,0,0
				c0,0,0,0,0,0c0,0,0,0,0,0c0,0,0,0,0,0c0.1,0,0.2,0,0.4,0.1C107.1,164.4,106.9,164.3,106.8,164.2
				C106.7,164.3,106.7,164.2,106.8,164.2C106.8,164.2,106.8,164.2,106.8,164.2z"/>
			<path fill="#373B3F" d="M110.4,164.9C110.4,164.9,110.4,164.9,110.4,164.9C110.4,164.9,110.4,164.9,110.4,164.9
				C110.4,164.9,110.4,164.9,110.4,164.9C110.4,164.9,110.4,164.9,110.4,164.9C110.5,164.9,110.5,164.9,110.4,164.9
				C110.5,164.9,110.5,164.9,110.4,164.9C110.5,164.9,110.5,164.9,110.4,164.9c0.1,0,0.1,0,0.1,0c0,0,0,0,0,0c0,0,0,0,0,0
				c0,0,0,0,0,0c0,0,0,0,0,0l0,0c0,0,0,0,0,0l0,0c0.1,0,0.2,0,0.2,0C110.7,164.9,110.5,164.9,110.4,164.9
				C110.3,164.9,110.4,164.9,110.4,164.9C110.4,164.9,110.4,164.9,110.4,164.9z"/>
			<path fill="#373B3F" d="M117,165.1C117,165.1,117,165.1,117,165.1C117,165.1,117,165.1,117,165.1C117,165.1,117,165.2,117,165.1
				C117,165.2,117,165.2,117,165.1C117,165.2,117.1,165.1,117,165.1C117.1,165.1,117.1,165.1,117,165.1c0.1,0,0.1,0,0.1,0
				c0,0,0,0,0,0c0,0,0,0,0,0c0,0,0,0.1,0,0.1c0,0,0,0,0,0c0,0,0,0,0.1,0h0c0,0,0,0,0,0c0,0,0,0,0,0c0,0,0,0,0,0c0,0,0,0,0,0
				c0,0,0,0,0,0c0,0,0,0,0,0c0,0,0,0,0,0c0,0,0,0,0,0c0,0,0,0,0,0c0,0,0,0.3,0,0.3c0,0,0,0,0,0c0,0,0,0,0,0c0,0,0,0,0,0c0,0,0,0,0,0
				c0,0,0-0.1,0-0.1c0,0,0-0.1,0.1-0.1c0,0,0,0,0,0c0,0,0,0,0,0c0,0,0,0,0,0c0,0,0,0,0,0c0,0,0,0,0,0c0,0,0,0,0,0c0,0,0,0,0,0
				c0,0,0.1,0.1,0.1,0.1c-0.3,0-0.6-0.1-0.8-0.1C116.9,165.2,116.9,165.1,117,165.1C117,165.1,117,165.1,117,165.1z"/>
			<path fill="#373B3F" d="M104,163.9C104.1,163.9,104.1,163.9,104,163.9C104.1,163.9,104.1,163.9,104,163.9
				C104.1,163.9,104.1,163.9,104,163.9C104.1,163.9,104.1,163.9,104,163.9C104.1,163.9,104.1,163.9,104,163.9
				C104.1,163.9,104.1,163.9,104,163.9C104.1,163.9,104.1,163.9,104,163.9c0.1,0,0.1,0,0.1,0c0,0,0,0,0,0c0,0,0,0,0,0l0,0
				c0,0,0,0,0,0l0,0c0.2,0,0.3,0.1,0.5,0.1C104.5,163.9,104.2,163.9,104,163.9C104,163.8,104,163.8,104,163.9
				C104,163.9,104,163.9,104,163.9z"/>
			<path fill="#373B3F" d="M100.9,163.1C100.9,163.1,100.9,163.1,100.9,163.1L100.9,163.1C101,163.1,101,163.1,100.9,163.1
				L100.9,163.1C101,163.1,101,163.1,100.9,163.1C101,163.1,101,163.1,100.9,163.1c0.1,0.1,0.1,0.1,0.1,0.1c0,0,0,0,0,0c0,0,0,0,0,0
				c0,0,0,0,0,0c0,0,0,0,0,0c0,0,0,0,0,0c0,0,0,0,0,0c0.1,0,0.1,0,0.2,0c-0.2,0-0.4-0.1-0.6-0.2
				C100.8,163.1,100.8,163.1,100.9,163.1L100.9,163.1z"/>
			<path fill="#373B3F" d="M124.3,165.1c0.3,0,0.5,0,0.8-0.1C124.8,165.1,124.6,165.1,124.3,165.1z"/>
			<path fill="#373B3F" d="M130.8,164.3C130.8,164.3,130.8,164.3,130.8,164.3C130.8,164.3,130.8,164.3,130.8,164.3
				C130.8,164.3,130.8,164.3,130.8,164.3C130.8,164.3,130.8,164.3,130.8,164.3C130.8,164.3,130.8,164.3,130.8,164.3
				C130.8,164.3,130.8,164.3,130.8,164.3C130.8,164.3,130.9,164.3,130.8,164.3c0.1,0,0.1,0,0.1,0l0,0c0,0,0,0,0,0l0,0c0,0,0,0,0,0
				l0,0c0.1,0,0.2,0,0.3,0h0c0,0,0,0,0,0l0,0c0,0,0,0,0,0l0,0c0,0,0,0,0,0h0c0,0,0-0.1,0-0.1c0,0,0,0,0,0c0,0,0,0,0,0c0,0,0,0,0,0
				c0,0,0,0,0,0c0,0,0,0,0,0c0,0,0,0,0,0c0,0,0,0,0,0c0,0,0,0,0,0c0,0,0.1,0,0.1,0C131.2,164.2,131,164.3,130.8,164.3
				C130.7,164.3,130.7,164.3,130.8,164.3C130.8,164.3,130.8,164.3,130.8,164.3z"/>
			<path fill="#373B3F" d="M127.4,164.8C127.4,164.8,127.4,164.8,127.4,164.8C127.4,164.8,127.4,164.8,127.4,164.8
				C127.4,164.8,127.4,164.8,127.4,164.8C127.4,164.8,127.4,164.8,127.4,164.8C127.4,164.8,127.4,164.8,127.4,164.8
				C127.4,164.8,127.4,164.8,127.4,164.8C127.4,164.8,127.5,164.8,127.4,164.8c0.1,0,0.1,0,0.1,0c0,0,0,0,0,0c0,0,0,0,0,0
				c0,0,0,0,0,0c0,0,0,0,0,0c0,0,0,0,0,0c0.1,0,0.2,0,0.2,0c-0.2,0-0.5,0.1-0.7,0.1C127.2,164.8,127.3,164.8,127.4,164.8
				C127.4,164.8,127.4,164.8,127.4,164.8z"/>
			<path fill="#373B3F" d="M134.6,163.7C134.6,163.7,134.6,163.6,134.6,163.7C134.7,163.6,134.7,163.6,134.6,163.7
				C134.7,163.6,134.7,163.6,134.6,163.7c0.1-0.1,0.1-0.1,0.1-0.1c0,0,0,0,0,0c0,0,0,0,0,0c0,0,0,0,0,0c0,0,0,0,0,0c0,0,0,0,0,0
				c0,0,0,0,0,0c0,0,0,0,0,0c0,0,0,0,0,0h0c0.1,0,0.2,0,0.3-0.1c-0.2,0-0.4,0.1-0.6,0.2C134.5,163.6,134.6,163.7,134.6,163.7
				L134.6,163.7z"/>
			<path fill="#373B3F" d="M121.1,165.3C121.1,165.3,121.1,165.3,121.1,165.3C121.1,165.3,121.1,165.3,121.1,165.3
				C121.1,165.3,121.1,165.3,121.1,165.3C121.1,165.3,121.1,165.3,121.1,165.3C121.1,165.3,121.1,165.3,121.1,165.3
				C121.1,165.3,121.1,165.3,121.1,165.3c0.1,0,0.1,0,0.1,0c0,0,0,0,0,0c0,0,0,0,0,0c0,0,0,0,0,0c0,0,0,0,0,0c0,0,0,0,0,0
				c0,0,0,0,0,0c0,0,0,0,0,0c0,0,0,0,0,0c0,0,0,0,0,0c0,0,0,0,0,0c0,0,0,0,0,0h0c0,0,0,0,0,0h0c0,0,0.1,0,0.1,0c-0.2,0-0.4,0-0.6,0
				C120.9,165.3,121,165.3,121.1,165.3C121.1,165.3,121.1,165.3,121.1,165.3z"/>
			<path fill="#373B3F" d="M94,161C94,161,94,161,94,161C94,161,94,161,94,161C94,161,94,161,94,161C94,161,94,161,94,161
				C94,161,94,161,94,161C94,161,94,161,94,161C94,161,94.1,161,94,161c0.1,0,0.1,0,0.1,0c0,0,0,0,0,0c0,0,0,0,0,0c0,0,0,0,0,0
				c0,0,0,0,0,0c0,0,0,0,0,0c0,0,0,0,0,0c0,0,0,0,0,0c0,0,0,0,0,0c0,0,0,0,0,0c0,0,0,0,0,0c0,0,0,0,0,0c0.1,0,0.1,0,0.2,0.1
				c-0.2-0.1-0.5-0.2-0.7-0.3C93.8,160.9,93.9,160.9,94,161C94,161,94,161,94,161z"/>
			<path fill="#373B3F" d="M82,155.3C82,155.3,82,155.3,82,155.3C82,155.3,82,155.3,82,155.3C82,155.3,82,155.3,82,155.3
				C82,155.3,82,155.3,82,155.3C82.1,155.3,82.1,155.3,82,155.3c0.1,0.1,0.2,0.1,0.3,0.1c-0.1-0.1-0.3-0.2-0.4-0.3
				C81.9,155.2,81.9,155.3,82,155.3C82,155.3,82,155.3,82,155.3z"/>
			<path fill="#373B3F" d="M143.7,160.8C143.7,160.8,143.7,160.7,143.7,160.8C143.8,160.7,143.8,160.7,143.7,160.8
				C143.8,160.7,143.8,160.8,143.7,160.8C143.8,160.8,143.8,160.8,143.7,160.8C143.8,160.8,143.8,160.8,143.7,160.8
				C143.8,160.8,143.8,160.8,143.7,160.8C143.8,160.8,143.8,160.8,143.7,160.8c0.1,0,0.1,0,0.1,0c0,0,0,0,0,0c0,0,0,0,0.1,0
				c0,0,0,0,0,0c0,0,0,0,0,0c0,0,0,0,0,0c0,0,0,0,0,0c0,0,0,0,0,0c0,0,0,0,0,0c0,0,0,0,0,0c0,0,0,0,0,0c0,0,0,0,0,0l0,0c0,0,0,0,0,0
				l0,0c0,0,0,0,0,0l0,0c0,0,0,0,0,0l0,0c0,0,0,0,0,0h0c0,0,0,0,0,0l0.1,0c0,0,0.1,0,0.1,0v0c0,0,0.1-0.1,0.3-0.1
				C144.3,160.6,144,160.7,143.7,160.8C143.8,160.8,143.7,160.8,143.7,160.8C143.7,160.8,143.7,160.8,143.7,160.8z"/>
			<path fill="#373B3F" d="M88.1,158.5C88.1,158.5,88.1,158.5,88.1,158.5C88.1,158.5,88.1,158.5,88.1,158.5
				C88.1,158.5,88.1,158.5,88.1,158.5C88.1,158.5,88.1,158.5,88.1,158.5C88.1,158.6,88.1,158.6,88.1,158.5
				C88.2,158.6,88.2,158.6,88.1,158.5C88.2,158.6,88.2,158.6,88.1,158.5C88.2,158.6,88.2,158.6,88.1,158.5c0.1,0,0.1,0,0.1,0.1
				c0,0,0,0,0,0c0,0,0,0,0,0c0,0,0,0,0,0c0,0,0,0,0,0c0,0,0,0,0,0c0,0,0,0,0,0c0,0,0,0,0,0c0,0,0,0,0,0c0,0,0,0,0,0c0,0,0,0,0,0
				c0,0,0,0,0,0c0,0,0,0,0,0c0,0,0,0,0,0c0,0,0,0,0,0c0,0,0,0,0,0c0,0,0,0,0,0c0,0,0,0,0,0c0,0,0,0,0,0c0,0,0,0,0,0c0,0,0,0,0,0
				c0,0,0,0,0,0c0,0,0,0,0,0c0,0,0,0,0,0c0,0,0,0,0,0c0,0,0,0,0,0c0,0,0,0,0,0c0,0,0,0,0,0c0,0,0,0,0,0c0,0,0,0,0,0
				c0,0,0.1,0,0.1,0.1C88.4,158.7,88.2,158.6,88.1,158.5C88,158.5,88.1,158.5,88.1,158.5C88.1,158.5,88.1,158.5,88.1,158.5z"/>
			<path fill="#373B3F" d="M159.1,152.9C159.2,152.9,159.2,152.9,159.1,152.9L159.1,152.9C159.2,152.9,159.2,152.9,159.1,152.9
				C159.2,152.8,159.2,152.8,159.1,152.9C159.2,152.8,159.2,152.8,159.1,152.9C159.2,152.8,159.2,152.8,159.1,152.9
				C159.2,152.8,159.2,152.8,159.1,152.9C159.2,152.8,159.2,152.8,159.1,152.9c0.1-0.1,0.1-0.1,0.1-0.1c0,0,0,0,0,0c0,0,0,0,0,0
				c0,0,0,0,0,0c0,0,0,0,0,0c0,0,0,0,0,0c0,0,0,0,0,0c0,0,0,0,0,0c0,0,0,0,0,0c-0.2,0.1-0.3,0.2-0.5,0.3
				C159,153,159.1,152.9,159.1,152.9C159.1,152.9,159.1,152.9,159.1,152.9z"/>
			<path fill="#373B3F" d="M169.7,144.1C169.7,144.1,169.7,144.1,169.7,144.1C169.8,144.1,169.8,144.1,169.7,144.1
				C169.8,144.1,169.8,144.1,169.7,144.1C169.8,144.1,169.8,144.1,169.7,144.1L169.7,144.1c0.1-0.1,0.2-0.2,0.3-0.3
				c-0.1,0.1-0.3,0.3-0.4,0.4C169.7,144.2,169.7,144.1,169.7,144.1C169.7,144.1,169.7,144.1,169.7,144.1z"/>
			<path fill="#373B3F" d="M155.8,155C155.8,155,155.8,155,155.8,155C155.8,155,155.8,155,155.8,155C155.8,155,155.8,155,155.8,155
				C155.8,155,155.8,155,155.8,155C155.9,155,155.9,155,155.8,155C155.9,155,155.9,155,155.8,155C155.9,155,155.9,155,155.8,155
				c0.1-0.1,0.1-0.1,0.1-0.1c0,0,0,0,0,0c0,0,0,0,0,0c0,0,0,0,0,0c0,0,0,0,0,0c0,0,0,0,0,0c0,0,0,0,0,0c0,0,0,0,0,0c0,0,0,0,0,0
				c0,0,0,0,0,0c0,0,0,0,0,0c0,0,0,0,0,0c0,0,0,0,0,0c0,0,0,0,0,0c0,0,0,0,0,0c0,0,0,0,0,0c0,0,0,0,0,0c0,0,0,0,0,0c0,0,0,0,0,0
				c0,0,0,0,0,0c0,0,0,0,0,0c0,0,0,0,0,0c0,0,0,0,0,0c0,0,0,0,0,0c0.1,0,0.1-0.1,0.2-0.1c-0.2,0.1-0.5,0.3-0.7,0.4
				C155.7,155.1,155.8,155,155.8,155C155.8,155,155.8,155,155.8,155z"/>
			<path fill="#373B3F" d="M188.8,71.6C188.8,71.6,188.8,71.6,188.8,71.6C188.8,71.6,188.8,71.6,188.8,71.6
				C188.8,71.6,188.8,71.6,188.8,71.6C188.8,71.5,188.8,71.5,188.8,71.6C188.8,71.5,188.8,71.5,188.8,71.6
				C188.8,71.5,188.8,71.5,188.8,71.6c0-0.1,0-0.1,0-0.1c0,0,0,0,0,0c0,0,0,0,0,0v0c0,0,0-0.1,0-0.1c0.1,0.2,0.1,0.4,0.2,0.6
				C188.8,71.9,188.8,71.7,188.8,71.6C188.8,71.6,188.8,71.6,188.8,71.6z"/>
			<path fill="#373B3F" d="M182.3,55.7C182.3,55.6,182.3,55.6,182.3,55.7c0,0.1,0.1,0.2,0.2,0.4C182.4,55.9,182.4,55.8,182.3,55.7
				L182.3,55.7z"/>
			<path fill="#373B3F" d="M186.7,65.1c-0.1-0.2-0.1-0.3-0.2-0.5C186.6,64.8,186.6,65,186.7,65.1z"/>
			<path fill="#373B3F" d="M191.3,99C191.3,99,191.2,99,191.3,99c-0.1,0-0.1,0-0.1,0c0,0,0,0,0,0C191.1,99,191.2,98.9,191.3,99
				C191.2,98.9,191.3,98.9,191.3,99C191.3,98.9,191.3,98.9,191.3,99c0-0.1-0.1-0.1-0.1-0.1c0,0,0,0,0,0c0,0,0,0,0,0c0,0,0,0,0,0
				c0,0,0,0,0,0c0,0,0,0,0,0c0,0,0,0,0,0c0,0,0.1,0,0.1,0c0,0,0.1,0,0.1,0c0,0,0,0,0,0c0,0-0.1,0-0.1-0.1c0,0,0,0,0,0c0,0,0,0,0,0
				c0,0,0,0,0,0c0,0,0,0,0,0c0,0,0,0,0,0c0,0,0,0,0,0c0,0,0,0,0,0c0,0,0,0,0,0c0,0,0,0,0,0c0,0,0,0,0,0c0,0,0,0,0,0c0,0,0,0,0,0
				c0,0,0,0,0,0c0,0,0,0,0,0c0,0,0,0,0,0c0,0,0,0,0,0c0,0,0,0,0,0c0,0,0,0,0,0c0,0,0-0.1,0-0.1l0.1,0c0,0,0.1,0,0.1,0v0
				c0,0-0.1,0-0.1,0l0,0c0,0,0,0,0,0v0c0,0,0,0,0,0v0c0,0-0.1-0.1-0.1-0.1C191.2,98.5,191.2,98.8,191.3,99
				C191.2,99,191.3,99,191.3,99C191.3,99,191.3,99,191.3,99z"/>
			<path fill="#373B3F" d="M185.2,121.5C185.2,121.5,185.2,121.5,185.2,121.5C185.2,121.5,185.2,121.5,185.2,121.5
				C185.2,121.5,185.2,121.5,185.2,121.5C185.2,121.5,185.2,121.5,185.2,121.5C185.2,121.5,185.2,121.5,185.2,121.5
				C185.2,121.5,185.2,121.5,185.2,121.5C185.2,121.4,185.2,121.4,185.2,121.5c0-0.1,0-0.1,0-0.1c0,0,0,0,0,0c0,0,0,0,0,0
				c0,0,0,0,0,0c0,0,0,0,0,0c0,0,0,0,0,0c0,0,0,0,0,0c0,0,0,0,0,0c0-0.1,0.1-0.2,0.1-0.3c-0.1,0.2-0.2,0.4-0.3,0.6
				C185.1,121.6,185.2,121.6,185.2,121.5C185.2,121.5,185.2,121.5,185.2,121.5z"/>
			<path fill="#373B3F" d="M189.4,108.9C189.4,108.9,189.4,108.9,189.4,108.9C189.4,108.9,189.4,108.9,189.4,108.9
				C189.4,108.9,189.4,108.9,189.4,108.9C189.4,108.9,189.4,108.9,189.4,108.9C189.4,108.8,189.4,108.8,189.4,108.9
				C189.4,108.8,189.4,108.8,189.4,108.9C189.4,108.8,189.4,108.8,189.4,108.9c0-0.1,0-0.1,0-0.1c0,0,0,0,0,0c0,0,0,0,0,0
				c0,0,0,0,0,0c0,0,0,0,0,0l0,0c0-0.1,0.1-0.3,0.1-0.4C189.5,108.6,189.4,108.8,189.4,108.9C189.4,109,189.4,108.9,189.4,108.9
				C189.4,108.9,189.4,108.9,189.4,108.9z"/>
			<path fill="#373B3F" d="M173.8,139.7C173.8,139.7,173.8,139.7,173.8,139.7C173.8,139.7,173.8,139.7,173.8,139.7
				C173.8,139.7,173.8,139.7,173.8,139.7C173.8,139.7,173.8,139.6,173.8,139.7C173.9,139.6,173.9,139.6,173.8,139.7
				C173.9,139.6,173.9,139.6,173.8,139.7C173.9,139.6,173.9,139.6,173.8,139.7C173.9,139.6,173.9,139.6,173.8,139.7
				C173.9,139.6,173.9,139.6,173.8,139.7c0.1-0.1,0.1-0.2,0.2-0.2c-0.1,0.1-0.2,0.2-0.3,0.3C173.7,139.8,173.8,139.7,173.8,139.7
				C173.8,139.7,173.8,139.7,173.8,139.7z"/>
			<path fill="#373B3F" d="M150.3,158.1c0,0,0.1-0.1,0.1-0.1c0,0,0,0,0,0c0,0,0,0,0,0c0,0,0,0,0,0c0,0,0,0,0,0c0,0,0,0,0,0
				c0,0,0,0,0,0c0,0,0,0,0,0c0,0,0,0,0,0c0,0,0,0,0,0c0,0,0,0,0,0c0,0,0,0,0,0c0,0,0,0,0,0c0,0,0,0,0,0c0,0,0,0,0,0c0,0,0,0,0,0
				c0,0,0,0,0,0c0,0,0,0,0,0c0,0,0,0,0,0c0,0,0,0,0,0c0,0,0,0,0,0c0,0,0,0,0,0c0,0,0,0,0,0c0,0,0,0,0,0c0,0,0,0,0,0c0,0,0,0,0,0
				c0,0,0,0,0,0c0,0,0,0,0,0c0,0,0,0,0,0c0.1,0,0.2,0,0.2-0.1C150.7,157.9,150.5,158.1,150.3,158.1L150.3,158.1
				C150.2,158.1,150.3,158.1,150.3,158.1z"/>
			<path fill="#373B3F" d="M147.1,159.5C147.1,159.5,147.1,159.5,147.1,159.5C147.1,159.5,147.1,159.5,147.1,159.5
				C147.1,159.5,147.1,159.5,147.1,159.5C147.1,159.5,147.1,159.5,147.1,159.5C147.1,159.5,147.1,159.5,147.1,159.5
				C147.1,159.5,147.1,159.5,147.1,159.5C147.1,159.5,147.2,159.5,147.1,159.5c0.1,0,0.1,0,0.1,0c0,0,0,0,0,0c0,0,0,0,0,0
				c0,0,0,0,0,0c0,0,0,0,0,0c0,0,0,0,0,0c0,0,0,0,0,0c0,0,0,0,0,0c0,0,0,0,0,0c0,0,0,0,0,0c0,0,0,0,0,0c0,0,0,0,0,0c0,0,0,0,0,0
				c0,0,0,0,0,0c0,0,0,0,0,0c0,0,0,0,0,0c0,0,0,0,0,0l0,0c0,0,0,0,0,0l0,0.1c0,0,0,0.1,0,0.1h0c0.1-0.4,0.3-0.2,0.4-0.3
				C147.5,159.4,147.3,159.5,147.1,159.5C147,159.6,147,159.5,147.1,159.5C147.1,159.5,147.1,159.5,147.1,159.5z"/>
			<path fill="#373B3F" d="M179.2,50.5l0.4-0.3c-0.3-0.5-0.6-1-1-1.4l-0.4,0.3c0.1,0.1,0.1,0.2,0.2,0.3c0,0,0,0,0,0c0,0,0,0,0,0
				c0,0,0,0,0,0c0,0,0,0,0,0c0,0,0,0,0,0c0,0,0,0,0,0c0,0,0,0,0,0c0,0,0,0,0,0c0,0,0,0,0,0c0,0,0,0,0,0c0,0,0,0,0,0c0,0,0,0,0,0
				c0,0,0,0,0,0c0,0,0,0,0,0c0,0,0,0.1,0.1,0.1c0.2,0.3,0.4,0.5,0.5,0.8C179.2,50.5,179.2,50.5,179.2,50.5z"/>
			<path fill="#373B3F" d="M186.7,65.1c0,0.1,0,0.2,0.1,0.4c0,0.1,0.1,0.2,0.1,0.3v0l0.5-0.2c-0.2-0.5-0.4-1.1-0.6-1.6l-0.5,0.2
				c0,0,0,0.1,0.1,0.1c0,0.1,0.1,0.2,0.1,0.4C186.6,64.8,186.6,65,186.7,65.1z"/>
			<path fill="#373B3F" d="M181,53.4l0.4-0.3c-0.3-0.5-0.6-1-0.9-1.5l-0.4,0.3c0,0,0,0.1,0.1,0.1C180.5,52.5,180.7,52.9,181,53.4
				C181,53.4,181,53.4,181,53.4z"/>
			<path fill="#373B3F" d="M182.3,55.7L182.3,55.7c0.1,0.1,0.1,0.2,0.2,0.4c0.1,0.1,0.1,0.2,0.2,0.3c0,0,0,0,0,0.1l0.4-0.2
				c-0.3-0.5-0.5-1-0.8-1.5l-0.4,0.3c0.1,0.1,0.1,0.2,0.2,0.3C182.1,55.4,182.2,55.5,182.3,55.7C182.3,55.6,182.3,55.6,182.3,55.7z"
				/>
			<path fill="#373B3F" d="M191.4,88.3h-0.1c0,0,0-0.2,0-0.2c0,0,0,0,0,0c0,0,0,0.1,0,0.1c0,0,0,0,0,0c0,0,0.1,0,0.1,0c0,0,0,0,0,0
				c0,0,0,0,0,0C191.4,88.2,191.3,88.2,191.4,88.3c-0.1-0.1-0.1-0.1-0.1-0.1c0,0,0,0,0,0c0,0,0,0,0,0
				C191.3,88.3,191.3,88.3,191.4,88.3C191.3,88.3,191.4,88.3,191.4,88.3C191.4,88.3,191.3,88.3,191.4,88.3c-0.1,0-0.1,0-0.1,0
				c0,0,0,0,0,0c0,0,0,0,0,0c0,0,0,0,0,0v0c0,0,0,0.1,0,0.1v0c0,0,0,0,0,0v0c0,0,0,0,0,0v0c0,0,0,0,0,0v0c0,0,0,0,0,0v0c0,0,0,0,0,0
				v0c0,0.1,0,0.1,0,0.2v0c0,0,0,0,0,0v0c0,0,0,0,0,0v0c0,0.1,0.1,0.3,0.1,0.4l0.5,0c0-0.6,0-1.2-0.1-1.7l-0.5,0c0,0,0,0.1,0,0.1
				c0,0,0,0.2,0,0.2C191.4,88,191.4,88.3,191.4,88.3z"/>
			<path fill="#373B3F" d="M191.2,85.8l0.5,0c0-0.6-0.1-1.2-0.1-1.7l-0.5,0.1c0,0,0.1,0,0.1,0c0,0,0.1,0.1,0.1,0.1c0,0,0,0,0,0
				c0,0-0.1,0-0.1,0c0,0,0,0,0,0c0,0,0,0,0,0c0,0,0.1,0,0.1,0c0,0,0.1,0,0.1,0c0,0,0,0,0,0c0,0-0.1,0-0.1,0c0,0,0,0,0,0c0,0,0,0,0,0
				c0,0,0,0,0,0c0,0,0,0,0,0c0,0,0.1,0,0.1,0c0,0,0.1,0,0.1,0c0,0,0,0,0,0c0,0-0.1,0-0.1,0c0,0,0,0,0,0c0,0,0,0.1,0,0.1c0,0,0,0,0,0
				c0,0-0.1,0-0.1,0c0,0,0,0,0,0c0,0,0,0,0,0c0,0,0.1,0,0.1,0c0,0,0.1,0,0.1,0c0,0,0,0,0,0c0,0-0.1,0-0.1,0c0,0,0,0,0,0c0,0,0,0,0,0
				c0,0,0,0,0,0c0,0-0.1,0.1-0.1,0.1C191.2,85.1,191.2,85.5,191.2,85.8C191.3,85.8,191.2,85.8,191.2,85.8z"/>
			<path fill="#373B3F" d="M188.7,71.5L188.7,71.5C188.7,71.5,188.7,71.5,188.7,71.5C188.7,71.5,188.6,71.5,188.7,71.5
				c-0.1,0-0.2,0-0.2,0.1c0,0,0,0,0,0C188.5,71.5,188.6,71.5,188.7,71.5C188.6,71.5,188.7,71.5,188.7,71.5c0,0.1,0,0.1,0,0.1
				c0,0,0,0,0,0c0,0,0,0,0,0c0,0,0,0,0,0c0,0.1,0.1,0.3,0.1,0.4c0,0.1,0,0.2,0.1,0.3c0,0,0,0.1,0,0.1l0.5-0.1
				c-0.1-0.6-0.3-1.1-0.5-1.7l-0.5,0.1c0,0.1,0.1,0.2,0.1,0.4C188.6,71.2,188.7,71.3,188.7,71.5C188.7,71.4,188.7,71.4,188.7,71.5z"
				/>
			<path fill="#373B3F" d="M185.7,62.6l0.5-0.2c-0.2-0.5-0.5-1.1-0.7-1.6L185,61c0,0,0,0,0,0c0,0,0,0,0,0c0,0,0,0,0,0c0,0,0,0,0,0
				c0,0,0,0,0,0c0,0,0,0,0,0c0,0,0,0,0,0c0,0,0,0,0,0c0,0,0,0,0,0c0,0,0,0,0,0c0,0,0,0,0,0c0.2,0.4,0.4,0.9,0.6,1.3
				C185.6,62.5,185.6,62.6,185.7,62.6z"/>
			<path fill="#373B3F" d="M188,69l0.5-0.2c-0.2-0.5-0.4-1.1-0.5-1.6l-0.5,0.2c0,0,0,0.1,0,0.1c0.2,0.5,0.3,0.9,0.5,1.4
				C188,69,188,69,188,69z"/>
			<path fill="#373B3F" d="M190.9,81.3C190.9,81.3,190.9,81.3,190.9,81.3C190.9,81.3,190.8,81.3,190.9,81.3
				C190.8,81.3,190.8,81.3,190.9,81.3C190.8,81.3,190.8,81.3,190.9,81.3C190.8,81.3,190.8,81.3,190.9,81.3
				C190.8,81.3,190.9,81.4,190.9,81.3C190.9,81.4,190.9,81.4,190.9,81.3c0,0.1-0.1,0.1-0.1,0.1c0,0,0,0,0,0c0,0,0,0,0,0c0,0,0,0,0,0
				c0,0,0,0,0,0c0,0,0,0,0,0c0,0,0,0,0,0c0,0,0,0,0,0c0,0,0,0,0,0c0,0,0,0.1,0,0.1v0c0,0,0,0,0,0v0c0,0,0,0,0,0v0c0,0,0,0,0,0v0
				c0,0,0,0,0,0l0,0c0,0,0,0,0,0v0c0,0.1,0,0.2,0,0.2l0,0c0,0,0,0,0,0l0,0c0,0,0,0,0,0v0c0,0,0,0,0,0c0,0,0,0,0,0c0,0,0,0,0,0
				c0,0,0,0,0,0c0,0,0,0,0,0c0,0,0,0,0,0c0,0,0,0,0,0c0,0,0,0,0,0c0,0,0,0,0,0c0,0,0,0,0,0c0,0,0,0,0,0c0,0,0,0,0,0.1c0,0,0,0,0,0
				c0,0,0,0,0,0c0,0,0,0,0,0c0,0,0,0,0,0c0,0,0,0,0,0c0,0,0,0,0,0c0,0,0,0,0,0c0,0,0,0,0,0c0,0,0,0,0,0c0,0,0,0,0,0.1l0.5-0.1
				c-0.1-0.6-0.1-1.1-0.2-1.7l-0.5,0.1c0,0.1,0,0.2,0.1,0.4C190.7,81.1,190.8,81.2,190.9,81.3C190.8,81.2,190.9,81.3,190.9,81.3z"/>
			<path fill="#373B3F" d="M190.4,79l0.5-0.1c-0.1-0.6-0.2-1.1-0.3-1.7l-0.5,0.1c0,0,0,0,0,0.1c0.1,0.5,0.2,1,0.3,1.5
				C190.4,78.9,190.4,79,190.4,79z"/>
			<path fill="#373B3F" d="M177.9,134.5l0.4,0.3c0.3-0.5,0.7-0.9,1-1.4l-0.4-0.3c0,0.1-0.1,0.1-0.1,0.2c0,0,0,0,0,0c0,0,0,0,0,0
				c0,0,0,0,0,0c0,0,0,0,0,0c0,0,0,0,0,0l0,0c0,0,0,0,0,0c0,0,0,0,0,0c0,0,0,0,0,0l0,0c0,0,0,0,0,0l0,0c0,0,0,0,0,0l0,0c0,0,0,0,0,0
				l0,0c0,0,0,0,0,0l0,0c0,0,0,0,0,0l0,0c0,0,0,0,0,0h0.1c0,0,0,0,0,0v0c0,0-0.1,0-0.1,0C178.4,133.8,178.2,134.1,177.9,134.5
				C177.9,134.4,177.9,134.4,177.9,134.5z"/>
			<path fill="#373B3F" d="M124.3,165.1c-0.1,0-0.2,0-0.3,0c-0.2,0-0.3,0-0.5,0l0,0.5c0.6,0,1.1,0,1.7-0.1l0-0.5c0,0,0,0,0,0
				c0,0-0.1,0-0.1,0C124.8,165.1,124.6,165.1,124.3,165.1z"/>
			<path fill="#373B3F" d="M131.4,164.2C131.4,164.2,131.4,164.2,131.4,164.2C131.4,164.2,131.4,164.2,131.4,164.2
				C131.4,164.2,131.4,164.2,131.4,164.2C131.4,164.2,131.4,164.2,131.4,164.2C131.4,164.2,131.4,164.2,131.4,164.2
				C131.4,164.2,131.4,164.2,131.4,164.2C131.3,164.2,131.3,164.2,131.4,164.2C131.3,164.2,131.3,164.2,131.4,164.2
				c-0.1,0-0.1,0-0.1,0l0,0c0,0,0,0,0,0h0c0,0,0,0,0,0l0,0c0,0,0,0,0,0h0c-0.1,0-0.2,0-0.3,0l0,0c0,0,0,0,0,0l0,0.2c0,0,0,0.2,0,0.2
				h0c0,0,0-0.2,0-0.2c0,0,0-0.1,0-0.1c0,0,0-0.1,0,0c0,0,0,0,0,0c0,0,0,0,0,0c0,0,0,0,0,0c0,0,0,0,0,0c0,0,0,0,0,0c0,0,0,0,0,0
				c0,0,0,0-0.1,0c0,0-0.1,0-0.1,0c-0.1,0-0.2,0-0.3,0.1l0.1,0.5c0.6-0.1,1.1-0.2,1.7-0.3l-0.1-0.5v0c-0.1,0-0.2,0-0.3,0.1
				C131.6,164.2,131.5,164.2,131.4,164.2C131.5,164.2,131.4,164.2,131.4,164.2z"/>
			<path fill="#373B3F" d="M171.4,142.4l0.4,0.4c0.4-0.4,0.8-0.8,1.2-1.3l-0.4-0.3c0,0,0,0,0,0C172.2,141.5,171.8,141.9,171.4,142.4
				C171.4,142.3,171.4,142.4,171.4,142.4z"/>
			<path fill="#373B3F" d="M183.3,125.4C183.3,125.4,183.3,125.4,183.3,125.4C183.3,125.4,183.3,125.4,183.3,125.4
				C183.3,125.4,183.3,125.4,183.3,125.4C183.3,125.4,183.3,125.4,183.3,125.4C183.3,125.5,183.3,125.5,183.3,125.4
				C183.3,125.5,183.3,125.5,183.3,125.4C183.3,125.5,183.3,125.5,183.3,125.4c0,0.1-0.2,0.1-0.2,0.1c0,0-0.2,0-0.2,0v0
				c0,0.1,0.1,0.1,0.1,0.2l0.5,0.2c0.3-0.5,0.6-1,0.8-1.5l-0.4-0.2c0,0,0,0,0,0.1C183.7,124.6,183.6,124.9,183.3,125.4
				C183.4,125.3,183.4,125.4,183.3,125.4z"/>
			<path fill="#373B3F" d="M175.9,137.1C175.9,137.2,175.9,137.2,175.9,137.1l0.3,0.4c0.4-0.5,0.7-0.9,1-1.4l-0.4-0.3
				c0,0,0,0.1-0.1,0.1C176.5,136.3,176.2,136.7,175.9,137.1C175.9,137.1,175.9,137.1,175.9,137.1z"/>
			<path fill="#373B3F" d="M147.4,159.5L147.4,159.5C147.4,159.5,147.4,159.4,147.4,159.5l0-0.1c0,0,0,0,0,0l0,0c0,0,0,0,0,0
				c0,0,0,0,0,0c0,0,0,0,0,0c0,0,0,0,0,0c0,0,0,0,0,0c0,0,0,0,0,0c0,0,0,0,0,0c0,0,0,0,0,0c0,0,0,0,0,0c0,0,0,0,0,0c0,0,0,0,0,0
				c0,0,0,0,0,0c0,0,0,0,0,0c0,0,0,0,0,0c0,0,0,0,0,0c0,0,0,0,0,0c0,0,0,0,0,0c0,0,0,0,0,0c0,0,0,0,0,0c0,0,0,0,0,0c0,0,0,0,0,0
				c0,0,0,0,0,0c0,0,0,0,0,0c0,0,0,0,0,0c0,0,0,0,0,0c0,0,0,0-0.1,0c0,0,0,0,0,0c0,0,0,0,0,0c0,0,0,0,0,0c0,0,0,0,0,0c0,0,0,0,0,0
				c0,0,0,0,0,0c0,0,0,0,0,0c0,0,0,0,0,0c0,0,0,0,0,0c0,0,0,0,0,0c0,0,0,0,0,0c0,0,0,0,0,0c0,0,0,0,0,0c0,0,0,0,0,0c0,0,0,0,0,0
				c0,0,0,0,0,0c0,0,0,0,0,0c0,0,0,0,0,0c0,0,0,0,0,0c0,0,0,0,0,0c0,0,0,0,0,0c0,0,0,0,0,0c0,0,0,0,0,0c0,0,0,0,0,0c0,0,0,0,0,0
				c0,0,0,0,0,0c0,0,0,0,0,0c0,0,0,0,0,0c0,0,0,0,0,0c0,0,0,0,0,0c0,0,0,0,0,0c0,0,0,0,0,0c0,0,0,0,0,0l0,0c0,0-0.1,0-0.1,0l0.2,0.5
				c0.5-0.2,1-0.4,1.6-0.7l-0.2-0.5c0,0-0.1,0.1-0.1,0.1h0c0,0-0.1,0-0.1,0c0,0,0,0.1,0,0.1C147.7,159.3,147.6,159.1,147.4,159.5z"
				/>
			<path fill="#373B3F" d="M181.8,128.2C181.8,128.2,181.8,128.2,181.8,128.2C181.8,128.2,181.8,128.2,181.8,128.2
				C181.8,128.2,181.8,128.2,181.8,128.2C181.8,128.2,181.8,128.2,181.8,128.2C181.8,128.2,181.8,128.3,181.8,128.2
				C181.8,128.3,181.8,128.3,181.8,128.2C181.8,128.3,181.8,128.3,181.8,128.2C181.8,128.3,181.8,128.3,181.8,128.2
				C181.8,128.3,181.8,128.3,181.8,128.2c-0.1,0.1-0.1,0.1-0.1,0.1c0,0,0,0,0,0c0,0,0,0,0,0c0,0,0,0,0,0c0,0,0,0,0,0c0,0,0,0,0,0
				c0,0,0,0,0,0c0,0,0,0,0,0c0,0,0,0,0,0c0,0,0,0,0,0c0,0,0,0,0,0c0,0,0,0,0,0c0,0,0,0,0,0c0,0,0,0,0,0c0,0,0,0,0,0c0,0,0,0,0,0
				c0,0,0,0,0,0c0,0,0,0,0,0c0,0,0,0,0,0c0,0,0,0,0,0c0,0,0,0,0,0c0,0,0,0,0,0c0,0,0,0,0,0c0,0,0,0,0,0c0,0,0,0,0,0c0,0,0,0,0,0
				c0,0,0,0,0,0c0,0,0,0,0,0c0,0,0,0,0,0c0,0,0,0,0,0c0,0,0,0,0,0c0,0-0.1,0-0.1,0c0,0-0.1,0-0.1,0c0,0,0,0,0,0l0.5,0.3
				c0.3-0.5,0.6-1,0.9-1.5l-0.4-0.2c0,0,0,0.1-0.1,0.1c-0.1,0.3-0.3,0.5-0.4,0.8C181.9,128.1,181.9,128.2,181.8,128.2z"/>
			<path fill="#373B3F" d="M179.8,131.6l0.4,0.3c0.3-0.5,0.6-1,0.9-1.5l-0.4-0.3c0,0-0.1,0.1-0.1,0.1l0,0c0,0,0,0,0,0l0,0
				c0,0,0,0,0,0c0,0,0,0,0,0c0,0,0,0,0,0c0,0,0,0,0,0c0,0,0,0,0,0c0,0,0,0,0,0c0,0,0,0,0,0c0,0,0,0,0,0c0,0,0,0,0,0c0,0,0,0,0,0
				c0,0,0,0,0,0c0,0,0,0,0,0c0,0,0,0,0,0c0,0,0,0,0,0c-0.2,0.3-0.4,0.7-0.6,1C179.8,131.5,179.8,131.6,179.8,131.6z"/>
			<path fill="#373B3F" d="M134.8,163.5L134.8,163.5C134.8,163.5,134.8,163.5,134.8,163.5C134.8,163.5,134.8,163.5,134.8,163.5
				C134.8,163.5,134.8,163.5,134.8,163.5C134.7,163.5,134.7,163.5,134.8,163.5C134.7,163.5,134.7,163.5,134.8,163.5
				C134.7,163.5,134.7,163.5,134.8,163.5c-0.1,0-0.1,0-0.1,0c0,0,0,0,0,0c0,0,0,0,0,0c0,0,0,0,0,0c0,0,0,0.1,0,0.1c0,0,0,0.1,0,0.1
				h0c-0.1,0-0.1,0-0.2,0c-0.2,0-0.4,0.1-0.7,0.1c-0.1,0-0.2,0-0.2,0c0,0,0,0,0,0l0.1,0.5c0.6-0.1,1.1-0.2,1.7-0.4l-0.1-0.5
				c0,0-0.1,0-0.1,0c0,0-0.1,0-0.1,0C135,163.5,134.9,163.5,134.8,163.5z"/>
			<path fill="#373B3F" d="M144.2,160.6L144.2,160.6C144.2,160.6,144.2,160.7,144.2,160.6L144.2,160.6
				C144.2,160.7,144.1,160.7,144.2,160.6L144.2,160.6c-0.1,0.1-0.1,0.1-0.1,0.1h0c0,0,0,0,0,0l0,0c0,0,0,0,0,0h0c0,0,0,0,0,0h0
				c0,0,0,0,0,0c0,0,0,0,0,0c0,0,0,0,0,0c0,0,0,0,0,0c0,0,0,0,0,0c0,0,0,0,0,0c0,0,0,0,0,0c0,0,0,0,0,0c0,0,0,0,0,0c0,0,0,0-0.1,0
				c0,0,0,0,0,0c0,0,0,0,0,0c0,0,0,0,0,0c0,0,0,0,0,0c0,0,0,0.1,0,0.1c0,0-0.1,0-0.1,0c0,0-0.1,0-0.1,0v-0.1c0,0,0.2,0,0.2,0h0
				c0,0,0,0.1,0,0.1c0,0,0,0,0,0c-0.1,0-0.2,0.1-0.3,0.1l0.2,0.5c0.5-0.2,1.1-0.4,1.6-0.6l-0.2-0.5c-0.1,0-0.1,0.1-0.2,0.1
				c0,0,0,0,0,0c0,0,0,0,0,0c0,0,0,0,0,0c0,0,0,0,0,0c0,0,0,0,0,0c0,0,0,0,0,0c0,0,0,0,0,0c0,0,0,0,0,0c0,0,0,0,0,0c0,0,0,0,0,0
				c0,0,0,0,0,0c0,0,0,0,0,0c0,0,0,0,0,0c0,0,0,0.1,0,0.1c0,0,0,0.1,0,0.1h0c0,0,0-0.1,0-0.1C144.4,160.7,144.3,160.6,144.2,160.6z"
				/>
			<path fill="#373B3F" d="M127.5,164.8C127.5,164.8,127.5,164.8,127.5,164.8C127.5,164.8,127.5,164.8,127.5,164.8
				C127.5,164.8,127.5,164.8,127.5,164.8C127.5,164.8,127.5,164.8,127.5,164.8C127.5,164.8,127.5,164.8,127.5,164.8
				C127.5,164.8,127.5,164.8,127.5,164.8C127.5,164.8,127.4,164.8,127.5,164.8c-0.1,0-0.1,0-0.1,0c0,0,0,0,0,0c0,0,0,0,0,0
				c0,0,0,0,0,0c0,0,0,0,0,0c0,0,0,0,0,0c0,0,0,0,0,0c-0.1,0-0.2,0.1-0.3,0.1c0,0-0.1,0-0.1,0c0,0-0.1,0-0.1,0l0.1,0.5
				c0.6-0.1,1.1-0.1,1.7-0.2l-0.1-0.5c-0.1,0-0.1,0-0.2,0c0,0,0,0,0,0c0,0,0,0,0,0c0,0,0,0,0,0c0,0,0,0,0,0c0,0,0,0,0,0c0,0,0,0,0,0
				c0,0,0,0,0,0c0,0,0,0,0,0c-0.1,0-0.1,0-0.2,0c-0.1,0-0.2,0-0.3,0C127.7,164.8,127.6,164.8,127.5,164.8z"/>
			<path fill="#373B3F" d="M153.2,156.5L153.2,156.5C153.2,156.5,153.1,156.5,153.2,156.5C153.1,156.5,153.1,156.6,153.2,156.5
				C153.1,156.6,153.1,156.6,153.2,156.5C153.1,156.6,153.1,156.6,153.2,156.5C153.1,156.6,153.1,156.6,153.2,156.5
				C153.1,156.6,153.1,156.6,153.2,156.5C153.1,156.6,153.1,156.6,153.2,156.5c-0.1,0.1-0.1,0.1-0.1,0.1c0,0,0,0,0,0c0,0,0,0,0,0
				c0,0,0,0,0,0c0,0,0,0,0,0c0,0,0,0,0,0c0,0,0,0,0,0c0,0,0,0,0,0c0,0,0,0,0,0c0,0,0,0,0,0c0,0,0,0,0,0c0,0,0,0,0,0
				c-0.1,0-0.2,0.1-0.3,0.1l0.2,0.4c0.5-0.3,1-0.6,1.5-0.8l-0.2-0.5c0,0-0.1,0-0.1,0.1C153.7,156.2,153.5,156.4,153.2,156.5
				C153.2,156.5,153.2,156.5,153.2,156.5z"/>
			<path fill="#373B3F" d="M110.6,164.7L110.6,164.7C110.6,164.7,110.6,164.7,110.6,164.7L110.6,164.7
				C110.6,164.7,110.6,164.8,110.6,164.7c-0.1,0.1-0.1,0.1-0.1,0.1c0,0,0,0,0,0c0,0,0,0,0,0c0,0,0,0,0,0c0,0,0-0.1,0-0.1
				c0,0,0-0.1,0-0.1c0,0,0,0,0,0c0,0,0,0.1,0,0.1c0,0,0,0,0,0c0,0,0-0.1,0-0.1c0,0,0-0.1,0-0.1c0,0,0,0,0,0c0,0,0,0.1-0.1,0.1
				c0,0,0,0-0.1,0c-0.1,0-0.2,0-0.3,0l-0.1,0.5c0.6,0.1,1.1,0.1,1.7,0.2l0-0.5c-0.1,0-0.1,0-0.2,0c-0.2,0-0.4-0.1-0.6-0.1
				C110.8,164.8,110.7,164.7,110.6,164.7z"/>
			<path fill="#373B3F" d="M106.9,164.4C106.9,164.4,106.9,164.4,106.9,164.4C106.9,164.4,106.9,164.4,106.9,164.4
				C106.8,164.4,106.8,164.4,106.9,164.4C106.8,164.4,106.8,164.4,106.9,164.4C106.8,164.4,106.8,164.4,106.9,164.4
				C106.8,164.4,106.8,164.3,106.9,164.4c-0.1,0-0.1,0-0.1,0c0,0,0,0,0,0c0,0-0.1,0-0.1,0c0,0,0,0,0,0c0,0,0,0,0,0l-0.1,0.5
				c0.6,0.1,1.1,0.2,1.7,0.3l0.1-0.4c-0.1,0-0.3,0-0.4,0c0,0,0,0,0,0c0,0,0-0.1,0-0.1c0,0,0,0,0,0c0,0,0,0,0,0c0,0,0,0,0,0
				c0,0,0,0,0,0c0,0,0,0,0,0c0,0,0,0,0,0c0,0,0,0,0,0l0,0.1c0,0,0,0.1,0,0.1h0c0,0-0.1-0.1-0.1-0.1c-0.1,0-0.3-0.1-0.4-0.1
				C107.1,164.5,107,164.4,106.9,164.4z"/>
			<path fill="#373B3F" d="M104.2,164.3L104.2,164.3c0,0,0-0.2,0-0.2l0-0.1c0,0,0-0.1,0-0.1c0,0,0,0,0,0c0,0,0,0,0,0c0,0,0,0,0,0
				c0,0,0,0,0,0c0,0,0,0,0,0c0,0,0,0,0,0c0,0,0,0,0,0c0,0,0,0,0,0c0,0,0,0,0,0c0,0,0,0,0,0c0,0,0,0,0,0c0,0-0.1,0-0.1,0
				c-0.2,0-0.4-0.1-0.6-0.1l-0.1,0.5c0.6,0.1,1.1,0.2,1.7,0.3l0.1-0.5c0,0,0,0,0,0c-0.1,0-0.2,0.2-0.2,0.2
				C104.5,164.2,104.4,164.3,104.2,164.3z"/>
			<polygon fill="#373B3F" points="151.1,157.6 151.1,157.6 151.1,157.6 			"/>
			<path fill="#373B3F" d="M161.5,151.2C161.5,151.2,161.5,151.2,161.5,151.2C161.5,151.2,161.5,151.1,161.5,151.2
				C161.5,151.1,161.5,151.1,161.5,151.2c-0.1-0.1-0.2,0.1-0.3,0.2l0.3,0.4c0.5-0.3,0.9-0.7,1.4-1l-0.3-0.4c0,0,0,0,0,0c0,0,0,0,0,0
				c0,0,0,0,0,0c0,0,0,0,0,0c0,0,0,0,0,0c0,0,0,0,0,0c0,0,0,0,0,0c0,0,0,0,0,0c0,0,0,0,0,0c0,0,0,0,0,0c0,0,0,0,0,0c0,0,0,0,0,0
				c0,0,0,0,0,0c0,0,0,0,0,0c0,0,0,0,0,0c0,0,0,0,0,0c0,0,0,0,0,0c0,0,0,0,0,0c0,0,0,0,0,0c0,0,0,0,0,0c0,0,0,0,0,0c0,0,0,0,0,0
				c0,0,0,0,0,0c0,0,0,0,0,0c0,0,0,0,0,0c0,0,0,0,0,0c0,0,0,0,0,0c0,0,0,0,0,0c0,0,0,0,0,0c0,0,0,0,0,0c0,0,0,0,0,0c0,0,0,0,0,0
				c0,0,0,0,0,0c0,0,0,0,0,0c0,0,0,0,0,0c0,0,0,0,0,0c0,0,0,0,0,0c0,0,0,0,0,0c0,0,0,0,0,0c0,0,0,0,0,0c0,0,0,0,0,0c0,0,0,0,0,0
				c0,0,0,0,0,0c0,0,0,0,0,0c0,0,0,0-0.1,0l0-0.1c0,0,0,0,0,0h0c0,0.3,0,0.1,0,0.1l0,0c0,0,0,0,0,0l-0.3,0c0,0-0.3,0-0.3,0v0
				c0,0,0.3,0,0.3,0l0.2,0c0,0,0.1,0,0.1,0l0,0c0,0,0,0,0,0l0.1,0c0,0,0.1,0,0.1,0v0c0,0-0.1,0-0.1,0l-0.1,0c0,0,0,0-0.1,0l0,0
				c0,0,0,0,0,0l0,0c0,0,0,0,0,0l0,0c0,0,0,0,0,0l0,0c0,0,0,0,0,0l0,0c0,0,0,0,0,0l0,0c0,0,0,0,0,0l0,0c0,0,0,0,0,0l0,0c0,0,0,0,0,0
				l0,0C161.6,151.1,161.6,151.1,161.5,151.2C161.6,151.1,161.6,151.1,161.5,151.2C161.6,151.1,161.6,151.1,161.5,151.2
				C161.6,151.1,161.6,151.2,161.5,151.2C161.6,151.2,161.6,151.2,161.5,151.2C161.6,151.2,161.6,151.2,161.5,151.2
				C161.5,151.2,161.5,151.2,161.5,151.2C161.5,151.2,161.5,151.2,161.5,151.2C161.5,151.2,161.5,151.2,161.5,151.2
				C161.5,151.2,161.5,151.2,161.5,151.2C161.5,151.2,161.5,151.2,161.5,151.2C161.5,151.2,161.5,151.2,161.5,151.2z"/>
			<path fill="#373B3F" d="M164.1,149.2C164.1,149.2,164.1,149.2,164.1,149.2C164.1,149.2,164.1,149.2,164.1,149.2
				c-0.1,0.1-0.1,0.1-0.2,0.1l0.3,0.4c0.4-0.4,0.9-0.7,1.3-1.1l-0.3-0.4c-0.1,0.1-0.2,0.2-0.3,0.2l0,0c0,0,0,0,0,0l0,0c0,0,0,0,0,0
				l0,0c0,0,0,0,0,0c0,0,0,0,0,0c0,0,0,0,0,0c0,0,0,0,0,0c0,0,0,0,0,0c0,0,0,0,0,0c0,0,0,0,0,0c0,0,0,0,0,0c0,0,0,0,0,0c0,0,0,0,0,0
				c0,0,0,0,0,0c-0.1,0.1-0.2,0.1-0.2,0.2C164.4,148.9,164.3,149,164.1,149.2C164.2,149.1,164.1,149.2,164.1,149.2z"/>
			<path fill="#373B3F" d="M121.4,165.1L121.4,165.1C121.4,165.1,121.3,165.1,121.4,165.1L121.4,165.1
				C121.3,165.1,121.3,165.1,121.4,165.1C121.3,165.1,121.3,165.1,121.4,165.1C121.3,165.1,121.3,165.1,121.4,165.1
				C121.3,165.1,121.3,165.1,121.4,165.1c-0.1,0-0.1,0-0.1,0c0,0,0,0,0,0c0,0,0,0,0,0c0,0,0,0,0,0c0,0,0,0.1,0,0.1c0,0,0,0,0,0
				c0,0,0,0,0,0c0,0,0,0,0,0c0,0,0-0.1,0-0.1c0,0,0-0.1,0-0.1c0,0,0,0,0,0c0,0,0,0,0,0c0,0,0,0,0,0c0,0,0,0,0,0c0,0,0,0,0,0
				c-0.1,0-0.2,0.1-0.3,0.1c-0.2,0-0.3,0.1-0.5,0.1c-0.1,0-0.1,0-0.2,0l0,0.5c0.6,0,1.1,0,1.7,0l0-0.5c-0.1,0-0.2,0-0.3,0
				C121.5,165.3,121.5,165.2,121.4,165.1C121.4,165.2,121.4,165.1,121.4,165.1z"/>
			<path fill="#373B3F" d="M117.6,165.1C117.6,165.1,117.6,165.1,117.6,165.1C117.6,165.1,117.5,165.1,117.6,165.1
				C117.5,165.1,117.5,165.1,117.6,165.1C117.5,165.1,117.5,165.1,117.6,165.1C117.5,165.1,117.5,165.1,117.6,165.1
				C117.5,165.1,117.5,165.1,117.6,165.1C117.5,165.1,117.5,165.1,117.6,165.1c-0.1,0-0.1,0-0.1,0c0,0,0,0,0,0c0,0,0,0,0,0
				c0,0,0,0,0,0c0,0,0,0,0,0c0,0,0,0,0,0c0,0,0,0,0,0c0,0,0,0,0,0c0,0,0,0,0,0c0,0,0,0,0,0c0,0,0,0,0,0c0,0,0,0,0,0c0,0,0,0,0,0
				c0,0,0,0,0,0c0,0,0,0,0,0c0,0,0,0,0,0h0c0,0,0,0.1-0.1,0.1c0,0,0,0,0,0c0,0,0,0,0,0c0,0,0,0,0,0c0,0,0,0,0,0c0,0,0-0.1,0-0.1
				c0,0,0-0.1,0-0.1c0,0,0,0,0,0c0,0,0,0,0,0c0,0,0,0,0,0c0,0,0,0,0,0c0,0,0,0,0,0c0,0,0,0,0,0c-0.1,0-0.1,0.1-0.2,0.1c0,0,0,0,0,0
				c0,0,0,0,0,0l0,0.5c0.6,0,1.1,0,1.7,0l0-0.5c-0.1,0-0.3,0-0.4,0c-0.1,0-0.2-0.1-0.4-0.1C117.6,165.2,117.6,165.1,117.6,165.1z"/>
			<path fill="#373B3F" d="M167.1,146.6C167.1,146.6,167.1,146.6,167.1,146.6C167.1,146.6,167.1,146.6,167.1,146.6
				C167.1,146.6,167.1,146.6,167.1,146.6C167.1,146.6,167.1,146.6,167.1,146.6C167.1,146.6,167.1,146.6,167.1,146.6
				C167.1,146.6,167.1,146.6,167.1,146.6C167.1,146.6,167.1,146.6,167.1,146.6C167.1,146.6,167.1,146.6,167.1,146.6
				C167.1,146.7,167.1,146.7,167.1,146.6C167.1,146.7,167.1,146.7,167.1,146.6c-0.1,0.1-0.1,0.1-0.1,0.1c0,0,0,0,0,0c0,0,0,0,0,0
				c0,0,0,0,0,0c0,0,0,0,0,0c0,0,0,0,0,0c0,0,0,0,0,0c0,0,0,0,0,0c0,0,0,0,0,0c0,0,0,0,0,0c0,0,0,0,0,0c0,0,0,0,0,0c0,0,0,0,0,0
				c0,0,0,0,0,0c0,0,0,0,0,0c0,0,0,0,0,0c0,0,0,0,0,0c0,0,0,0,0,0c0,0,0,0,0,0c0,0,0,0,0,0c0,0,0,0,0,0c0,0,0,0,0,0c0,0,0,0,0,0
				c0,0,0,0,0,0c0,0,0,0,0,0c0,0,0,0,0,0c0,0,0,0,0,0c0,0,0,0,0,0c0,0,0,0,0,0c0,0,0,0,0,0c0,0,0,0,0,0c0,0,0,0,0,0c0,0,0,0,0,0
				c0,0,0,0,0,0c0,0,0,0,0,0c0,0,0,0,0,0c0,0,0,0,0,0c0,0,0,0,0,0c0,0,0,0,0,0c0,0,0,0,0,0c0,0,0,0,0,0c0,0,0,0,0,0c0,0,0,0,0,0
				c0,0,0,0,0,0c0,0,0,0,0,0c0,0,0,0,0,0c0,0,0,0,0,0c0,0,0,0,0,0c0,0,0,0,0,0l0.3,0.4c0.4-0.4,0.9-0.8,1.3-1.2l-0.3-0.4
				c0,0-0.1,0.1-0.1,0.1c-0.1,0.1-0.2,0.2-0.3,0.3C167.3,146.4,167.2,146.5,167.1,146.6z"/>
			<path fill="#373B3F" d="M187.4,115.9L187.4,115.9C187.4,115.9,187.4,116,187.4,115.9L187.4,115.9
				C187.4,116,187.4,116,187.4,115.9C187.4,116,187.3,116,187.4,115.9C187.3,116,187.3,116,187.4,115.9
				C187.3,116,187.3,116,187.4,115.9c0,0.1,0,0.1,0,0.1c0,0,0,0,0,0c0,0,0,0,0,0c0,0,0,0,0,0c0,0,0,0,0,0c0,0,0,0,0,0c0,0,0,0,0,0
				c0,0,0,0,0,0c0,0,0,0,0,0c0,0,0,0,0,0c0,0,0,0,0,0c0,0,0,0,0,0c0,0,0,0,0,0c0,0,0,0,0,0c0,0,0,0,0,0c0,0,0,0,0,0c0,0,0,0,0,0
				c0,0,0,0,0,0c0,0,0,0,0,0l0.4,0.2c0.2-0.5,0.4-1.1,0.5-1.6l-0.5-0.2c0,0.1,0,0.1-0.1,0.2c-0.1,0.3-0.2,0.7-0.3,1
				C187.4,115.9,187.4,115.9,187.4,115.9z"/>
			<path fill="#373B3F" d="M189.5,108.7L189.5,108.7C189.5,108.7,189.5,108.8,189.5,108.7C189.4,108.8,189.4,108.8,189.5,108.7
				C189.4,108.8,189.4,108.8,189.5,108.7C189.4,108.8,189.4,108.8,189.5,108.7C189.4,108.8,189.4,108.8,189.5,108.7
				C189.4,108.8,189.4,108.8,189.5,108.7c0,0.1,0,0.1,0,0.1c0,0,0,0,0,0c0,0,0,0,0,0c0,0,0,0,0,0c0,0,0,0,0,0c0,0,0,0,0,0
				c0,0,0,0,0,0c0,0,0,0.1,0,0.1c0,0.1,0,0.2-0.1,0.3c0,0.1-0.1,0.3-0.1,0.4l0.5,0.1c0.1-0.6,0.3-1.1,0.4-1.7l-0.5-0.1
				c0,0,0,0.1,0,0.1c0,0.1,0,0.2-0.1,0.2C189.5,108.5,189.5,108.6,189.5,108.7z"/>
			<path fill="#373B3F" d="M190.2,105.1L190.2,105.1c0,0,0.3,0,0.3,0v0c0,0-0.1,0-0.1,0L190.2,105.1
				C190.3,105.2,190.2,105.2,190.2,105.1l0,0.1c0,0,0,0,0,0c0,0,0,0,0,0c0,0,0,0,0,0c0,0,0,0,0,0c0,0,0,0,0,0l0.2,0c0,0,0.1,0,0.1,0
				v0c0,0-0.3,0.2-0.3,0.2h0c0,0,0,0,0,0l0,0c0,0,0,0,0,0c0,0,0,0,0,0c0,0,0,0,0,0c0,0,0,0,0,0c0,0,0,0,0,0c0,0,0,0,0,0c0,0,0,0,0,0
				c0,0,0,0,0,0c0,0,0,0,0,0c0,0,0,0,0,0c0,0,0,0,0,0c0,0,0,0,0,0c0,0,0,0,0,0c0,0,0,0,0,0c0,0,0,0,0,0l0.2,0c0,0,0.2,0,0.2,0v0
				c0,0.2-0.3,0.4-0.3,0.7l0.4,0.1c0.1-0.6,0.2-1.1,0.3-1.7l-0.5-0.1C190.3,104.8,190.2,105.1,190.2,105.1z"/>
			<path fill="#373B3F" d="M85.6,157.3C85.6,157.3,85.6,157.3,85.6,157.3C85.6,157.3,85.6,157.3,85.6,157.3
				C85.6,157.3,85.6,157.3,85.6,157.3C85.6,157.3,85.6,157.3,85.6,157.3C85.5,157.3,85.5,157.3,85.6,157.3
				C85.5,157.3,85.5,157.3,85.6,157.3C85.5,157.3,85.5,157.3,85.6,157.3c-0.1,0-0.1-0.1-0.1-0.1c0,0,0,0,0,0c0,0,0,0,0,0
				c0,0,0,0,0,0c0,0,0,0,0,0c0,0,0,0,0,0c0,0,0,0,0,0c0,0,0,0,0,0c0,0,0,0,0,0c0,0,0,0,0,0c0,0,0,0,0,0c0,0,0,0,0,0c0,0,0,0,0,0
				c0,0,0,0,0,0c0,0,0,0,0,0c0,0,0,0,0,0c0,0,0,0,0,0c0,0,0,0,0,0c0,0,0,0,0,0c0,0,0,0,0,0c0,0,0,0,0,0c0,0,0,0,0,0c0,0,0,0,0,0
				c0,0,0,0,0,0c0,0,0,0,0,0c0,0,0,0,0,0c0,0,0,0,0,0c0,0,0,0,0,0c0,0,0,0,0,0c0,0,0,0,0,0c0,0,0,0,0,0c0,0,0,0,0,0l0,0c0,0,0,0,0,0
				c0,0,0,0,0,0c0,0,0,0,0,0c0,0,0,0,0,0c0,0,0,0,0,0c0,0,0,0,0,0c0,0,0,0,0,0c0,0,0,0,0,0c0,0,0,0,0,0c0,0,0,0,0,0c0,0,0,0,0,0
				c0,0,0,0,0,0c0,0,0,0,0,0c0,0,0,0,0,0c0,0,0,0,0,0c0,0,0,0,0,0c0,0,0,0,0,0c0,0,0,0,0,0c0,0,0,0,0,0c0,0,0,0,0,0c0,0,0,0,0,0
				c0,0,0,0,0,0c0,0,0,0,0,0c0,0,0,0,0,0c0,0,0,0,0,0c0,0,0,0,0,0c0,0,0,0,0,0c0,0,0,0,0,0c0,0,0,0,0,0c0,0,0,0,0,0c0,0,0,0,0,0
				c0,0,0,0,0,0c0,0,0,0,0,0c0,0,0,0,0,0c0,0,0,0,0,0c0,0,0,0,0,0c0,0,0,0,0,0c0,0,0,0,0,0c0,0,0,0,0,0c-0.1-0.1-0.2-0.1-0.3-0.2
				l-0.2,0.5c0.5,0.3,1,0.5,1.5,0.8l0.2-0.5C85.8,157.4,85.7,157.3,85.6,157.3L85.6,157.3z"/>
			<path fill="#373B3F" d="M185.4,121.3C185.4,121.3,185.4,121.3,185.4,121.3C185.4,121.3,185.3,121.4,185.4,121.3
				C185.3,121.4,185.3,121.4,185.4,121.3c-0.1,0-0.1,0-0.1,0c0,0,0,0,0,0c0,0,0,0,0,0c0,0,0,0,0,0c0,0,0,0,0,0c0,0,0,0,0,0
				c0,0,0,0,0,0c0,0,0,0,0,0c0,0,0,0,0,0c0,0,0,0,0,0c0,0,0,0,0,0c0,0,0,0,0,0c0,0,0,0,0,0c0,0,0,0.1-0.1,0.1
				c-0.1,0.3-0.2,0.5-0.4,0.8c0,0.1,0,0.1-0.1,0.2l0.5,0.2c0.2-0.5,0.5-1.1,0.7-1.6l-0.5-0.2v0c0,0,0,0,0,0c0,0,0,0,0,0
				C185.4,121.2,185.4,121.3,185.4,121.3z"/>
			<path fill="#373B3F" d="M191.3,92.7l0.6,0c0-0.4,0.1-0.8,0.1-1.2c0-0.2,0-0.3,0-0.5l-0.6,0c0,0.1-0.1,0.2-0.1,0.4c0,0,0,0,0,0
				c0,0,0,0,0,0c0,0,0,0,0,0c0,0,0,0,0,0c0,0,0,0,0,0c0,0,0,0,0,0c0,0,0,0,0,0c0,0,0,0,0,0c0,0,0,0,0,0c0,0,0,0,0,0c0,0,0,0,0,0
				c0,0,0,0,0,0c0,0,0,0,0,0c0,0,0,0,0,0c0,0,0,0,0,0c0,0,0,0,0,0c0,0,0,0,0,0c0,0,0,0,0,0c0,0,0,0,0,0c0,0,0,0,0,0c0,0,0,0,0,0
				c0,0,0,0,0,0c0,0,0,0,0,0c0,0,0,0,0,0c0,0,0,0,0,0.1c0,0,0,0,0,0c0,0,0,0,0,0c0,0,0,0,0,0c0,0,0,0,0,0h0.1c0,0,0,0.2,0,0.3
				c0,0.1-0.1,0.2-0.1,0.3C191.3,92.6,191.3,92.7,191.3,92.7C191.3,92.7,191.3,92.7,191.3,92.7z"/>
			<path fill="#373B3F" d="M189.6,74.8C189.6,74.8,189.6,74.8,189.6,74.8C189.6,74.8,189.6,74.8,189.6,74.8
				C189.6,74.8,189.6,74.8,189.6,74.8C189.6,74.8,189.6,74.8,189.6,74.8C189.6,74.8,189.6,74.8,189.6,74.8
				C189.6,74.8,189.6,74.8,189.6,74.8c0,0.1,0,0.1,0,0.1c0,0,0,0,0,0c0,0,0.1,0,0.1,0v0c0,0.3,0.1,0.5,0.1,0.8l0.5-0.1
				c-0.1-0.6-0.3-1.1-0.4-1.7l-0.5,0.1C189.5,74.2,189.5,74.5,189.6,74.8z"/>
			<path fill="#373B3F" d="M191.3,98.2L191.3,98.2C191.3,98.2,191.3,98.3,191.3,98.2L191.3,98.2C191.3,98.3,191.2,98.3,191.3,98.2
				L191.3,98.2c-0.1,0.1-0.1,0.1-0.1,0.1L191.3,98.2c-0.1,0.1,0,0.1,0,0.1v0c0,0-0.1,0.1-0.1,0.1c0,0,0,0,0,0c0,0,0,0,0,0
				c0,0,0,0,0,0c0,0,0,0,0,0c0,0,0,0,0,0c0,0,0,0,0,0c0,0,0,0,0,0c0,0,0,0,0,0c0,0,0,0,0,0c0,0,0,0,0,0c0,0,0,0,0,0c0,0,0,0,0,0
				c0,0,0,0,0,0c0,0,0,0,0,0c0,0,0,0,0,0c0,0,0.1,0,0.1,0c0,0,0.1,0,0.1,0c0,0,0,0,0,0c0,0,0,0,0,0.1c0,0,0,0,0,0c0,0-0.1,0-0.1,0
				c0,0,0,0,0,0c0,0,0,0,0,0c0,0,0,0,0,0c0,0,0,0,0,0c0,0,0,0,0,0c0,0,0,0,0,0c0,0,0,0,0,0c0,0,0,0,0,0c0,0,0,0,0,0c0,0,0,0,0,0
				c0,0,0,0,0,0c0,0,0,0,0,0c0,0,0,0,0,0c0,0,0,0,0,0c0,0,0.1,0,0.1,0c0,0,0.1,0,0.1,0c0,0,0,0,0,0c0,0-0.1,0-0.1,0c0,0,0,0,0,0
				c0,0,0,0,0,0c0,0,0,0,0,0c0,0,0,0,0,0c0,0,0,0,0,0c0,0,0,0,0,0c0,0,0,0,0,0c0,0,0,0,0,0c0,0,0,0,0,0c0,0,0,0,0,0c0,0,0,0,0,0
				c0,0,0,0,0,0c0,0,0,0,0,0c0,0,0,0,0,0c0,0,0,0,0,0c0,0,0,0,0,0c0,0.1,0,0.2,0,0.2l0.5,0.1c0.1-0.6,0.1-1.1,0.2-1.7l-0.5,0
				c0,0.1,0,0.2,0,0.2C191.2,98.1,191.2,98.1,191.3,98.2C191.2,98.2,191.3,98.2,191.3,98.2z"/>
			<path fill="#373B3F" d="M183.8,58.5C183.8,58.5,183.8,58.5,183.8,58.5L183.8,58.5C183.8,58.5,183.8,58.5,183.8,58.5L183.8,58.5
				C183.8,58.5,183.8,58.5,183.8,58.5C183.8,58.5,183.8,58.5,183.8,58.5C183.8,58.5,183.8,58.6,183.8,58.5c0,0.1,0,0.1,0.1,0.1
				c0,0,0,0,0,0c0,0,0,0,0,0c0,0,0,0,0,0l0,0c0,0,0,0,0,0l0,0c0,0,0,0,0,0l0,0c0,0,0,0,0,0l0,0c0,0,0,0,0,0l0,0c0,0,0,0,0,0l0.1,0
				c0,0,0.1,0,0.1,0v0c0,0.2,0.1,0.5,0.2,0.7l0.4-0.2c-0.2-0.5-0.5-1-0.8-1.5l-0.5,0.2C183.6,58.1,183.7,58.3,183.8,58.5L183.8,58.5
				z"/>
			<path fill="#373B3F" d="M156.2,154.7C156.2,154.7,156.2,154.7,156.2,154.7C156.1,154.7,156.1,154.7,156.2,154.7L156.2,154.7
				C156.1,154.7,156.1,154.8,156.2,154.7C156.1,154.8,156.1,154.8,156.2,154.7c-0.1,0.1-0.1,0.1-0.1,0.1c0,0,0,0,0,0c0,0,0,0,0,0
				c0,0,0,0,0,0c0,0,0,0,0,0c0,0,0,0,0,0c0,0,0,0,0,0c0,0,0,0,0,0c0,0,0,0,0,0c0,0,0,0,0,0c0,0,0,0,0,0c0,0,0,0,0,0c0,0,0,0,0,0
				c0,0,0,0,0,0c0,0,0,0,0,0c0,0,0,0,0,0c0,0,0,0,0,0c0,0,0,0,0,0c0,0,0,0,0,0c0,0,0,0,0,0c0,0,0,0,0,0c0,0,0,0,0,0c0,0,0,0,0,0
				c0,0,0,0,0,0c0,0,0,0,0,0c0,0,0,0,0,0c0,0,0,0,0,0c0,0-0.1,0-0.1,0.1c0,0,0,0,0,0c0,0,0,0-0.1,0l0.3,0.4c0.5-0.3,1-0.6,1.5-0.9
				l-0.3-0.4c0,0-0.1,0-0.1,0.1l0,0c0,0,0,0,0,0c0,0,0,0,0,0c0,0,0,0,0,0c0,0,0,0,0,0c0,0,0,0,0,0c0,0,0,0,0,0c0,0,0,0,0,0
				c0,0,0,0,0,0c0,0,0,0,0,0c0,0,0,0,0,0c0,0,0,0,0,0c0,0,0,0,0,0c0,0,0,0,0,0c0,0,0,0,0,0c0,0,0,0,0,0c0,0,0,0,0,0c0,0,0,0,0,0
				c0,0,0,0,0,0c0,0,0,0,0,0c0,0,0,0,0,0c0,0,0,0,0,0c0,0,0,0,0,0c0,0,0,0,0,0c0,0,0,0,0,0c0,0,0,0,0,0c0,0,0,0,0,0c0,0,0,0,0,0
				c0,0,0,0,0,0c0,0,0,0,0,0c0,0,0,0,0,0c0,0,0,0,0,0c0,0,0,0,0,0c0,0,0,0.1,0,0.1c0,0,0,0.1,0,0.1h0c0,0,0,0,0,0c0,0,0-0.1,0,0
				C156.3,154.7,156.2,154.7,156.2,154.7z"/>
			<path fill="#373B3F" d="M140.1,162.1l0.1,0.5c0.5-0.2,1.1-0.3,1.6-0.5l-0.2-0.5c0,0-0.1,0-0.1,0
				C141.1,161.8,140.7,161.9,140.1,162.1C140.2,162.1,140.1,162.1,140.1,162.1z"/>
			<polygon fill="#373B3F" points="184,124.2 184,124.2 184,124.2 			"/>
			<path fill="#373B3F" d="M186,119.5l0.5,0.2c0.2-0.5,0.4-1.1,0.6-1.6l-0.5-0.2c0,0,0,0.1,0,0.1l0,0c0,0,0,0,0,0c0,0,0,0,0,0
				c0,0,0,0,0,0c0,0,0,0,0,0c0,0,0,0,0,0c0,0,0,0,0,0c0,0,0,0,0,0c0,0,0,0,0,0c0,0,0,0,0,0c0,0,0,0,0,0c0,0,0,0,0,0c0,0,0,0,0,0
				c0,0,0,0,0,0c0,0,0,0,0,0c0,0,0,0,0,0c0,0,0,0,0,0c0,0,0,0,0,0c0,0,0,0,0,0c0,0,0,0,0,0c0,0,0,0,0,0c0,0,0,0,0,0c0,0,0,0,0,0
				c0,0,0,0,0,0c0,0,0,0.1,0,0.1C186.3,118.8,186.2,119.1,186,119.5C186.1,119.5,186.1,119.5,186,119.5z"/>
			<path fill="#373B3F" d="M150.7,157.8C150.7,157.8,150.7,157.8,150.7,157.8C150.7,157.8,150.7,157.8,150.7,157.8
				C150.7,157.8,150.7,157.8,150.7,157.8C150.7,157.8,150.7,157.8,150.7,157.8C150.7,157.8,150.7,157.8,150.7,157.8
				C150.7,157.8,150.7,157.8,150.7,157.8C150.7,157.8,150.7,157.8,150.7,157.8C150.6,157.9,150.6,157.9,150.7,157.8
				C150.6,157.9,150.6,157.9,150.7,157.8c-0.1,0.1-0.1,0.1-0.1,0.1c0,0,0,0,0,0c0,0,0,0,0,0c0,0,0,0,0,0c0,0,0,0,0,0c0,0,0,0,0,0
				c0,0,0,0,0,0c0,0,0,0,0,0c0,0,0,0,0,0c0,0,0,0,0,0c0,0,0,0,0,0c0,0,0,0,0,0c0,0,0,0,0,0c0,0,0,0,0,0c0,0,0,0,0,0c0,0,0,0,0,0
				c0,0,0,0,0,0c0,0,0,0,0,0c0,0,0,0,0,0c0,0-0.1,0.1-0.1,0.1c0,0,0,0.1,0,0.1h0c0,0,0,0,0,0c-0.2,0.1-0.4,0.2-0.6,0.3l0.2,0.5
				c0.5-0.2,1-0.5,1.5-0.8l-0.2-0.5c0,0,0,0-0.1,0c0,0,0,0-0.1,0C150.9,157.7,150.8,157.8,150.7,157.8z"/>
			<path fill="#373B3F" d="M159.3,152.8C159.3,152.8,159.3,152.8,159.3,152.8C159.3,152.8,159.3,152.8,159.3,152.8
				C159.3,152.8,159.3,152.8,159.3,152.8C159.3,152.8,159.3,152.8,159.3,152.8C159.3,152.8,159.3,152.8,159.3,152.8
				C159.3,152.8,159.3,152.8,159.3,152.8C159.3,152.8,159.3,152.8,159.3,152.8C159.2,152.8,159.2,152.8,159.3,152.8
				C159.2,152.8,159.2,152.8,159.3,152.8c-0.1,0.1-0.1,0.1-0.1,0.1c0,0,0-0.1,0-0.1c0,0,0,0,0,0h0c0,0-0.2,0.1-0.2,0.1v0
				c0,0,0.1-0.1,0.1-0.1h0.1c-0.1,0-0.2,0.2-0.2,0.3c-0.1,0.1-0.2,0.2-0.3,0.3c0,0-0.1,0.1-0.1,0.1l0.3,0.4c0.5-0.3,1-0.6,1.4-1
				l-0.3-0.4C159.7,152.5,159.6,152.6,159.3,152.8C159.4,152.7,159.4,152.7,159.3,152.8C159.3,152.7,159.3,152.8,159.3,152.8z"/>
			<path fill="#373B3F" d="M173.9,139.6C173.9,139.6,173.9,139.6,173.9,139.6C173.9,139.6,173.9,139.6,173.9,139.6
				C173.9,139.6,173.9,139.6,173.9,139.6C173.9,139.6,173.9,139.6,173.9,139.6C173.9,139.6,173.9,139.6,173.9,139.6
				C173.8,139.6,173.8,139.7,173.9,139.6C173.8,139.7,173.8,139.7,173.9,139.6C173.8,139.7,173.8,139.7,173.9,139.6
				C173.8,139.7,173.8,139.7,173.9,139.6c-0.1,0.1-0.1,0.1-0.1,0.1c0,0-0.1,0.1-0.1,0.1c0,0,0,0,0,0c0,0,0,0,0,0l0.4,0.3
				c0.4-0.4,0.7-0.9,1.1-1.3l-0.4-0.3c0,0,0,0-0.1,0.1c-0.2,0.3-0.5,0.6-0.7,0.9C174,139.5,173.9,139.6,173.9,139.6z"/>
			<path fill="#373B3F" d="M190.8,101.4C190.8,101.4,190.8,101.4,190.8,101.4C190.8,101.4,190.8,101.4,190.8,101.4
				C190.8,101.5,190.8,101.5,190.8,101.4C190.8,101.5,190.8,101.5,190.8,101.4C190.8,101.5,190.8,101.5,190.8,101.4
				C190.8,101.5,190.8,101.5,190.8,101.4C190.8,101.5,190.8,101.5,190.8,101.4c0,0.1,0,0.1,0,0.1c0,0,0,0,0,0c0,0,0,0,0,0
				c0,0,0,0,0,0c0,0,0,0,0,0c0,0,0,0,0,0c0,0,0,0,0,0c0,0,0,0,0,0c0,0,0.1,0,0.1,0c0,0,0.1,0,0.1,0c0,0,0,0,0,0
				c0,0.1-0.1,0.1-0.1,0.2c0,0,0,0,0,0c0,0,0,0,0,0c0,0,0,0,0,0c0,0,0,0,0,0c0,0,0,0,0,0c0,0,0,0,0,0c0,0,0,0,0,0c0,0,0,0,0,0
				c0,0,0,0,0,0c0,0,0,0,0,0c0,0,0,0,0,0c0,0,0,0,0,0c0,0,0,0,0,0c0,0,0,0,0,0c0,0,0,0,0,0c0,0,0,0,0,0c0,0,0,0,0,0c0,0,0,0,0,0
				c0,0,0,0,0,0c0,0,0,0,0,0c0,0,0,0,0,0c0,0,0,0,0,0c0,0,0,0,0,0c0,0,0,0,0,0c0,0,0,0,0,0c0,0,0,0,0,0c0,0,0,0,0,0c0,0,0,0,0,0
				c0,0,0,0,0,0l0,0c0,0,0,0,0,0c0,0,0,0,0,0c0,0,0,0,0,0l0,0c0,0,0,0,0,0l0.1,0c0,0.1,0.1,0.2,0.1,0.2v0c0,0-0.1,0-0.1,0l-0.1,0
				c0,0,0,0,0,0l0.1,0c0,0,0.1,0,0.1,0v0c0,0-0.1,0-0.1,0c0,0-0.1,0-0.1,0c0,0,0,0,0,0c0,0,0,0,0,0c0,0,0,0,0,0c0,0,0,0,0,0
				c0,0,0,0,0,0c0,0,0,0,0,0c0,0,0,0,0,0c0,0,0,0,0,0c0,0,0,0,0,0c0,0,0,0,0,0c0,0,0.1,0,0.1,0c0,0,0.1,0,0.1,0c0,0,0,0,0,0
				c0,0-0.2,0.1-0.2,0.1l0.4,0.1c0.1-0.6,0.1-1.1,0.2-1.7l-0.5-0.1C190.8,101.3,190.8,101.4,190.8,101.4z"/>
			<path fill="#373B3F" d="M188.6,112.2L188.6,112.2C188.6,112.2,188.6,112.2,188.6,112.2C188.6,112.2,188.6,112.2,188.6,112.2
				C188.6,112.2,188.5,112.2,188.6,112.2C188.5,112.2,188.5,112.2,188.6,112.2C188.5,112.2,188.5,112.2,188.6,112.2
				C188.5,112.2,188.5,112.2,188.6,112.2c0,0.1,0,0.1,0,0.1c0,0,0,0,0,0c0,0,0,0,0,0c0,0,0,0,0,0c0,0,0,0,0,0c0,0,0,0,0,0
				c0,0,0,0,0,0c0,0,0,0,0,0c0,0,0,0,0,0c0,0,0,0,0,0c0,0,0,0,0,0c0,0,0,0,0,0c0,0,0,0,0,0c0,0,0,0,0,0c0,0,0,0,0,0c0,0,0,0.1,0,0.1
				c0,0,0,0,0,0c0,0,0,0,0,0c0,0,0,0,0,0c0,0,0,0,0,0c0,0,0,0,0,0c0,0,0,0,0,0c0,0,0,0,0,0c0,0,0,0,0,0c0,0,0,0,0,0c0,0,0,0,0,0
				c0,0,0,0,0,0c0,0,0,0,0,0c0,0,0,0,0,0l0,0c0,0.1-0.1,0.2-0.1,0.3l0.5,0.1c0.2-0.5,0.3-1.1,0.5-1.7l-0.5-0.1c0,0.1,0,0.1-0.1,0.2
				c0,0.1-0.1,0.2-0.1,0.4C188.6,112,188.6,112.1,188.6,112.2z"/>
			<path fill="#373B3F" d="M191.3,96.1l0.5,0c0-0.6,0.1-1.2,0.1-1.7l-0.5,0c0,0.3,0,0.6,0,0.9c0,0,0,0.1,0,0.1
				C191.3,95.6,191.3,95.9,191.3,96.1z"/>
			<path fill="#373B3F" d="M170,143.8c-0.1,0.1-0.2,0.2-0.3,0.3l0,0c0,0,0,0,0,0c0,0,0,0,0,0c0,0,0,0,0,0c0,0,0,0,0,0c0,0,0,0,0,0
				c0,0-0.1,0.1-0.1,0.1c-0.1,0.1-0.3,0.3-0.4,0.4c-0.1,0.1-0.1,0.1-0.2,0.2c0,0,0,0,0,0l0.4,0.4c0.4-0.4,0.8-0.8,1.2-1.2l-0.4-0.4
				c0,0,0,0-0.1,0.1C170.1,143.7,170.1,143.8,170,143.8z"/>
			<path fill="#373B3F" d="M176.4,46.5C176.4,46.5,176.4,46.5,176.4,46.5C176.4,46.5,176.4,46.5,176.4,46.5
				C176.4,46.5,176.4,46.5,176.4,46.5C176.4,46.5,176.4,46.5,176.4,46.5C176.4,46.5,176.4,46.5,176.4,46.5
				C176.4,46.5,176.4,46.5,176.4,46.5C176.4,46.5,176.4,46.5,176.4,46.5C176.4,46.6,176.4,46.6,176.4,46.5
				C176.4,46.6,176.4,46.6,176.4,46.5c0.1,0.1,0.1,0.1,0.1,0.1c0,0,0,0,0,0c0,0,0,0,0,0c0,0,0,0,0,0c0,0,0,0,0,0c0,0,0,0,0,0
				c0,0,0,0,0,0c0,0,0,0,0,0c0,0,0,0,0,0c0,0,0,0,0,0c0,0,0,0,0,0c0,0,0,0,0,0c0,0,0,0,0,0c0,0,0,0,0,0c0,0,0,0,0,0c0,0,0,0,0,0
				c0,0,0,0,0,0c0,0,0,0,0,0c0,0,0,0,0,0c0,0,0,0,0,0c0,0,0,0,0,0c0,0,0,0,0,0c0,0,0,0,0,0c0,0,0,0,0,0c0,0,0,0,0,0c0,0,0,0,0,0
				c0,0,0,0,0,0c0,0,0,0,0,0c0,0,0,0,0,0c0,0,0,0,0,0c0,0,0,0,0,0c0,0,0,0,0,0c0,0,0,0,0,0c0,0,0,0,0,0c0,0,0,0,0,0c0,0,0,0,0,0
				c0,0,0,0,0,0c0,0,0,0,0,0.1c0,0,0,0,0,0c0,0,0,0,0,0c0,0,0,0,0,0c0,0,0,0,0,0c0,0,0,0,0,0c0,0,0,0,0,0c0,0,0,0,0,0c0,0,0,0,0,0
				c0,0,0,0,0,0c0,0,0,0,0,0c0,0,0,0,0,0c0,0,0,0,0,0c0,0,0,0,0,0c0,0,0,0,0,0c0,0,0,0,0,0c0,0,0,0,0,0c0,0,0,0,0,0c0,0,0,0,0,0
				c0,0,0,0,0,0c0,0,0,0,0,0c0,0,0,0,0,0c0,0,0,0,0,0c0,0,0,0,0,0c0,0,0,0,0,0c0,0,0,0,0,0l0.2,0c0,0,0.3,0,0.3,0v0
				c0,0-0.4,0.1-0.3,0.1h0c0.1,0,0.1,0.2,0.2,0.3l0.4-0.3c-0.3-0.5-0.7-0.9-1-1.4l-0.4,0.3C176.3,46.4,176.3,46.4,176.4,46.5
				C176.3,46.5,176.3,46.5,176.4,46.5z"/>
			<path fill="#373B3F" d="M75.7,151.1l-0.3,0.4c0.5,0.3,0.9,0.7,1.4,1l0.3-0.4c0,0-0.1,0-0.1-0.1C76.6,151.8,76.2,151.5,75.7,151.1
				C75.8,151.1,75.7,151.1,75.7,151.1z"/>
			<path fill="#373B3F" d="M79.4,153.5C79.4,153.5,79.4,153.5,79.4,153.5C79.4,153.5,79.4,153.6,79.4,153.5
				C79.4,153.6,79.4,153.6,79.4,153.5C79.3,153.6,79.3,153.6,79.4,153.5c0,0.1,0,0.1,0,0.1C79.3,153.6,79.3,153.6,79.4,153.5
				C79.3,153.6,79.3,153.6,79.4,153.5C79.3,153.6,79.3,153.6,79.4,153.5C79.3,153.6,79.3,153.6,79.4,153.5c-0.1,0.1-0.1,0.1-0.1,0.1
				c0,0,0,0,0,0c0,0,0,0,0,0c0,0,0,0,0,0c0,0,0,0,0,0c0,0,0,0,0,0c0,0,0,0,0,0c0,0,0,0,0,0c0,0,0,0,0,0c0,0,0,0,0,0c0,0,0,0,0,0
				c0,0,0,0,0,0c0,0,0,0,0,0c0,0,0,0,0,0l0,0c0,0,0,0,0,0h0C79.1,153.5,79.3,153.5,79.4,153.5L79.4,153.5c-0.1-0.1-0.4-0.2-0.4-0.2
				l-0.1,0.1c0,0-0.1,0.1-0.1,0.1h0c0,0,0-0.1,0-0.1l0-0.1c0,0,0,0,0,0l0,0c0,0,0,0,0,0c0,0,0,0,0,0c0,0,0,0,0,0c0,0,0,0,0,0
				c0,0,0,0,0,0c0,0,0,0,0,0c0,0,0,0,0,0c0,0,0,0,0,0c0,0,0,0,0,0c0,0,0,0,0,0c0,0,0,0,0,0c0,0,0,0,0,0c0,0,0,0,0,0c0,0,0,0,0,0
				c0,0,0,0,0,0c0,0,0,0,0,0c0,0,0,0,0,0c0,0,0,0,0,0c0,0,0,0,0,0c0,0,0,0,0,0c0,0,0,0,0,0c0,0,0,0,0,0c0,0,0,0,0,0l-0.3,0.4
				c0.5,0.3,1,0.6,1.4,0.9l0.3-0.4c-0.1-0.1-0.3-0.2-0.4-0.3C79.5,153.7,79.5,153.6,79.4,153.5C79.4,153.6,79.4,153.5,79.4,153.5z"
				/>
			<path fill="#373B3F" d="M90.6,159.6L90.6,159.6C90.6,159.6,90.6,159.6,90.6,159.6C90.6,159.6,90.6,159.6,90.6,159.6
				C90.6,159.6,90.6,159.6,90.6,159.6C90.5,159.6,90.5,159.6,90.6,159.6C90.5,159.6,90.5,159.6,90.6,159.6
				C90.5,159.6,90.5,159.6,90.6,159.6C90.5,159.6,90.5,159.6,90.6,159.6c-0.1,0-0.1,0-0.1,0c0,0,0,0,0,0c0,0,0,0,0,0l-0.2,0.5
				c0.5,0.2,1.1,0.4,1.6,0.7l0.2-0.5c0,0,0,0,0,0c-0.4-0.2-0.8-0.3-1.3-0.5C90.7,159.7,90.6,159.7,90.6,159.6z"/>
			<polygon fill="#373B3F" points="81.4,154.9 81.4,154.9 81.4,154.9 			"/>
			<path fill="#373B3F" d="M82.1,155.3C82.1,155.3,82.1,155.3,82.1,155.3C82,155.3,82,155.3,82.1,155.3
				C82,155.3,82,155.3,82.1,155.3C82,155.3,82,155.3,82.1,155.3C82,155.3,82,155.3,82.1,155.3C82,155.3,82,155.3,82.1,155.3
				c-0.1-0.1-0.2-0.1-0.3-0.2c-0.1,0-0.2-0.1-0.2-0.1c-0.1,0-0.1-0.1-0.2-0.1l-0.3,0.4c0.5,0.3,1,0.6,1.5,0.9l0.3-0.4
				c-0.1,0-0.1-0.1-0.2-0.1c-0.1-0.1-0.3-0.2-0.4-0.2C82.2,155.4,82.1,155.4,82.1,155.3z"/>
			<path fill="#373B3F" d="M94.2,161.5C94.2,161.5,94.2,161.5,94.2,161.5c0,0,0-0.2,0-0.2c0,0,0-0.1,0-0.1c0,0,0-0.1,0-0.1
				c0,0,0,0,0,0c0,0,0,0,0,0c0,0,0,0,0,0c0,0,0,0,0,0c0,0,0,0,0,0c0,0,0,0,0,0c0,0,0,0,0,0c0,0,0,0,0,0c0,0,0,0,0,0c0,0,0,0,0,0
				c0,0,0,0,0,0c0,0,0,0,0,0c0,0,0,0,0,0c0,0,0,0,0,0c0,0,0,0,0,0c0,0,0,0,0,0c-0.1,0-0.2-0.1-0.3-0.1c0,0,0,0,0,0c0,0,0,0,0,0
				l-0.2,0.5c0.5,0.2,1.1,0.4,1.6,0.6l0.2-0.4c0,0-0.1,0-0.1,0h0c0,0,0-0.1,0-0.1l0,0c0,0,0,0,0,0c0,0,0,0,0,0c0,0,0,0,0,0
				c0,0,0,0,0,0c0,0,0,0,0,0c0,0,0,0,0,0c0,0,0,0,0,0c0,0,0,0,0,0c0,0,0,0,0,0c0,0,0,0,0,0c0,0,0,0,0,0c0,0,0,0,0,0c0,0,0,0,0,0
				c-0.1,0-0.2-0.1-0.3-0.1c-0.1,0-0.2,0.2-0.3,0.1C94.3,161.3,94.3,161.5,94.2,161.5z"/>
			<path fill="#373B3F" d="M136.9,163l0.1,0.5c0.5-0.1,1.1-0.3,1.6-0.5l-0.1-0.5c-0.1,0-0.2,0-0.2,0.1c0,0,0,0,0,0c0,0,0,0,0,0
				c0,0,0,0,0,0l0-0.2c0,0,0-0.2,0-0.2h0c0,0,0,0,0,0h0c0,0-0.1,0.2-0.1,0.2C137.6,162.6,137.3,162.8,136.9,163
				C136.9,162.9,136.9,163,136.9,163z"/>
			<path fill="#373B3F" d="M114.8,165.2v-0.1c0,0,0,0,0,0c0,0,0,0,0,0C114.8,165.1,114.7,165.2,114.8,165.2
				C114.7,165.2,114.7,165.2,114.8,165.2c0-0.1-0.1-0.1-0.1-0.1c0,0,0,0,0,0c0,0,0,0.1-0.1,0c0,0,0,0,0,0c0,0,0,0,0,0c0,0,0,0,0,0
				c0,0,0,0,0,0c0,0,0,0,0,0c0,0,0,0,0,0c0,0,0,0,0,0c0,0,0,0,0,0c0,0,0,0,0,0c0,0,0,0,0,0c0,0,0,0,0,0c0,0,0,0,0,0c0,0,0,0,0,0
				c0,0,0,0,0,0c0,0,0,0,0,0h0c0,0-0.1,0-0.1,0h0c0,0,0,0,0,0c0,0,0,0,0,0c0,0,0,0,0,0c0,0,0,0,0,0c0,0,0,0,0,0c0,0,0,0,0,0
				c0,0,0,0,0,0c0,0,0,0,0,0c0,0,0,0,0,0c0,0,0,0,0,0c0,0,0,0,0,0c0,0,0,0,0,0c0,0,0,0,0,0c0,0,0,0,0,0c0,0,0,0,0,0h0c0,0,0,0,0,0
				c0,0,0,0,0,0c0,0,0,0,0,0c0,0,0,0,0,0c0,0,0,0,0,0c0,0,0,0,0,0c0,0,0,0,0,0c0,0,0,0,0,0c0,0,0,0,0,0c0,0,0,0,0,0c0,0,0,0,0,0
				c0,0,0,0,0,0c0,0,0,0,0,0c-0.2,0-0.4,0-0.5,0l0,0.5c0.6,0,1.1,0.1,1.7,0.1l0-0.5c0,0-0.1,0-0.1,0c0,0,0,0,0,0
				C114.9,165.2,114.8,165.2,114.8,165.2z"/>
			<path fill="#373B3F" d="M88.5,158.3C88.5,158.3,88.5,158.3,88.5,158.3c0,0,0,0.2,0,0.2c0,0,0,0.1,0,0.1c0,0,0,0,0,0c0,0,0,0,0,0
				c0,0,0,0,0,0c0,0,0,0,0,0c0,0,0,0,0,0c0,0,0,0,0,0c0,0,0,0,0,0c0,0,0,0,0,0c0,0,0,0,0,0c0,0,0,0,0,0c0,0,0,0,0,0c0,0,0,0,0,0
				c0,0,0,0,0,0c0,0,0,0,0,0c0,0,0,0,0,0c0,0,0,0,0,0c0,0,0,0,0,0c0,0,0,0,0,0c0,0,0,0,0,0c0,0,0,0,0,0c0,0,0,0,0,0c0,0,0,0,0,0
				c0,0,0,0,0,0c0,0,0,0,0,0c0,0,0,0,0,0c0,0,0,0,0,0c0,0,0,0,0,0c0,0,0,0,0,0c0,0,0,0,0,0c0,0,0,0,0,0c0,0,0,0,0,0c0,0,0,0,0,0
				c0,0,0,0,0,0c0,0,0,0,0,0c0,0,0,0,0,0c0,0,0,0,0,0c0,0-0.1,0-0.1,0c-0.1-0.1-0.2-0.1-0.3-0.2c-0.1-0.1-0.2-0.1-0.3-0.2l-0.2,0.5
				c0.5,0.2,1,0.5,1.5,0.7l0.2-0.5c0,0-0.1,0-0.1-0.1c0,0,0-0.2-0.1-0.2C88.6,158.6,88.6,158.3,88.5,158.3z"/>
			<path fill="#373B3F" d="M97.6,162.2C97.6,162.2,97.6,162.2,97.6,162.2C97.6,162.2,97.6,162.2,97.6,162.2
				C97.6,162.2,97.6,162.2,97.6,162.2C97.6,162.2,97.6,162.2,97.6,162.2C97.5,162.2,97.5,162.2,97.6,162.2
				C97.5,162.2,97.5,162.2,97.6,162.2C97.5,162.2,97.5,162.2,97.6,162.2c-0.1,0-0.1,0-0.1,0c0,0,0,0,0,0c0,0,0,0,0,0c0,0,0,0,0,0
				c0,0,0,0,0,0c0,0,0,0,0,0c0,0,0,0,0,0c0,0,0,0,0,0c0,0,0,0,0,0c0,0,0,0,0,0c0,0,0,0,0,0c0,0,0,0,0,0c0,0,0,0,0,0c0,0,0,0,0,0
				c0,0,0,0,0,0c0,0,0,0,0,0c0,0,0,0,0,0c0,0,0,0,0,0c0,0,0,0,0,0c0,0,0,0,0,0c0,0,0,0,0,0c0,0,0,0,0,0c0,0,0-0.1,0-0.1
				c0,0,0-0.1,0-0.1h0c0,0,0,0.1,0,0.1c0,0,0,0,0,0c0,0,0,0,0,0c0,0,0,0,0,0c0,0,0,0,0,0c0,0,0,0,0,0c0,0,0,0,0,0c0,0,0,0,0,0
				c0,0,0,0,0,0c0,0,0,0,0,0c0,0,0,0,0,0c0,0,0,0,0,0c0,0,0,0,0,0c0,0,0,0,0,0c0,0,0,0,0,0c0,0,0,0,0,0c0,0,0,0,0,0
				c-0.1,0-0.1,0-0.2,0l-0.2,0.5c0.5,0.2,1.1,0.3,1.6,0.5l0.1-0.5c-0.1,0-0.2-0.1-0.3-0.1c-0.1,0-0.2-0.1-0.4-0.1
				C97.7,162.2,97.6,162.2,97.6,162.2z"/>
			<path fill="#373B3F" d="M101.1,163.2C101.1,163.2,101.1,163.2,101.1,163.2C101.1,163.2,101.1,163.2,101.1,163.2
				C101.1,163.2,101.1,163.2,101.1,163.2C101.1,163.2,101,163.2,101.1,163.2C101,163.2,101,163.2,101.1,163.2
				C101,163.2,101,163.2,101.1,163.2C101,163.2,101,163.2,101.1,163.2C101,163.2,101,163.1,101.1,163.2c-0.1,0-0.1,0-0.1,0l0,0
				c0,0,0,0,0,0l0-0.2c0,0,0-0.2,0-0.2h0c-0.1,0-0.1,0.2-0.2,0.1c-0.1,0-0.3,0-0.4,0c-0.1,0-0.1,0-0.2,0l-0.1,0.5
				c0.5,0.1,1.1,0.3,1.7,0.4l0.1-0.5c-0.1,0-0.1,0-0.2-0.1c-0.1,0-0.1,0-0.2,0C101.2,163.2,101.1,163.2,101.1,163.2z"/>
			<path fill="#373B3F" d="M191.4,95.3C191.4,95.3,191.3,95.4,191.4,95.3C191.3,95.4,191.4,95.3,191.4,95.3z"/>
			<path fill="#373B3F" d="M187.8,114.8c-0.1,0.3-0.2,0.7-0.3,1C187.5,115.5,187.6,115.1,187.8,114.8z"/>
			<path fill="#373B3F" d="M98.1,162.4c-0.1,0-0.2-0.1-0.4-0.1C97.9,162.3,98,162.3,98.1,162.4z"/>
			<path fill="#373B3F" d="M161.5,151.2C161.5,151.2,161.5,151.2,161.5,151.2C161.5,151.2,161.5,151.2,161.5,151.2z"/>
			<path fill="#373B3F" d="M141.6,161.6c-0.5,0.2-1,0.3-1.4,0.5C140.7,161.9,141.1,161.8,141.6,161.6z"/>
			<path fill="#373B3F" d="M138,162.7c-0.4,0.1-0.8,0.2-1.1,0.3C137.3,162.9,137.6,162.8,138,162.7z"/>
			<path fill="#373B3F" d="M188.7,111.5c0,0.1-0.1,0.2-0.1,0.4C188.7,111.8,188.7,111.7,188.7,111.5z"/>
			<path fill="#373B3F" d="M92,160.2c-0.4-0.2-0.8-0.3-1.3-0.5C91.1,159.9,91.6,160.1,92,160.2z"/>
			<path fill="#373B3F" d="M178.5,133.5c-0.2,0.3-0.4,0.6-0.6,0.8C178.1,134.1,178.3,133.8,178.5,133.5z"/>
			<path fill="#373B3F" d="M180.5,130.5c-0.2,0.3-0.4,0.7-0.6,1C180.1,131.2,180.3,130.8,180.5,130.5z"/>
			<path fill="#373B3F" d="M172.6,141.1c-0.4,0.4-0.7,0.8-1.1,1.2C171.8,141.9,172.2,141.5,172.6,141.1z"/>
			<path fill="#373B3F" d="M167.7,146.1c-0.1,0.1-0.2,0.2-0.3,0.3C167.5,146.3,167.6,146.2,167.7,146.1z"/>
			<path fill="#373B3F" d="M176.8,135.9c-0.3,0.4-0.6,0.8-0.9,1.2C176.2,136.7,176.5,136.3,176.8,135.9z"/>
			<path fill="#373B3F" d="M182.3,127.3c-0.1,0.3-0.3,0.5-0.4,0.8C182,127.8,182.2,127.6,182.3,127.3z"/>
			<path fill="#373B3F" d="M114.9,165.2C114.9,165.2,114.9,165.2,114.9,165.2C114.9,165.2,114.9,165.2,114.9,165.2z"/>
			<path fill="#373B3F" d="M186.5,118.4c-0.1,0.3-0.3,0.7-0.4,1C186.2,119.1,186.3,118.8,186.5,118.4z"/>
			<path fill="#373B3F" d="M79.5,153.8c0,0-0.1-0.1-0.1-0.1C79.5,153.7,79.5,153.7,79.5,153.8z"/>
			<path fill="#373B3F" d="M164.6,148.8c-0.1,0.1-0.3,0.2-0.4,0.3C164.3,149,164.4,148.9,164.6,148.8z"/>
			<path fill="#373B3F" d="M77,152.1c-0.4-0.3-0.8-0.6-1.3-0.9C76.2,151.5,76.6,151.8,77,152.1z"/>
			<path fill="#373B3F" d="M183.9,124.2c-0.2,0.4-0.4,0.7-0.5,1.1C183.6,124.9,183.8,124.6,183.9,124.2z"/>
			<path fill="#373B3F" d="M154,156.1c-0.2,0.1-0.5,0.3-0.7,0.4C153.5,156.4,153.7,156.2,154,156.1z"/>
			<path fill="#373B3F" d="M101.5,163.3c-0.1,0-0.1,0-0.2,0C101.3,163.2,101.4,163.2,101.5,163.3z"/>
			<path fill="#373B3F" d="M100.3,163c0.1,0,0.3,0.1,0.4,0.1C100.6,163,100.4,163,100.3,163z"/>
			<path fill="#373B3F" d="M93.6,160.9C93.6,160.9,93.7,160.9,93.6,160.9C93.7,160.9,93.6,160.9,93.6,160.9z"/>
			<path fill="#373B3F" d="M94.6,161.2c-0.1,0-0.2-0.1-0.3-0.1C94.5,161.2,94.6,161.2,94.6,161.2z"/>
			<path fill="#373B3F" d="M81.6,155c0.1,0,0.2,0.1,0.2,0.1C81.7,155.1,81.6,155.1,81.6,155z"/>
			<path fill="#373B3F" d="M88.8,158.8C88.7,158.8,88.7,158.8,88.8,158.8C88.7,158.8,88.7,158.8,88.8,158.8z"/>
			<path fill="#373B3F" d="M87.7,158.3c0.1,0.1,0.2,0.1,0.3,0.2C87.9,158.4,87.8,158.4,87.7,158.3z"/>
			<path fill="#373B3F" d="M82.6,155.7c-0.1-0.1-0.3-0.2-0.4-0.2C82.4,155.5,82.5,155.6,82.6,155.7z"/>
			<path fill="#373B3F" d="M111.5,165c-0.2,0-0.4,0-0.6-0.1C111.1,164.9,111.3,165,111.5,165z"/>
			<path fill="#373B3F" d="M110.3,164.9C110.3,164.9,110.3,164.9,110.3,164.9C110.3,164.9,110.3,164.9,110.3,164.9z"/>
			<path fill="#373B3F" d="M116.8,165.1C116.8,165.1,116.8,165.1,116.8,165.1C116.8,165.1,116.8,165.1,116.8,165.1z"/>
			<path fill="#373B3F" d="M107.7,164.5c-0.1,0-0.3,0-0.4-0.1C107.4,164.5,107.5,164.5,107.7,164.5z"/>
			<path fill="#373B3F" d="M104.9,164c-0.1,0-0.2,0-0.2,0C104.8,164,104.9,164,104.9,164z"/>
			<path fill="#373B3F" d="M106.7,164.3C106.7,164.3,106.7,164.3,106.7,164.3C106.7,164.3,106.7,164.3,106.7,164.3z"/>
			<path fill="#373B3F" d="M118,165.3c-0.1,0-0.2,0-0.4,0C117.8,165.3,117.9,165.3,118,165.3z"/>
			<path fill="#373B3F" d="M103.9,163.8c0,0,0.1,0,0.1,0C104,163.8,103.9,163.8,103.9,163.8z"/>
			<path fill="#373B3F" d="M120.3,165.3c0.2,0,0.3,0,0.5,0C120.6,165.3,120.5,165.3,120.3,165.3z"/>
			<path fill="#373B3F" d="M169.2,144.6c0.1-0.1,0.3-0.3,0.4-0.4C169.5,144.4,169.4,144.5,169.2,144.6z"/>
			<path fill="#373B3F" d="M173.7,139.8C173.7,139.8,173.7,139.8,173.7,139.8C173.7,139.8,173.7,139.8,173.7,139.8z"/>
			<path fill="#373B3F" d="M174.7,138.6c-0.2,0.3-0.5,0.6-0.7,0.9C174.2,139.2,174.5,138.9,174.7,138.6z"/>
			<path fill="#373B3F" d="M159.4,152.7C159.4,152.7,159.4,152.7,159.4,152.7C159.4,152.7,159.4,152.7,159.4,152.7z"/>
			<path fill="#373B3F" d="M156.4,154.6C156.4,154.7,156.4,154.7,156.4,154.6C156.4,154.7,156.4,154.7,156.4,154.6z"/>
			<path fill="#373B3F" d="M158.5,153.3c0.1-0.1,0.2-0.1,0.3-0.2C158.8,153.1,158.6,153.2,158.5,153.3z"/>
			<path fill="#373B3F" d="M191.4,92.6c0-0.1,0-0.2,0-0.3C191.4,92.4,191.4,92.5,191.4,92.6z"/>
			<path fill="#373B3F" d="M191.3,99.1C191.3,99.1,191.3,99.1,191.3,99.1C191.3,99.1,191.3,99.1,191.3,99.1z"/>
			<path fill="#373B3F" d="M191.2,98.1C191.2,98.1,191.2,98.1,191.2,98.1C191.2,98.1,191.2,98.1,191.2,98.1z"/>
			<path fill="#373B3F" d="M155.6,155.1C155.6,155.1,155.7,155.1,155.6,155.1C155.7,155.1,155.6,155.1,155.6,155.1z"/>
			<path fill="#373B3F" d="M185.4,121.1C185.4,121.1,185.4,121.1,185.4,121.1C185.4,121.1,185.4,121.1,185.4,121.1z"/>
			<path fill="#373B3F" d="M189.6,108.1c0,0.1,0,0.2-0.1,0.2C189.6,108.3,189.6,108.2,189.6,108.1z"/>
			<path fill="#373B3F" d="M184.8,122.5c0.1-0.3,0.2-0.5,0.4-0.8C185,121.9,184.9,122.2,184.8,122.5z"/>
			<path fill="#373B3F" d="M189.3,109.3c0-0.1,0-0.2,0.1-0.3C189.4,109.1,189.3,109.2,189.3,109.3z"/>
			<path fill="#373B3F" d="M170.2,143.7c0,0-0.1,0.1-0.1,0.1C170.1,143.8,170.1,143.7,170.2,143.7z"/>
			<path fill="#373B3F" d="M127,164.9c0,0,0.1,0,0.1,0C127.1,164.9,127,164.9,127,164.9z"/>
			<path fill="#373B3F" d="M128.1,164.7c-0.1,0-0.2,0-0.3,0C127.9,164.8,128,164.7,128.1,164.7z"/>
			<path fill="#373B3F" d="M151,157.7C151,157.7,151,157.7,151,157.7C151,157.7,151,157.7,151,157.7z"/>
			<path fill="#373B3F" d="M130.6,164.4c0,0,0.1,0,0.1,0C130.7,164.3,130.6,164.4,130.6,164.4z"/>
			<path fill="#373B3F" d="M121.5,165.3C121.5,165.3,121.5,165.3,121.5,165.3C121.5,165.3,121.5,165.3,121.5,165.3z"/>
			<path fill="#373B3F" d="M125.2,165C125.2,165.1,125.1,165.1,125.2,165C125.1,165.1,125.2,165.1,125.2,165z"/>
			<path fill="#373B3F" d="M124,165.1c0.1,0,0.2,0,0.3,0C124.2,165.1,124.1,165.1,124,165.1z"/>
			<path fill="#373B3F" d="M131.6,164.2c0,0-0.1,0-0.1,0C131.5,164.2,131.6,164.2,131.6,164.2z"/>
			<path fill="#373B3F" d="M147,159.5C147,159.5,147,159.5,147,159.5C147,159.5,147,159.5,147,159.5z"/>
			<rect x="147.8" y="159.2" fill="#373B3F" width="0" height="0"/>
			<polygon fill="#373B3F" points="150.2,158.1 150.2,158.1 150.2,158.1 			"/>
			<polygon fill="#373B3F" points="144.5,160.5 144.5,160.5 144.5,160.5 			"/>
			<path fill="#373B3F" d="M133.8,163.7c0.2,0,0.4-0.1,0.7-0.1C134.2,163.6,134,163.7,133.8,163.7z"/>
			<path fill="#373B3F" d="M135.1,163.4C135.1,163.4,135.1,163.5,135.1,163.4C135.1,163.5,135.1,163.4,135.1,163.4z"/>
			<path fill="#373B3F" d="M143.7,160.9C143.7,160.9,143.7,160.9,143.7,160.9C143.7,160.9,143.7,160.9,143.7,160.9z"/>
			<path fill="#373B3F" d="M182.1,55.3c0.1,0.1,0.1,0.2,0.2,0.3C182.2,55.5,182.1,55.4,182.1,55.3z"/>
			<path fill="#373B3F" d="M182.7,56.4c-0.1-0.1-0.1-0.2-0.2-0.3C182.6,56.1,182.6,56.2,182.7,56.4z"/>
			<path fill="#373B3F" d="M186.4,64.3c0,0.1,0.1,0.2,0.1,0.4C186.4,64.6,186.4,64.4,186.4,64.3z"/>
			<path fill="#373B3F" d="M188.6,71c0,0.1,0.1,0.2,0.1,0.3C188.7,71.3,188.6,71.2,188.6,71z"/>
			<path fill="#373B3F" d="M186.8,65.5c0-0.1-0.1-0.2-0.1-0.4C186.7,65.3,186.8,65.4,186.8,65.5z"/>
			<path fill="#373B3F" d="M188.9,72.2c0-0.1,0-0.2-0.1-0.3C188.9,72.1,188.9,72.2,188.9,72.2z"/>
			<path fill="#373B3F" d="M190.1,77.4c0.1,0.5,0.2,1,0.3,1.5C190.3,78.4,190.2,77.9,190.1,77.4z"/>
			<path fill="#373B3F" d="M191.4,87.7c0,0,0,0.1,0,0.1C191.4,87.7,191.4,87.7,191.4,87.7z"/>
			<path fill="#373B3F" d="M190.7,81.1c0,0,0,0.1,0,0.1C190.7,81.2,190.7,81.1,190.7,81.1z"/>
			<path fill="#373B3F" d="M191.1,84.8c0,0.4,0.1,0.7,0.1,1.1C191.2,85.5,191.2,85.1,191.1,84.8z"/>
			<path fill="#373B3F" d="M187.5,67.5c0.2,0.5,0.3,0.9,0.5,1.4C187.8,68.5,187.7,68,187.5,67.5z"/>
			<path fill="#373B3F" d="M178.6,49.6c0.2,0.3,0.4,0.5,0.5,0.8C179,50.2,178.8,49.9,178.6,49.6z"/>
			<path fill="#373B3F" d="M180.2,52.1c0.3,0.4,0.5,0.9,0.8,1.3C180.7,52.9,180.5,52.5,180.2,52.1z"/>
			<path fill="#373B3F" d="M185,61.2c0.2,0.4,0.4,0.9,0.6,1.3C185.4,62,185.2,61.6,185,61.2z"/>
		</g>
		<path fill="#FFFFFF" stroke="#C4C3C3" stroke-width="1.7439" stroke-miterlimit="10" d="M7,39.7v100.8c0,0,0,0,0,0.1
			c0,3.6,3,6.4,6.6,6.4h152.9c3.6,0,6.5-2.9,6.6-6.4c0,0,0,0,0-0.1V39.7c0,0,0-0.1,0-0.1c0-4.6-3.8-8.2-8.4-8.2H15.4
			C10.8,31.5,7,35.1,7,39.7C7,39.7,7,39.7,7,39.7z"/>
		<rect x="29.2" y="89.8" fill="#B0AFB0" width="16.2" height="30.9"/>
		<rect x="56.7" y="80.4" fill="#B0AFB0" width="16.2" height="40.2"/>
		<rect x="84.4" y="60.8" fill="#B0AFB0" width="16.2" height="59.9"/>
		<rect x="113.4" y="50.5" fill="#B0AFB0" width="16.2" height="70.2"/>
		<rect x="141" y="39.7" fill="#B0AFB0" width="16.2" height="79.6"/>
		<g>
			<g>
				<polygon fill="#D3D3D3" points="24.9,102.2 23.4,100.2 70.5,64.9 121,59.6 156.5,38.6 157.8,40.7 121.8,62 71.5,67.3 				"/>
			</g>
			<circle fill="#CB2027" cx="24.2" cy="101.2" r="4"/>
			<circle fill="#CB2027" cx="71" cy="66.1" r="4"/>
			<circle fill="#CB2027" cx="121.4" cy="60.8" r="4"/>
			<circle fill="#CB2027" cx="157.2" cy="39.7" r="4"/>
		</g>
		<g id="Web_Security_1_">
			<g id="Web_1_">
				<rect x="29.8" y="129.4" opacity="0.5" fill="#E0E0E0" width="126.8" height="8.5"/>
				<rect x="18.4" y="49.7" opacity="0.5" fill="#E0E0DF" width="43.7" height="8.5"/>
			</g>
			<g id="Security_1_">
				<path fill="#939191" d="M150.1,84.5l-36.4,15.7v39c0,0,2.1,27.2,36.4,42.2c34.3-15.1,36.4-42.2,36.4-42.2v-39L150.1,84.5z"/>
				<path fill="#FFFFFF" d="M150.1,94.4l-29,12.5v31c0,0,1.7,21.6,29,33.6c27.3-12,29-33.6,29-33.6v-31L150.1,94.4z"/>
				<path opacity="0.1" fill="#231F20" d="M186.5,139.2v-39l-36.4-15.7v97C184.3,166.4,186.5,139.2,186.5,139.2z"/>
				<polygon fill="#CB2027" points="149.9,141.8 172.8,122.3 169.3,118.3 150.4,134.5 142.5,125.6 138.6,129.1 149.9,141.8 
					149.9,141.9 149.9,141.9 149.9,141.9 				"/>
			</g>
		</g>
	</g>
	<g id="Search_1_">
		<path fill="#F2F2F2" d="M79.8,42c0,1.2-1,2.2-2.2,2.2H19.8c-1.2,0-2.2-1-2.2-2.2v-1.1c0-1.2,1-2.2,2.2-2.2h57.8
			c1.2,0,2.2,1,2.2,2.2V42z"/>
		<path fill="#C9C9C9" d="M77.6,38.6H66.9v5.5h10.7c1.2,0,2.2-1,2.2-2.2v-1.1C79.8,39.6,78.8,38.6,77.6,38.6z"/>
		<g>
			<path fill="#E0E1E0" d="M69.1,40.6v0.2h-0.5v1.3h-0.2v-1.3H68v-0.2H69.1z"/>
			<path fill="#E0E1E0" d="M69.8,42.1v-0.6c-0.1-0.2-0.2-0.3-0.3-0.5c-0.1-0.2-0.2-0.3-0.3-0.4h0.3c0.1,0.1,0.1,0.2,0.2,0.4
				c0.1,0.1,0.1,0.2,0.2,0.4c0.1-0.1,0.1-0.2,0.2-0.4c0.1-0.1,0.1-0.2,0.2-0.4h0.2c-0.1,0.1-0.2,0.3-0.3,0.4
				c-0.1,0.2-0.2,0.3-0.3,0.5v0.6H69.8z"/>
			<path fill="#E0E1E0" d="M71.1,40.6c0.2,0,0.4,0,0.5,0.1c0.1,0.1,0.2,0.2,0.2,0.4c0,0.1,0,0.2,0,0.2c0,0.1-0.1,0.1-0.1,0.2
				c-0.1,0-0.1,0.1-0.2,0.1c-0.1,0-0.2,0-0.3,0H71v0.6h-0.2v-1.5c0.1,0,0.1,0,0.2,0C71,40.6,71.1,40.6,71.1,40.6z M71.2,40.8
				c-0.1,0-0.2,0-0.2,0v0.6h0.2c0.1,0,0.1,0,0.2,0c0.1,0,0.1,0,0.1,0c0,0,0.1-0.1,0.1-0.1c0,0,0-0.1,0-0.2c0-0.1,0-0.1,0-0.1
				s-0.1-0.1-0.1-0.1c0,0-0.1,0-0.1,0C71.3,40.8,71.2,40.8,71.2,40.8z"/>
			<path fill="#E0E1E0" d="M72.1,42.1v-1.5H73v0.2h-0.7v0.5h0.6v0.2h-0.6v0.5h0.8v0.2H72.1z"/>
			<path fill="#E0E1E0" d="M74.8,40.6v0.2h-0.5v1.3h-0.2v-1.3h-0.5v-0.2H74.8z"/>
			<path fill="#E0E1E0" d="M75.1,42.1v-1.5H76v0.2h-0.7v0.5h0.6v0.2h-0.6v0.5h0.8v0.2H75.1z"/>
			<path fill="#E0E1E0" d="M77.2,42.1c0,0,0-0.1-0.1-0.1c0-0.1-0.1-0.1-0.1-0.2c0-0.1-0.1-0.1-0.1-0.2c0-0.1-0.1-0.1-0.1-0.2
				c0,0.1-0.1,0.1-0.1,0.2c0,0.1-0.1,0.1-0.1,0.2c0,0.1-0.1,0.1-0.1,0.2c0,0.1-0.1,0.1-0.1,0.1h-0.2c0.1-0.1,0.1-0.3,0.2-0.4
				c0.1-0.1,0.2-0.3,0.3-0.4l-0.5-0.7h0.2l0.4,0.6l0.4-0.6h0.2L77,41.3c0.1,0.1,0.2,0.3,0.3,0.4c0.1,0.1,0.2,0.3,0.2,0.4H77.2z"/>
			<path fill="#E0E1E0" d="M78.8,40.6v0.2h-0.5v1.3h-0.2v-1.3h-0.5v-0.2H78.8z"/>
		</g>
		<path opacity="0.2" fill="#FFFFFF" d="M78.4,39.7c0,0.2-0.2,0.3-0.3,0.3H68c-0.2,0-0.3-0.2-0.3-0.3l0,0c0-0.2,0.2-0.3,0.3-0.3
			h10.1C78.3,39.3,78.4,39.5,78.4,39.7L78.4,39.7z"/>
	</g>
</g>
</svg>
