<?xml version="1.0" encoding="utf-8"?>
<!-- Generator: Adobe Illustrator 17.1.0, SVG Export Plug-In . SVG Version: 6.00 Build 0)  -->
<!DOCTYPE svg PUBLIC "-//W3C//DTD SVG 1.1//EN" "http://www.w3.org/Graphics/SVG/1.1/DTD/svg11.dtd">
<svg version="1.1" id="Layer_1" xmlns="http://www.w3.org/2000/svg" xmlns:xlink="http://www.w3.org/1999/xlink" x="0px" y="0px"
	 viewBox="0 0 200 200" enable-background="new 0 0 200 200" xml:space="preserve">
<g>
	<g>
		<path fill-rule="evenodd" clip-rule="evenodd" fill="#E8E8E8" d="M130.7,34.2l0.8,0l0.1,0l0.7,0l0.2,0l0.4,0
			c16.8,0.6,32,7.6,43.1,18.7c11.6,11.6,18.8,27.6,18.8,45.3c0,17.7-7.2,33.7-18.8,45.3c-11.6,11.6-27.6,18.8-45.3,18.8
			c-17.7,0-33.7-7.2-45.3-18.8C73.8,132,66.6,116,66.6,98.3c0-17.7,7.2-33.7,18.8-45.3c11.1-11.1,26.3-18.2,43.1-18.7l0.4,0l0.2,0
			l0.7,0l0.1,0L130.7,34.2L130.7,34.2z M71.1,94.9h119.2c-0.8-15.2-7.3-28.8-17.4-38.9c-1.1-1.1-2.3-2.2-3.5-3.2
			c-5.3,4-11.2,7.2-17.6,9.5c-6.6,2.3-13.7,3.6-21.1,3.6c-7.4,0-14.5-1.3-21.1-3.6c-6.4-2.2-12.4-5.5-17.6-9.5
			c-1.2,1-2.4,2.1-3.5,3.2C78.4,66.1,71.9,79.8,71.1,94.9L71.1,94.9z M190.4,99.3H71c0.3,16.1,6.9,30.6,17.5,41.2
			c10.8,10.8,25.7,17.5,42.2,17.5c16.5,0,31.4-6.7,42.2-17.5C183.5,129.9,190.1,115.4,190.4,99.3L190.4,99.3z M150.3,58.2
			c5.5-1.9,10.6-4.6,15.2-7.9c-4.6-3.5-9.7-6.3-15.2-8.2c-5.4-1.9-11.1-3.1-17.1-3.4l0,0l-0.5,0l-0.4,0l-0.3,0c-0.5,0-0.9,0-1.4,0
			c-0.5,0-0.9,0-1.4,0l-0.3,0l-0.4,0l-0.5,0l0,0c-6,0.3-11.7,1.4-17.1,3.4c-5.5,2-10.6,4.8-15.2,8.2c4.6,3.3,9.8,6,15.2,7.9
			c6.1,2.1,12.7,3.3,19.6,3.3C137.6,61.5,144.2,60.3,150.3,58.2z"/>
		<path fill-rule="evenodd" clip-rule="evenodd" fill="#E8E8E8" d="M170.5,147.6c-5.6,4.4-11.9,7.9-18.7,10.3
			c-6.6,2.3-13.7,3.6-21.1,3.6c-7.4,0-14.5-1.3-21.1-3.6c-6.8-2.4-13.2-5.9-18.7-10.3l-2.1-1.7l2.1-1.7c5.5-4.6,11.8-8.2,18.7-10.7
			c6.6-2.4,13.8-3.7,21.2-3.7c7.4,0,14.6,1.3,21.2,3.7c6.9,2.5,13.2,6.1,18.7,10.7l2.1,1.7L170.5,147.6L170.5,147.6z M150.3,153.8
			c5.5-1.9,10.6-4.6,15.2-7.9c-4.6-3.5-9.7-6.2-15.2-8.2c-6.1-2.2-12.8-3.4-19.7-3.4c-6.9,0-13.6,1.2-19.7,3.4
			c-5.5,2-10.6,4.8-15.2,8.2c4.6,3.3,9.8,6,15.2,7.9c6.1,2.1,12.7,3.3,19.6,3.3C137.6,157.1,144.2,155.9,150.3,153.8z"/>
		<rect x="128.5" y="36.4" fill-rule="evenodd" clip-rule="evenodd" fill="#E8E8E8" width="4.4" height="123.8"/>
		<g>
			<path fill-rule="evenodd" clip-rule="evenodd" fill="#E8E8E8" d="M124.8,160.4c-3.1-2.6-6-5.5-8.7-8.7
				c-11.5-13.7-18.7-32.6-18.7-53.4c0-20.8,7.1-39.7,18.7-53.4c2.7-3.2,5.6-6.1,8.7-8.7c2-0.2,4-0.3,6-0.3c0.6,0,1.1,0,1.7,0
				c-4.8,3.2-9.2,7.2-13.1,11.8c-10.9,12.9-17.6,30.8-17.6,50.6c0,19.8,6.7,37.7,17.6,50.6c3.9,4.6,8.3,8.6,13.1,11.8
				c-0.6,0-1.1,0-1.7,0C128.7,160.6,126.7,160.5,124.8,160.4z"/>
			<path fill-rule="evenodd" clip-rule="evenodd" fill="#E8E8E8" d="M136.6,160.4c3.1-2.6,6-5.5,8.7-8.7
				c11.9-13.9,20.9-34.4,18.7-53.4c0-20.8-7.1-39.7-18.7-53.4c-2.7-3.2-5.6-6.1-8.7-8.7c-2-0.2-4-0.3-6-0.3c-0.6,0-1.1,0-1.7,0
				c4.8,3.2,9.2,7.2,13.1,11.8c10.9,12.9,17.6,30.8,17.6,50.6c0,19.8-6.7,37.7-17.6,50.6c-3.9,4.6-8.3,8.6-13.1,11.8
				c0.6,0,1.1,0,1.7,0C132.7,160.6,134.7,160.5,136.6,160.4z"/>
		</g>
	</g>
	<g>
		<g>
			<rect x="32.9" y="102.5" fill-rule="evenodd" clip-rule="evenodd" fill="#939292" width="78.5" height="54.1"/>
			<rect x="29.4" y="156.6" fill-rule="evenodd" clip-rule="evenodd" fill="#CCCCCC" width="83.8" height="14.5"/>
			<polygon fill-rule="evenodd" clip-rule="evenodd" fill="#CCCCCC" points="113.2,121.6 134.2,121.6 143.7,144.8 143.7,171.1 
				113.2,171.1 			"/>
			<path fill-rule="evenodd" clip-rule="evenodd" fill="#949393" d="M139,151.8h3.2c1.8,0,3.2,1.4,3.2,3.2v8.5
				c0,1.8-1.4,3.2-3.2,3.2H139V151.8z"/>
			<path fill-rule="evenodd" clip-rule="evenodd" fill="#949393" d="M29.4,160h-1.6c-0.9,0-1.6,0.7-1.6,1.6v4.2
				c0,0.9,0.7,1.6,1.6,1.6h1.6V160z"/>
			<polygon fill-rule="evenodd" clip-rule="evenodd" fill="#FFFFFF" points="116.5,124.6 132.7,124.6 140.8,144.8 116.5,144.8 			
				"/>
			<polygon fill-rule="evenodd" clip-rule="evenodd" fill="#F9F9FA" points="116.5,144.8 140.8,144.8 134.1,128.2 116.5,139 			"/>
			<path fill-rule="evenodd" clip-rule="evenodd" fill="#FFFFFF" d="M118.3,146.6L118.3,146.6c0.7,0,1.3,0.6,1.3,1.3v5.3
				c0,0.7-0.6,1.3-1.3,1.3l0,0c-0.7,0-1.3-0.6-1.3-1.3v-5.3C117,147.2,117.6,146.6,118.3,146.6z"/>
			<g>
				<circle fill-rule="evenodd" clip-rule="evenodd" fill="#939191" cx="49.4" cy="171.1" r="10.3"/>
				<circle fill-rule="evenodd" clip-rule="evenodd" fill="#FEFFFF" cx="49.4" cy="171.1" r="5.2"/>
			</g>
			<g>
				<circle fill-rule="evenodd" clip-rule="evenodd" fill="#939191" cx="118.4" cy="171.1" r="10.3"/>
				<circle fill-rule="evenodd" clip-rule="evenodd" fill="#FEFFFF" cx="118.4" cy="171.1" r="5.2"/>
			</g>
		</g>
		<path fill-rule="evenodd" clip-rule="evenodd" fill="#939292" d="M21.3,122.1h30.8c1.4,0,2.6,1.2,2.6,2.6l0,0
			c0,1.4-1.2,2.6-2.6,2.6H21.3c-1.4,0-2.6-1.2-2.6-2.6l0,0C18.7,123.3,19.9,122.1,21.3,122.1z"/>
		<path fill-rule="evenodd" clip-rule="evenodd" fill="#939292" d="M14.7,133.9h30.8c1.4,0,2.6,1.2,2.6,2.6v0c0,1.4-1.2,2.6-2.6,2.6
			H14.7c-1.4,0-2.6-1.2-2.6-2.6v0C12.1,135.1,13.3,133.9,14.7,133.9z"/>
		<path fill-rule="evenodd" clip-rule="evenodd" fill="#939292" d="M4.8,145.7h30.8c1.4,0,2.6,1.2,2.6,2.6l0,0
			c0,1.4-1.2,2.6-2.6,2.6H4.8c-1.4,0-2.6-1.2-2.6-2.6l0,0C2.2,146.9,3.3,145.7,4.8,145.7z"/>
	</g>
	<g>
		<path fill-rule="evenodd" clip-rule="evenodd" fill="#CB2027" d="M94.5,26c4.6,0,8.2,3.7,8.2,8.2c0,1.8-0.6,3.4-1.5,4.7l0,0
			l-6.8,12.3L87.7,39l0,0c-0.9-1.3-1.5-3-1.5-4.7C86.3,29.7,89.9,26,94.5,26z"/>
		<path fill-rule="evenodd" clip-rule="evenodd" fill="#FFFFFF" d="M94.5,40.7c3.5,0,6.4-2.9,6.4-6.4c0-3.5-2.9-6.4-6.4-6.4
			c-3.5,0-6.4,2.9-6.4,6.4C88.1,37.9,91,40.7,94.5,40.7z"/>
	</g>
	<g>
		<path fill-rule="evenodd" clip-rule="evenodd" fill="#19B7B2" d="M159.5,34.8C159.4,34.9,159.4,34.9,159.5,34.8L159.5,34.8z"/>
	</g>
	<path fill-rule="evenodd" clip-rule="evenodd" fill="#CB2027" d="M164.2,96.3l-7.8-14.1l0,0c-1.1-1.5-1.7-3.4-1.7-5.4
		c0-5.2,4.2-9.4,9.4-9.4c5.2,0,9.4,4.2,9.4,9.4"/>
	<path fill-rule="evenodd" clip-rule="evenodd" fill="#CB2027" d="M173.6,76.8c0,2-0.6,3.9-1.7,5.4l0,0l-7.8,14.1"/>
	<path fill-rule="evenodd" clip-rule="evenodd" fill="#FFFFFF" d="M164.2,84.2c4.1,0,7.4-3.3,7.4-7.4c0-4.1-3.3-7.4-7.4-7.4
		c-4.1,0-7.4,3.3-7.4,7.4C156.8,80.9,160.1,84.2,164.2,84.2z"/>
	<g>
		<g>
			<line fill="none" stroke="#CB2027" stroke-width="0.7487" stroke-miterlimit="10" x1="160.5" y1="97.1" x2="156.5" y2="97.1"/>
			<path fill="none" stroke="#CB2027" stroke-width="0.7487" stroke-miterlimit="10" stroke-dasharray="7.8947,2.171" d="
				M154.3,97.1h-47.2c-6,0-10.8-4.8-10.8-10.8c0-6,4.8-10.8,10.8-10.8h19.6c6,0,10.8-4.8,10.8-10.8c0-6-4.8-10.8-10.8-10.8h-25.3"/>
			<line fill="none" stroke="#CB2027" stroke-width="0.7487" stroke-miterlimit="10" x1="100.3" y1="53.9" x2="96.3" y2="53.9"/>
		</g>
	</g>
</g>
</svg>
