<svg xmlns="http://www.w3.org/2000/svg" viewBox="0 0 3000 3000">
    <path fill="#FFF"    d="M2486.2,2469.2c0,2.8-2.2,5-5,5H547.6c-2.8,0-5-2.2-5-5V649.5 c0-2.8,2.2-5,5-5h1933.6c2.8,0,5,2.2,5,5V2469.2z"/>
    <path fill="#55ACEE" d="M1500,0C672.7,0,0,672.7,0,1500c0,826.8,672.7,1500,1500,1500c826.8,0,1500-673.2,1500-1500 C3000,672.7,2327.3,0,1500,0z M2169.1,1156.6c0.6,14.6,1.2,29.9,1.2,45.1c0,456.4-347.5,982-982.6,982 c-195.1,0-376.8-56.8-529.1-154.7c27,2.9,54.5,4.7,82.6,4.7c161.7,0,310.5-55.1,428.9-147.7c-151.2-2.9-278.3-102.5-322.3-239.6 c21.1,4.1,42.8,6.4,65,6.4c31.6,0,62.1-4.1,90.8-12.3C845.5,1609,726.6,1469.5,726.6,1302c0-1.2,0-2.9,0-4.1 c46.3,25.8,99.6,41.6,156.4,43.4c-92.6-61.5-153.5-167.6-153.5-287.1c0-63.3,17-122.5,46.9-173.4 c169.9,209.2,424.8,346.3,711.3,360.9c-5.9-25.2-8.8-51.6-8.8-78.5c0-190.4,154.7-345.1,345.1-345.1c99.6,0,188.7,42.2,252,109 c78.5-15.2,152.3-43.9,219.1-83.8c-25.8,80.9-80.3,148.2-151.8,191c69.7-8.2,136.5-27,198-54.5 C2295.1,1047.1,2236.5,1108,2169.1,1156.6z"/>
</svg>
