<svg xmlns="http://www.w3.org/2000/svg" viewBox="0 0 3000 3000">
    <path fill="#FFF"    d="M2676,2203c0,2.8-2.2,5-5,5H369c-2.8,0-5-2.2-5-5V785 c0-2.8,2.2-5,5-5h2302c2.8,0,5,2.2,5,5V2203z"/>
    <path fill="#4C75A3" d="M1500,0C671.5,0,0,671.5,0,1500s671.5,1500,1500,1500s1500-671.5,1500-1500S2328.5,0,1500,0z M2261.1,1662.3c69.7,68.6,144.1,132.4,206.8,208c27.5,33.4,53.9,68,73.8,106.6c28.7,55.1,2.9,116-46.9,118.9h-307 c-79.1,6.4-142.4-25.2-195.7-79.7c-42.8-43.4-82-89.6-123-134.2c-17-18.2-34.6-35.7-55.1-49.2c-41.6-27.5-78.5-18.8-102.5,24.6 c-24.6,44.5-29.9,93.8-32.2,143.6c-3.5,72.7-25.2,91.4-97.9,94.9c-155.3,7-302.9-16.4-440-94.3 c-120.7-69.1-214.5-166.4-295.9-277.1c-158.8-215-280.1-451.2-389.6-694.3c-24.6-54.5-6.4-83.8,53.9-85 c100.2-1.8,200.4-1.8,301.2,0c41,0.6,68,24,83.8,62.7c54.5,133.6,120.7,260.2,203.9,377.9c22.3,31.1,45.1,62.7,77.3,85 c35.7,24.6,62.7,16.4,79.7-23.4c10.5-25.2,15.2-52.1,17.6-79.1c8.2-92.6,8.8-185.2-4.7-277.7c-8.8-58-41-94.9-98.4-106.1 c-29.3-5.3-25.2-16.4-10.5-33.4c24.6-28.7,48-46.9,94.3-46.9h347.5c54.5,10.5,66.8,35.2,74.4,90.2l0.6,386.1 c-0.6,21.1,10.5,84.4,49.2,98.4c30.5,10,51-14.6,69.1-34c83.2-88.5,142.4-192.8,195.7-300.6c23.4-47.5,43.9-96.7,63.3-146.5 c14.6-36.3,37.5-54.5,78.5-53.9l334.6,0.6c10,0,19.9,0,29.9,1.8c56.3,9.4,72.1,34,54.5,89.1c-27.5,86.1-80.9,158.2-133,230.3 c-55.7,77.3-115.4,151.8-170.5,229.1C2193.8,1565,2197.9,1600.8,2261.1,1662.3z"/>
</svg>
