<svg xmlns="http://www.w3.org/2000/svg" viewBox="0 0 3000 3000">
    <path fill="#C00" d="M1500 0C672 0 0 672 0 1500s672 1500 1500 1500 1500-672 1500-1500S2328 0 1500 0zM1606 1974c-153 197-436 255-667 178 -241-79-417-319-417-573 0-4 0-8 0-12 0-5 0-10 0-15 -3-313 273-599 587-602 163-14 321 49 444 152 0 0 0 0 0 0 0 0 0 0 0 0 -50 56-102 110-157 162 -108-66-239-116-366-71 -204 58-328 299-252 499 17 57 49 107 89 148 108 108 282 151 426 88 103-37 171-132 201-234 -118-2-236-1-354-4 0 0 0 0 0 0 0 0 0 0 0 0 0-43 0-85 0-128 0-2 0-4 0-7 0-14 0-28 0-43 0-3 0-7 0-11 0-7 0-15 0-22 197 0 394-1 592 1 0 0 0 0 0 0 0 0 0 0 0 0C1743 1652 1718 1836 1606 1974zM2469 1479c0 59 0 117 0 176 0 0 0 0 0 0 -59 0-118 1-177 1 0 1 0 1 0 2 -1 57-1 114-1 171 0 1 0 3 0 4 -59 0-117 0-176 0 0 0 0 0 0 0 0-11 0-21 0-32 0-48 0-96-1-145 -59-1-118-1-177-1 0 0 0 0 0 0 0-59 0-117 0-176 0 0 0 0 0 0 59 0 118-1 177-1 0 0 0 0 0 0 0-59 1-118 2-176 59 0 117 0 176 0 0 59 1 118 1 177C2351 1479 2410 1479 2469 1479 2469 1479 2469 1479 2469 1479z"/>
</svg>