<svg xmlns="http://www.w3.org/2000/svg" viewBox="0 0 512 512">
    <path fill="#C00" d="M256 0C115 0 0 115 0 256c0 141 115 256 256 256 141 0 256-115 256-256C512 115 397 0 256 0zM370 197c0 3 0 5 0 8 0 78-59 168-168 168 -33 0-64-10-90-26 5 1 9 1 14 1 28 0 53-9 73-25 -26 0-47-17-55-41 4 1 7 1 11 1 5 0 11-1 16-2 -27-5-47-29-47-58 0 0 0 0 0-1 8 4 17 7 27 7 -16-10-26-29-26-49 0-11 3-21 8-30 29 36 73 59 121 62 -1-4-1-9-1-13 0-32 26-59 59-59 17 0 32 7 43 19 13-3 26-7 37-14 -4 14-14 25-26 33 12-1 23-5 34-9C392 179 382 189 370 197z"/>
</svg>