<svg xmlns="http://www.w3.org/2000/svg" viewBox="0 0 512 512">
    <path fill="#C00" d="M256 0C115 0 0 115 0 256s115 256 256 256 256-115 256-256S397 0 256 0zM386 284c12 12 25 23 35 36 5 6 9 12 13 18 5 9 1 20-8 20l-52 0c-13 1-24-4-33-14 -7-7-14-15-21-23 -3-3-6-6-9-8 -7-5-13-3-17 4 -4 8-5 16-5 25 -1 12-4 16-17 16 -26 1-52-3-75-16 -21-12-37-28-50-47 -27-37-48-77-66-118 -4-9-1-14 9-14 17 0 34 0 51 0 7 0 12 4 14 11 9 23 21 44 35 65 4 5 8 11 13 15 6 4 11 3 14-4 2-4 3-9 3-13 1-16 2-32-1-47 -1-10-7-16-17-18 -5-1-4-3-2-6 4-5 8-8 16-8l59 0c9 2 11 6 13 15l0 66c0 4 2 14 8 17 5 2 9-2 12-6 14-15 24-33 33-51 4-8 8-16 11-25 3-6 6-9 13-9l57 0c2 0 3 0 5 0 10 2 12 6 9 15 -5 15-14 27-23 39 -9 13-20 26-29 39C374 267 375 273 386 284z"/>
</svg>